{
  "accessors": [
    {
      "bufferView": 2,
      "componentType": 5126,
      "count": 1677,
      "max": [
        19.465761184692383,
        19.747467041015625,
        19.465763092041016
      ],
      "min": [
        -19.465766906738281,
        -19.747467041015625,
        -19.465770721435547
      ],
      "type": "VEC3"
    },
    {
      "bufferView": 2,
      "byteOffset": 20124,
      "componentType": 5126,
      "count": 1677,
      "max": [
        1,
        1,
        1
      ],
      "min": [
        -1,
        -1,
        -1
      ],
      "type": "VEC3"
    },
    {
      "bufferView": 3,
      "componentType": 5126,
      "count": 1677,
      "max": [
        1,
        0.081797018647193909,
        1,
        1
      ],
      "min": [
        -1,
        -0.081796228885650635,
        -1,
        1
      ],
      "type": "VEC4"
    },
    {
      "bufferView": 1,
      "componentType": 5126,
      "count": 1677,
      "max": [
        1.0000001192092896,
        1
      ],
      "min": [
        0,
        0
      ],
      "type": "VEC2"
    },
    {
      "bufferView": 1,
      "byteOffset": 13416,
      "componentType": 5126,
      "count": 1677,
      "max": [
        1.0000001192092896,
        1
      ],
      "min": [
        0,
        0
      ],
      "type": "VEC2"
    },
    {
      "bufferView": 1,
      "byteOffset": 26832,
      "componentType": 5126,
      "count": 1677,
      "max": [
        1.0000001192092896,
        1
      ],
      "min": [
        0,
        0
      ],
      "type": "VEC2"
    },
    {
      "bufferView": 0,
      "componentType": 5125,
      "count": 9360,
      "max": [
        1676
      ],
      "min": [
        0
      ],
      "type": "SCALAR"
    },
    {
      "bufferView": 2,
      "byteOffset": 40248,
      "componentType": 5126,
      "count": 1677,
      "max": [
        19.886859893798828,
        20.466262817382812,
        20.174324035644531
      ],
      "min": [
        -19.331254959106445,
        -20.466262817382812,
        -20.174335479736328
      ],
      "type": "VEC3"
    },
    {
      "bufferView": 2,
      "byteOffset": 60372,
      "componentType": 5126,
      "count": 1677,
      "max": [
        1,
        1,
        1
      ],
      "min": [
        -1,
        -1,
        -1
      ],
      "type": "VEC3"
    },
    {
      "bufferView": 3,
      "byteOffset": 26832,
      "componentType": 5126,
      "count": 1677,
      "max": [
        1,
        0.08419521152973175,
        1,
        1
      ],
      "min": [
        -1,
        -0.084195196628570557,
        -1,
        1
      ],
      "type": "VEC4"
    },
    {
      "bufferView": 1,
      "byteOffset": 40248,
      "componentType": 5126,
      "count": 1677,
      "max": [
        1.0000001192092896,
        1
      ],
      "min": [
        0,
        0
      ],
      "type": "VEC2"
    },
    {
      "bufferView": 1,
      "byteOffset": 53664,
      "componentType": 5126,
      "count": 1677,
      "max": [
        1.0000001192092896,
        1
      ],
      "min": [
        0,
        0
      ],
      "type": "VEC2"
    },
    {
      "bufferView": 0,
      "byteOffset": 37440,
      "componentType": 5125,
      "count": 9360,
      "max": [
        1676
      ],
      "min": [
        0
      ],
      "type": "SCALAR"
    },
    {
      "bufferView": 4,
      "componentType": 5126,
      "count": 1501,
      "max": [
        50
      ],
      "min": [
        0
      ],
      "type": "SCALAR"
    },
    {
      "bufferView": 5,
      "componentType": 5126,
      "count": 1501,
      "max": [
        0.49895176291465759,
        0.70710676908493042,
        0.70710676908493042,
        0.70710676908493042
      ],
      "min": [
        -0.70710676908493042,
        -0.5,
        -0.5,
        -0.49895176291465759
      ],
      "type": "VEC4"
    }
  ],
  "animations": [
    {
      "channels": [
        {
          "sampler": 0,
          "target": {
            "node": 5,
            "path": "rotation"
          }
        }
      ],
      "name": "Take 001",
      "samplers": [
        {
          "input": 13,
          "interpolation": "LINEAR",
          "output": 14
        }
      ]
    }
  ],
  "asset": {
    "extras": {
      "author": "Peter Stephan (https://sketchfab.com/Peter.Stephan)",
      "license": "CC-BY-4.0 (http://creativecommons.org/licenses/by/4.0/)",
      "source": "https://sketchfab.com/3d-models/earth-a8eaaaad100c48a69847150d15f98e3c",
      "title": "Earth"
    },
    "generator": "Sketchfab-6.71.0",
    "version": "2.0"
  },
  "bufferViews": [
    {
      "buffer": 0,
      "byteLength": 74880,
      "byteOffset": 0,
      "name": "floatBufferViews",
      "target": 34963
    },
    {
      "buffer": 0,
      "byteLength": 67080,
      "byteOffset": 74880,
      "byteStride": 8,
      "name": "floatBufferViews",
      "target": 34962
    },
    {
      "buffer": 0,
      "byteLength": 80496,
      "byteOffset": 141960,
      "byteStride": 12,
      "name": "floatBufferViews",
      "target": 34962
    },
    {
      "buffer": 0,
      "byteLength": 53664,
      "byteOffset": 222456,
      "byteStride": 16,
      "name": "floatBufferViews",
      "target": 34962
    },
    {
      "buffer": 0,
      "byteLength": 6004,
      "byteOffset": 276120,
      "name": "floatBufferViews"
    },
    {
      "buffer": 0,
      "byteLength": 24016,
      "byteOffset": 282124,
      "byteStride": 16,
      "name": "floatBufferViews"
    }
  ],
  "buffers": [
    {
      "byteLength": 306140,
      "uri": "scene.bin"
    }
  ],
  "extensionsRequired": [
    "KHR_materials_pbrSpecularGlossiness"
  ],
  "extensionsUsed": [
    "KHR_materials_pbrSpecularGlossiness"
  ],
  "images": [
    {
      "uri": "textures/Tierra_blin_superficie_diffuse.jpeg"
    },
    {
      "uri": "textures/tierra_nubes_diffuse.jpeg"
    }
  ],
  "materials": [
    {
      "doubleSided": true,
      "emissiveFactor": [
        0,
        0,
        0
      ],
      "extensions": {
        "KHR_materials_pbrSpecularGlossiness": {
          "diffuseFactor": [
            0,
            0,
            0,
            1
          ],
          "diffuseTexture": {
            "index": 0,
            "texCoord": 0
          },
          "glossinessFactor": 0.079251618375051722,
          "specularFactor": [
            0,
            0,
            0
          ]
        }
      },
      "name": "Tierra_blin_superficie"
    },
    {
      "doubleSided": true,
      "emissiveFactor": [
        0,
        0,
        0
      ],
      "extensions": {
        "KHR_materials_pbrSpecularGlossiness": {
          "diffuseFactor": [
            1,
            1,
            1,
            1
          ],
          "diffuseTexture": {
            "index": 1,
            "texCoord": 0
          },
          "glossinessFactor": 0,
          "specularFactor": [
            0,
            0,
            0
          ]
        }
      },
      "name": "tierra_nubes"
    }
  ],
  "meshes": [
    {
      "name": "Tierra_Tierra_blin_superficie_0",
      "primitives": [
        {
          "attributes": {
            "NORMAL": 1,
            "POSITION": 0,
            "TANGENT": 2,
            "TEXCOORD_0": 3,
            "TEXCOORD_1": 4,
            "TEXCOORD_2": 5
          },
          "indices": 6,
          "material": 0,
          "mode": 4
        }
      ]
    },
    {
      "name": "Nubes_tierra_nubes_0",
      "primitives": [
        {
          "attributes": {
            "NORMAL": 8,
            "POSITION": 7,
            "TANGENT": 9,
            "TEXCOORD_0": 10,
            "TEXCOORD_1": 11
          },
          "indices": 12,
          "material": 1,
          "mode": 4
        }
      ]
    }
  ],
  "nodes": [
    {
      "children": [
        1
      ],
      "name": "RootNode (gltf orientation matrix)",
      "rotation": [
        -0.70710678118654746,
        -0,
        -0,
        0.70710678118654757
      ]
    },
    {
      "children": [
        2
      ],
      "name": "RootNode (model correction matrix)"
    },
    {
      "children": [
        3
      ],
      "matrix": [
        1,
        0,
        0,
        0,
        0,
        0,
        1,
        0,
        0,
        -1,
        0,
        0,
        0,
        0,
        0,
        1
      ],
      "name": "36425baac6a54cd0a77af038724940c5.fbx"
    },
    {
      "children": [
        4
      ],
      "name": ""
    },
    {
      "children": [
        5
      ],
      "name": "RootNode"
    },
    {
      "children": [
        6,
        9
      ],
      "name": "Group001",
      "rotation": [
        -0.7071068286895752,
        -0,
        0,
        0.7071068286895752
      ],
      "translation": [
        0.015921354293823242,
        -0.0036902427673339844,
        -0.00021719932556152344
      ]
    },
    {
      "children": [
        7
      ],
      "name": "Tierra",
      "rotation": [
        0.69980365037918091,
        -0.10404115915298462,
        0.027284581214189529,
        0.70619106292724609
      ],
      "scale": [
        0.39370071887969971,
        0.39370068907737732,
        0.39370077848434448
      ],
      "translation": [
        -0.015947015956044197,
        -0.00021570129320025444,
        -0.0029845917597413063
      ]
    },
    {
      "children": [
        8
      ],
      "matrix": [
        1,
        0,
        -0,
        0,
        0,
        1,
        0,
        0,
        0,
        0,
        1,
        0,
        2.86102294921875e-06,
        -1.1559606861945199e-16,
        3.814697265625e-06,
        1
      ],
      "name": ""
    },
    {
      "mesh": 0,
      "name": "Tierra_Tierra_blin_superficie_0"
    },
    {
      "children": [
        10
      ],
      "name": "Nubes",
      "rotation": [
        -0.019913583993911743,
        0.70505630970001221,
        0.70005226135253906,
        0.11147192865610123
      ],
      "scale": [
        0.39370071887969971,
        0.39370068907737732,
        0.39370074868202209
      ],
      "translation": [
        1.0915100574493408e-06,
        2.9685907065868378e-07,
        -2.2584572434425354e-07
      ]
    },
    {
      "children": [
        11
      ],
      "matrix": [
        1,
        0,
        -0,
        0,
        0,
        1,
        0,
        0,
        0,
        0,
        1,
        0,
        -0.27780055999755898,
        -2.4888064157312099e-15,
        3.814697265625e-06,
        1
      ],
      "name": ""
    },
    {
      "mesh": 1,
      "name": "Nubes_tierra_nubes_0"
    }
  ],
  "samplers": [
    {
      "magFilter": 9729,
      "minFilter": 9987,
      "wrapS": 10497,
      "wrapT": 10497
    }
  ],
  "scene": 0,
  "scenes": [
    {
      "name": "OSG_Scene",
      "nodes": [
        0
      ]
    }
  ],
  "textures": [
    {
      "sampler": 0,
      "source": 0
    },
    {
      "sampler": 0,
      "source": 1
    }
  ]
}

