<svg width="350" height="70" viewBox="0 0 350 70" fill="none" xmlns="http://www.w3.org/2000/svg">
<g clip-path="url(#clip0)">
<path d="M0 4.80469H70V70.0001H0V4.80469Z" fill="#F45858"/>
<path d="M8.42065 10.7871H61.5801V63.7312H8.42065V10.7871Z" fill="#DFEEF4"/>
<path d="M49.1719 10.7874V2.65834C49.1723 2.30912 49.0806 1.96329 48.9021 1.64061C48.7237 1.31794 48.462 1.02477 48.132 0.777862C47.802 0.530957 47.4102 0.335167 46.979 0.201693C46.5478 0.0682198 46.0856 -0.000317965 45.619 1.10896e-06H24.3809C23.4394 1.10896e-06 22.5366 0.279883 21.8709 0.778077C21.2052 1.27627 20.8312 1.95197 20.8312 2.65652V10.7856L49.1719 10.7874Z" fill="#3EA2E5"/>
<path d="M16.8853 32.4888H29.6338V42.0295H16.8853V32.4888Z" fill="#F2DA30"/>
<path d="M16.8853 48.1099H29.6338V57.6506H16.8853V48.1099Z" fill="#F2DA30"/>
<path d="M16.8853 16.8677H29.6338V26.4085H16.8853V16.8677Z" fill="#F2DA30"/>
<path d="M53.1149 22.7009H36.3392C35.963 22.7009 35.6022 22.5891 35.3361 22.39C35.0701 22.1909 34.9207 21.9208 34.9207 21.6393C34.9207 21.3577 35.0701 21.0877 35.3361 20.8886C35.6022 20.6895 35.963 20.5776 36.3392 20.5776H53.1149C53.4912 20.5776 53.852 20.6895 54.118 20.8886C54.3841 21.0877 54.5335 21.3577 54.5335 21.6393C54.5335 21.9208 54.3841 22.1909 54.118 22.39C53.852 22.5891 53.4912 22.7009 53.1149 22.7009Z" fill="#6D7A84"/>
<path d="M53.1149 38.322H36.3392C35.963 38.322 35.6022 38.2102 35.3361 38.0111C35.0701 37.812 34.9207 37.5419 34.9207 37.2604C34.9207 36.9788 35.0701 36.7088 35.3361 36.5097C35.6022 36.3106 35.963 36.1987 36.3392 36.1987H53.1149C53.4912 36.1987 53.852 36.3106 54.118 36.5097C54.3841 36.7088 54.5335 36.9788 54.5335 37.2604C54.5335 37.5419 54.3841 37.812 54.118 38.0111C53.852 38.2102 53.4912 38.322 53.1149 38.322Z" fill="#6D7A84"/>
<path d="M53.1149 53.9431H36.3392C35.963 53.9431 35.6022 53.8313 35.3361 53.6322C35.0701 53.4331 34.9207 53.163 34.9207 52.8815C34.9207 52.5999 35.0701 52.3299 35.3361 52.1308C35.6022 51.9317 35.963 51.8198 36.3392 51.8198H53.1149C53.4912 51.8198 53.852 51.9317 54.118 52.1308C54.3841 52.3299 54.5335 52.5999 54.5335 52.8815C54.5335 53.163 54.3841 53.4331 54.118 53.6322C53.852 53.8313 53.4912 53.9431 53.1149 53.9431Z" fill="#6D7A84"/>
<path d="M23.2688 23.8591C23.0825 23.8592 22.898 23.8317 22.726 23.7783C22.5539 23.7249 22.3976 23.6466 22.2661 23.5479L20.1317 21.9506C19.9963 21.8526 19.8882 21.7354 19.8139 21.6059C19.7396 21.4764 19.7005 21.3371 19.6989 21.1961C19.6973 21.0551 19.7332 20.9153 19.8046 20.7849C19.876 20.6544 19.9813 20.5359 20.1145 20.4362C20.2478 20.3366 20.4062 20.2578 20.5805 20.2044C20.7549 20.1511 20.9417 20.1242 21.13 20.1255C21.3184 20.1267 21.5045 20.1561 21.6776 20.2117C21.8507 20.2674 22.0072 20.3483 22.138 20.4497L23.2688 21.296L31.9019 14.8358C32.1694 14.6423 32.5277 14.5353 32.8996 14.5376C33.2716 14.54 33.6274 14.6516 33.8905 14.8484C34.1535 15.0452 34.3028 15.3114 34.3061 15.5898C34.3094 15.8682 34.1665 16.1363 33.9082 16.3366L24.2724 23.5479C24.1407 23.6467 23.9843 23.725 23.8121 23.7784C23.6399 23.8318 23.4552 23.8592 23.2688 23.8591Z" fill="#6D7A84"/>
<path d="M23.2689 39.4802C23.0826 39.4803 22.8981 39.4528 22.726 39.3994C22.5539 39.346 22.3977 39.2677 22.2661 39.169L20.1318 37.5716C19.8734 37.3714 19.7305 37.1032 19.7338 36.8248C19.7371 36.5465 19.8864 36.2802 20.1495 36.0834C20.4125 35.8866 20.7684 35.775 21.1403 35.7727C21.5123 35.7703 21.8706 35.8774 22.1381 36.0708L23.2689 36.9171L31.9019 30.4569C32.1694 30.2634 32.5277 30.1564 32.8997 30.1587C33.2716 30.1611 33.6275 30.2727 33.8905 30.4695C34.1536 30.6663 34.3029 30.9325 34.3062 31.2109C34.3095 31.4892 34.1666 31.7574 33.9082 31.9577L24.2724 39.169C24.1408 39.2678 23.9844 39.3461 23.8121 39.3995C23.6399 39.4529 23.4553 39.4803 23.2689 39.4802Z" fill="#6D7A84"/>
<path d="M23.2689 55.1015C23.0826 55.1016 22.8981 55.0741 22.726 55.0207C22.5539 54.9673 22.3977 54.889 22.2661 54.7903L20.1318 53.193C19.8734 52.9927 19.7305 52.7245 19.7338 52.4461C19.7371 52.1678 19.8864 51.9015 20.1495 51.7047C20.4125 51.5079 20.7684 51.3963 21.1403 51.394C21.5123 51.3916 21.8706 51.4987 22.1381 51.6921L23.2689 52.5384L31.9019 46.0782C32.0328 45.9767 32.1893 45.8958 32.3623 45.8402C32.5354 45.7845 32.7215 45.7552 32.9099 45.7539C33.0982 45.7527 33.2851 45.7795 33.4594 45.8329C33.6338 45.8862 33.7922 45.965 33.9254 46.0647C34.0586 46.1644 34.164 46.2829 34.2353 46.4133C34.3067 46.5438 34.3426 46.6836 34.341 46.8246C34.3394 46.9655 34.3003 47.1048 34.226 47.2344C34.1517 47.3639 34.0437 47.4811 33.9082 47.579L24.2724 54.7903C24.1408 54.8891 23.9844 54.9674 23.8121 55.0208C23.6399 55.0742 23.4553 55.1017 23.2689 55.1015Z" fill="#6D7A84"/>
<g filter="url(#filter0_d)">
<path d="M110 35C110 21.1929 121.193 10 135 10H325C338.807 10 350 21.1929 350 35C350 48.8071 338.807 60 325 60H230H135C121.193 60 110 48.8071 110 35Z" fill="#FCE3AF"/>
<path d="M179.399 44.7314C179.484 44.902 179.527 45.0834 179.527 45.2754C179.527 45.5954 179.399 45.862 179.143 46.0754C178.908 46.2887 178.62 46.3954 178.279 46.3954C177.745 46.3954 177.372 46.1394 177.159 45.6274L174.887 40.4434H162.823L160.519 45.6274C160.305 46.1394 159.932 46.3954 159.399 46.3954C159.057 46.3954 158.759 46.2887 158.503 46.0754C158.247 45.8407 158.119 45.5634 158.119 45.2434C158.119 45.0727 158.161 44.902 158.247 44.7314L167.399 24.3794C167.527 24.0807 167.719 23.8567 167.975 23.7073C168.231 23.558 168.508 23.4834 168.807 23.4834C169.127 23.4834 169.415 23.5687 169.671 23.7394C169.927 23.8887 170.119 24.102 170.247 24.3794L179.399 44.7314ZM173.927 38.2674L168.839 26.7794L163.783 38.2674H173.927ZM187.901 46.4594C186.92 46.4594 185.981 46.342 185.085 46.1074C184.21 45.8727 183.432 45.542 182.749 45.1154C182.365 44.8594 182.088 44.6247 181.917 44.4114C181.768 44.1767 181.693 43.8994 181.693 43.5794C181.693 43.302 181.768 43.078 181.917 42.9074C182.088 42.7154 182.301 42.6194 182.557 42.6194C182.813 42.6194 183.186 42.7794 183.677 43.0994C184.317 43.4834 184.946 43.7927 185.565 44.0274C186.205 44.2407 186.994 44.3474 187.933 44.3474C189.085 44.3474 189.981 44.1447 190.621 43.7394C191.261 43.334 191.581 42.7474 191.581 41.9794C191.581 41.51 191.464 41.1367 191.229 40.8594C190.994 40.5607 190.589 40.3047 190.013 40.0914C189.437 39.8567 188.594 39.622 187.485 39.3874C185.608 38.982 184.264 38.438 183.453 37.7554C182.642 37.0727 182.237 36.1447 182.237 34.9714C182.237 34.054 182.493 33.2434 183.005 32.5394C183.517 31.8354 184.221 31.2807 185.117 30.8754C186.034 30.47 187.069 30.2674 188.221 30.2674C189.053 30.2674 189.853 30.3847 190.621 30.6194C191.41 30.8327 192.104 31.142 192.701 31.5474C193.426 32.0594 193.789 32.5927 193.789 33.1474C193.789 33.4247 193.704 33.6594 193.533 33.8514C193.362 34.0434 193.16 34.1394 192.925 34.1394C192.669 34.1394 192.285 33.958 191.773 33.5954C191.176 33.2114 190.61 32.9127 190.077 32.6994C189.544 32.486 188.882 32.3794 188.093 32.3794C187.09 32.3794 186.28 32.6034 185.661 33.0514C185.064 33.4994 184.765 34.0967 184.765 34.8434C184.765 35.3127 184.872 35.6967 185.085 35.9954C185.32 36.2727 185.693 36.5287 186.205 36.7634C186.738 36.9767 187.496 37.19 188.477 37.4034C189.928 37.7234 191.048 38.0754 191.837 38.4594C192.648 38.8434 193.224 39.3127 193.565 39.8674C193.906 40.422 194.077 41.126 194.077 41.9794C194.077 43.3234 193.512 44.4114 192.381 45.2434C191.25 46.054 189.757 46.4594 187.901 46.4594ZM199.34 46.3954C198.956 46.3954 198.636 46.2887 198.38 46.0754C198.145 45.8407 198.028 45.5207 198.028 45.1154V31.6114C198.028 31.206 198.145 30.8967 198.38 30.6834C198.636 30.4487 198.956 30.3314 199.34 30.3314C199.724 30.3314 200.033 30.4487 200.268 30.6834C200.503 30.8967 200.62 31.206 200.62 31.6114V45.1154C200.62 45.542 200.503 45.862 200.268 46.0754C200.033 46.2887 199.724 46.3954 199.34 46.3954ZM199.34 26.9713C198.828 26.9713 198.412 26.822 198.092 26.5233C197.772 26.2247 197.612 25.83 197.612 25.3393C197.612 24.87 197.772 24.486 198.092 24.1874C198.412 23.8887 198.828 23.7394 199.34 23.7394C199.852 23.7394 200.268 23.8887 200.588 24.1874C200.908 24.486 201.068 24.87 201.068 25.3393C201.068 25.83 200.908 26.2247 200.588 26.5233C200.268 26.822 199.852 26.9713 199.34 26.9713ZM210.714 46.4594C209.732 46.4594 208.794 46.342 207.898 46.1074C207.023 45.8727 206.244 45.542 205.562 45.1154C205.178 44.8594 204.9 44.6247 204.73 44.4114C204.58 44.1767 204.506 43.8994 204.506 43.5794C204.506 43.302 204.58 43.078 204.73 42.9074C204.9 42.7154 205.114 42.6194 205.37 42.6194C205.626 42.6194 205.999 42.7794 206.49 43.0994C207.13 43.4834 207.759 43.7927 208.378 44.0274C209.018 44.2407 209.807 44.3474 210.746 44.3474C211.898 44.3474 212.794 44.1447 213.434 43.7394C214.074 43.334 214.394 42.7474 214.394 41.9794C214.394 41.51 214.276 41.1367 214.042 40.8594C213.807 40.5607 213.402 40.3047 212.826 40.0914C212.25 39.8567 211.407 39.622 210.298 39.3874C208.42 38.982 207.076 38.438 206.266 37.7554C205.455 37.0727 205.05 36.1447 205.05 34.9714C205.05 34.054 205.306 33.2434 205.818 32.5394C206.33 31.8354 207.034 31.2807 207.93 30.8754C208.847 30.47 209.882 30.2674 211.034 30.2674C211.866 30.2674 212.666 30.3847 213.434 30.6194C214.223 30.8327 214.916 31.142 215.514 31.5474C216.239 32.0594 216.602 32.5927 216.602 33.1474C216.602 33.4247 216.516 33.6594 216.346 33.8514C216.175 34.0434 215.972 34.1394 215.738 34.1394C215.482 34.1394 215.098 33.958 214.586 33.5954C213.988 33.2114 213.423 32.9127 212.89 32.6994C212.356 32.486 211.695 32.3794 210.906 32.3794C209.903 32.3794 209.092 32.6034 208.474 33.0514C207.876 33.4994 207.578 34.0967 207.578 34.8434C207.578 35.3127 207.684 35.6967 207.898 35.9954C208.132 36.2727 208.506 36.5287 209.018 36.7634C209.551 36.9767 210.308 37.19 211.29 37.4034C212.74 37.7234 213.86 38.0754 214.65 38.4594C215.46 38.8434 216.036 39.3127 216.378 39.8674C216.719 40.422 216.89 41.126 216.89 41.9794C216.89 43.3234 216.324 44.4114 215.194 45.2434C214.063 46.054 212.57 46.4594 210.714 46.4594ZM227.884 44.3474C228.631 44.4114 229.004 44.7527 229.004 45.3714C229.004 45.734 228.866 46.0114 228.588 46.2034C228.332 46.374 227.938 46.438 227.404 46.3954L226.54 46.3314C224.834 46.2034 223.575 45.6914 222.764 44.7954C221.954 43.8994 221.548 42.5447 221.548 40.7314V32.6994H219.404C219.042 32.6994 218.754 32.614 218.54 32.4434C218.348 32.2514 218.252 32.006 218.252 31.7074C218.252 31.3874 218.348 31.1314 218.54 30.9394C218.754 30.7474 219.042 30.6514 219.404 30.6514H221.548V27.0354C221.548 26.63 221.666 26.3207 221.9 26.1074C222.135 25.8727 222.455 25.7554 222.86 25.7554C223.244 25.7554 223.554 25.8727 223.788 26.1074C224.023 26.3207 224.14 26.63 224.14 27.0354V30.6514H227.692C228.034 30.6514 228.3 30.7474 228.492 30.9394C228.706 31.1314 228.812 31.3874 228.812 31.7074C228.812 32.006 228.706 32.2514 228.492 32.4434C228.3 32.614 228.034 32.6994 227.692 32.6994H224.14V40.8594C224.14 42.0327 224.375 42.886 224.844 43.4194C225.335 43.9314 226.06 44.2194 227.02 44.2834L227.884 44.3474ZM243.623 42.6194C243.858 42.6194 244.061 42.7154 244.231 42.9074C244.402 43.0994 244.487 43.3447 244.487 43.6434C244.487 44.1767 244.114 44.6674 243.367 45.1154C242.599 45.5634 241.789 45.9047 240.935 46.1394C240.082 46.3527 239.25 46.4594 238.439 46.4594C236.029 46.4594 234.119 45.7447 232.711 44.3154C231.325 42.886 230.631 40.9127 230.631 38.3954C230.631 36.7954 230.941 35.3874 231.559 34.1714C232.178 32.934 233.042 31.974 234.151 31.2914C235.282 30.6087 236.562 30.2674 237.991 30.2674C240.018 30.2674 241.629 30.9287 242.823 32.2514C244.018 33.574 244.615 35.366 244.615 37.6274C244.615 38.054 244.53 38.3634 244.359 38.5554C244.189 38.7474 243.911 38.8434 243.527 38.8434H233.223C233.415 42.5127 235.154 44.3474 238.439 44.3474C239.271 44.3474 239.986 44.2407 240.583 44.0274C241.181 43.7927 241.821 43.4834 242.503 43.0994C243.058 42.7794 243.431 42.6194 243.623 42.6194ZM238.023 32.2834C236.658 32.2834 235.559 32.71 234.727 33.5634C233.917 34.4167 233.437 35.622 233.287 37.1794H242.343C242.301 35.6007 241.906 34.3954 241.159 33.5634C240.413 32.71 239.367 32.2834 238.023 32.2834ZM256.274 30.2674C260.008 30.2674 261.874 32.326 261.874 36.4434V45.1154C261.874 45.5207 261.757 45.8407 261.522 46.0754C261.309 46.2887 261 46.3954 260.594 46.3954C260.189 46.3954 259.869 46.2887 259.634 46.0754C259.4 45.8407 259.282 45.5207 259.282 45.1154V36.6034C259.282 35.1527 258.994 34.0967 258.418 33.4354C257.864 32.774 256.968 32.4434 255.73 32.4434C254.301 32.4434 253.16 32.8807 252.306 33.7554C251.453 34.63 251.026 35.814 251.026 37.3074V45.1154C251.026 45.5207 250.909 45.8407 250.674 46.0754C250.461 46.2887 250.152 46.3954 249.746 46.3954C249.341 46.3954 249.021 46.2887 248.786 46.0754C248.552 45.8407 248.434 45.5207 248.434 45.1154V31.6114C248.434 31.2274 248.552 30.918 248.786 30.6834C249.021 30.4487 249.341 30.3314 249.746 30.3314C250.13 30.3314 250.429 30.4487 250.642 30.6834C250.877 30.918 250.994 31.2167 250.994 31.5794V33.2114C251.506 32.2514 252.221 31.526 253.138 31.0354C254.056 30.5234 255.101 30.2674 256.274 30.2674ZM273.054 46.4594C271.603 46.4594 270.312 46.1287 269.182 45.4674C268.072 44.806 267.208 43.8674 266.59 42.6514C265.992 41.4354 265.694 40.0274 265.694 38.4274C265.694 36.8274 266.003 35.4087 266.622 34.1714C267.262 32.934 268.147 31.974 269.278 31.2914C270.408 30.6087 271.71 30.2674 273.182 30.2674C273.992 30.2674 274.792 30.3847 275.582 30.6194C276.392 30.8327 277.096 31.1527 277.694 31.5794C278.078 31.8354 278.344 32.0914 278.494 32.3474C278.664 32.582 278.75 32.8487 278.75 33.1474C278.75 33.446 278.664 33.6914 278.494 33.8834C278.344 34.0754 278.142 34.1714 277.886 34.1714C277.736 34.1714 277.576 34.1287 277.406 34.0434C277.235 33.958 277.086 33.8727 276.958 33.7874C276.851 33.702 276.776 33.6487 276.734 33.6274C276.179 33.2647 275.646 32.9767 275.134 32.7634C274.643 32.55 274.035 32.4434 273.31 32.4434C271.752 32.4434 270.536 32.9767 269.662 34.0434C268.808 35.0887 268.382 36.55 268.382 38.4274C268.382 40.3047 268.808 41.7554 269.662 42.7794C270.536 43.8034 271.752 44.3154 273.31 44.3154C274.035 44.3154 274.654 44.2087 275.166 43.9954C275.699 43.782 276.232 43.494 276.766 43.1314C277 42.982 277.224 42.854 277.438 42.7474C277.651 42.6407 277.832 42.5874 277.982 42.5874C278.216 42.5874 278.408 42.6834 278.558 42.8754C278.728 43.0674 278.814 43.3127 278.814 43.6114C278.814 43.8887 278.739 44.1447 278.59 44.3794C278.44 44.5927 278.163 44.838 277.758 45.1154C277.16 45.5207 276.435 45.8514 275.582 46.1074C274.75 46.342 273.907 46.4594 273.054 46.4594ZM283.246 46.3954C282.862 46.3954 282.542 46.2887 282.286 46.0754C282.052 45.8407 281.934 45.5207 281.934 45.1154V31.6114C281.934 31.206 282.052 30.8967 282.286 30.6834C282.542 30.4487 282.862 30.3314 283.246 30.3314C283.63 30.3314 283.94 30.4487 284.174 30.6834C284.409 30.8967 284.526 31.206 284.526 31.6114V45.1154C284.526 45.542 284.409 45.862 284.174 46.0754C283.94 46.2887 283.63 46.3954 283.246 46.3954ZM283.246 26.9713C282.734 26.9713 282.318 26.822 281.998 26.5233C281.678 26.2247 281.518 25.83 281.518 25.3393C281.518 24.87 281.678 24.486 281.998 24.1874C282.318 23.8887 282.734 23.7394 283.246 23.7394C283.758 23.7394 284.174 23.8887 284.494 24.1874C284.814 24.486 284.974 24.87 284.974 25.3393C284.974 25.83 284.814 26.2247 284.494 26.5233C284.174 26.822 283.758 26.9713 283.246 26.9713ZM295.74 30.2674C299.644 30.2674 301.596 32.3154 301.596 36.4114V45.1154C301.596 45.4994 301.478 45.8087 301.244 46.0434C301.03 46.278 300.732 46.3954 300.348 46.3954C299.964 46.3954 299.654 46.278 299.42 46.0434C299.185 45.8087 299.068 45.4994 299.068 45.1154V43.5794C298.662 44.4967 298.044 45.2114 297.212 45.7234C296.38 46.214 295.42 46.4594 294.332 46.4594C293.329 46.4594 292.401 46.2567 291.548 45.8514C290.716 45.446 290.054 44.8807 289.564 44.1554C289.073 43.43 288.828 42.63 288.828 41.7554C288.828 40.582 289.126 39.6754 289.724 39.0354C290.321 38.374 291.302 37.9047 292.668 37.6274C294.033 37.3287 295.932 37.1794 298.364 37.1794H299.068V36.1234C299.068 34.8434 298.801 33.9047 298.268 33.3074C297.756 32.71 296.913 32.4114 295.74 32.4114C294.289 32.4114 292.817 32.806 291.324 33.5954C290.748 33.958 290.342 34.1394 290.108 34.1394C289.852 34.1394 289.638 34.0434 289.468 33.8514C289.297 33.6594 289.212 33.414 289.212 33.1154C289.212 32.8167 289.297 32.5607 289.468 32.3474C289.66 32.1127 289.958 31.878 290.364 31.6434C291.11 31.2167 291.953 30.886 292.892 30.6514C293.852 30.3954 294.801 30.2674 295.74 30.2674ZM294.684 44.4114C295.964 44.4114 297.009 43.9847 297.82 43.1314C298.652 42.2567 299.068 41.1367 299.068 39.7714V38.8434H298.492C296.614 38.8434 295.185 38.9287 294.204 39.0994C293.222 39.2487 292.518 39.5154 292.092 39.8994C291.686 40.262 291.484 40.806 291.484 41.5314C291.484 42.3634 291.782 43.0567 292.38 43.6114C292.998 44.1447 293.766 44.4114 294.684 44.4114Z" fill="black"/>
</g>
</g>
<defs>
<filter id="filter0_d" x="109" y="10" width="256" height="66" filterUnits="userSpaceOnUse" color-interpolation-filters="sRGB">
<feFlood flood-opacity="0" result="BackgroundImageFix"/>
<feColorMatrix in="SourceAlpha" type="matrix" values="0 0 0 0 0 0 0 0 0 0 0 0 0 0 0 0 0 0 127 0"/>
<feOffset dx="7" dy="8"/>
<feGaussianBlur stdDeviation="4"/>
<feColorMatrix type="matrix" values="0 0 0 0 0 0 0 0 0 0 0 0 0 0 0 0 0 0 0.25 0"/>
<feBlend mode="normal" in2="BackgroundImageFix" result="effect1_dropShadow"/>
<feBlend mode="normal" in="SourceGraphic" in2="effect1_dropShadow" result="shape"/>
</filter>
<clipPath id="clip0">
<rect width="350" height="70" fill="white"/>
</clipPath>
</defs>
</svg>
