<svg width="350" height="70" viewBox="0 0 350 70" fill="none" xmlns="http://www.w3.org/2000/svg">
<g clip-path="url(#clip0)">
<path d="M62.6172 0H15.0391C10.0635 0 6.01562 4.04783 6.01562 9.02344V61.25C6.01562 61.3066 6.02014 61.362 6.02684 61.4167C6.25721 66.1886 10.2111 70 15.0391 70H62.6172C63.3721 70 63.9844 69.3878 63.9844 68.6328V1.36719C63.9844 0.612227 63.3721 0 62.6172 0ZM8.75 9.02344C8.75 6.02506 10.8594 3.51012 13.6719 2.88408V52.0566C11.7724 52.3466 10.0673 53.2323 8.75 54.5147V9.02344ZM61.25 51.9531H32.4023C31.6474 51.9531 31.0352 52.5654 31.0352 53.3203C31.0352 54.0753 31.6474 54.6875 32.4023 54.6875H44.7947V64.4242C44.7947 64.9407 45.0859 65.4132 45.5473 65.6455C46.009 65.8779 46.5618 65.8299 46.9767 65.5222L51.0837 62.4742L55.1908 65.5222C55.4311 65.7005 55.7175 65.7915 56.0057 65.7915C56.2153 65.7915 56.4259 65.7433 56.6202 65.6456C57.0816 65.4135 57.3728 64.941 57.3728 64.4243V54.6875H61.25V67.2656H15.0391C11.5713 67.2656 8.75 64.4443 8.75 60.9766C8.75 57.5088 11.5713 54.6875 15.0391 54.6875H21.4193C22.1743 54.6875 22.7865 54.0753 22.7865 53.3203C22.7865 52.5654 22.1743 51.9531 21.4193 51.9531H16.4062V2.73438H61.25V51.9531ZM54.6384 54.6875V61.7071L51.8986 59.6736C51.4147 59.3145 50.7527 59.3145 50.2689 59.6736L47.529 61.7071V54.6875H54.6384Z" fill="black"/>
<path d="M28.0368 52.3537C27.7826 52.0993 27.4299 51.9531 27.0703 51.9531C26.7107 51.9531 26.358 52.0993 26.1037 52.3537C25.8494 52.6081 25.7031 52.9607 25.7031 53.3203C25.7031 53.6799 25.8493 54.0326 26.1037 54.2868C26.358 54.5411 26.7107 54.6875 27.0703 54.6875C27.4299 54.6875 27.7826 54.5412 28.0368 54.2868C28.2912 54.0326 28.4375 53.6799 28.4375 53.3203C28.4375 52.9607 28.2912 52.608 28.0368 52.3537Z" fill="black"/>
<path d="M35 57.4199H15.5176C14.7626 57.4199 14.1504 58.0321 14.1504 58.7871C14.1504 59.5421 14.7626 60.1543 15.5176 60.1543H35C35.755 60.1543 36.3672 59.5421 36.3672 58.7871C36.3672 58.0321 35.755 57.4199 35 57.4199Z" fill="black"/>
<path d="M39.7871 62.8755H15.5176C14.7626 62.8755 14.1504 63.4877 14.1504 64.2427C14.1504 64.9976 14.7626 65.6099 15.5176 65.6099H39.7871C40.542 65.6099 41.1543 64.9976 41.1543 64.2427C41.1543 63.4877 40.542 62.8755 39.7871 62.8755Z" fill="black"/>
<path d="M40.7531 57.821C40.4988 57.5667 40.1473 57.4204 39.7865 57.4204C39.4269 57.4204 39.0742 57.5666 38.8199 57.821C38.5657 58.0753 38.4193 58.4279 38.4193 58.7876C38.4193 59.1472 38.5656 59.4999 38.8199 59.7541C39.0756 60.0085 39.4269 60.1548 39.7865 60.1548C40.1474 60.1548 40.4988 60.0085 40.7531 59.7541C41.0088 59.4999 41.1537 59.1472 41.1537 58.7876C41.1537 58.4279 41.0088 58.0753 40.7531 57.821Z" fill="black"/>
<path d="M49.4808 24.6094H28.1754C25.1537 24.6094 22.6953 27.0677 22.6953 30.0895V40.7308C22.6953 43.7526 25.1537 46.2109 28.1754 46.2109H49.4808C52.5026 46.2109 54.9609 43.7526 54.9609 40.7308V30.0895C54.9609 27.0677 52.5026 24.6094 49.4808 24.6094ZM52.2266 40.7308C52.2266 42.2449 50.9949 43.4766 49.4808 43.4766H28.1754C26.6614 43.4766 25.4297 42.2449 25.4297 40.7308V30.0895C25.4297 28.5754 26.6614 27.3438 28.1754 27.3438H49.4808C50.9949 27.3438 52.2266 28.5754 52.2266 30.0895V40.7308Z" fill="black"/>
<path d="M42.6136 33.2152L37.8562 30.1658C37.0534 29.651 36.0352 29.6159 35.1987 30.0732C34.3621 30.5308 33.8424 31.4072 33.8424 32.3605V38.4592C33.8424 39.4129 34.3621 40.2894 35.1987 40.7469C35.5894 40.9606 36.0198 41.0667 36.4494 41.0667C36.9394 41.0667 37.4284 40.9284 37.8562 40.6543L42.6136 37.6049C43.3651 37.1233 43.8137 36.3027 43.8137 35.4101C43.8137 34.5174 43.3651 33.697 42.6136 33.2152ZM36.5768 38.2266V32.5938L40.9708 35.4102L36.5768 38.2266Z" fill="black"/>
<path d="M41.7572 15.5859C42.5122 15.5859 43.1244 14.9737 43.1244 14.2188C43.1244 13.4638 42.5122 12.8516 41.7572 12.8516H37.3242V10.1172H41.7572C42.5122 10.1172 43.1244 9.50496 43.1244 8.75C43.1244 7.99504 42.5122 7.38281 41.7572 7.38281H35.957C35.2021 7.38281 34.5898 7.99504 34.5898 8.75V19.6875C34.5898 20.4425 35.2021 21.0547 35.957 21.0547H41.7572C42.5122 21.0547 43.1244 20.4425 43.1244 19.6875C43.1244 18.9325 42.5122 18.3203 41.7572 18.3203H37.3242V15.5859H41.7572Z" fill="black"/>
<g filter="url(#filter0_d)">
<path d="M110 35C110 21.1929 121.193 10 135 10H325C338.807 10 350 21.1929 350 35C350 48.8071 338.807 60 325 60H230H135C121.193 60 110 48.8071 110 35Z" fill="#FCE3AF"/>
<path d="M193.464 46.4914C191.331 46.4914 189.486 46.0327 187.928 45.1154C186.371 44.1767 185.166 42.8434 184.312 41.1154C183.48 39.366 183.064 37.3074 183.064 34.9394C183.064 32.5927 183.48 30.5554 184.312 28.8274C185.166 27.078 186.371 25.7447 187.928 24.8274C189.486 23.8887 191.331 23.4193 193.464 23.4193C194.894 23.4193 196.238 23.654 197.496 24.1234C198.776 24.5714 199.886 25.222 200.824 26.0753C201.166 26.3954 201.336 26.7687 201.336 27.1954C201.336 27.494 201.251 27.7607 201.08 27.9953C200.91 28.2087 200.707 28.3154 200.472 28.3154C200.216 28.3154 199.907 28.198 199.544 27.9634C198.456 27.11 197.464 26.5127 196.568 26.1714C195.694 25.83 194.68 25.6594 193.528 25.6594C191.054 25.6594 189.144 26.47 187.8 28.0914C186.478 29.6914 185.816 31.974 185.816 34.9394C185.816 37.926 186.478 40.23 187.8 41.8514C189.144 43.4514 191.054 44.2514 193.528 44.2514C194.659 44.2514 195.672 44.0807 196.568 43.7394C197.464 43.398 198.456 42.8007 199.544 41.9474C199.907 41.7127 200.216 41.5954 200.472 41.5954C200.707 41.5954 200.91 41.702 201.08 41.9154C201.251 42.1287 201.336 42.3954 201.336 42.7154C201.336 43.142 201.166 43.5154 200.824 43.8354C199.886 44.6887 198.776 45.35 197.496 45.8194C196.238 46.2674 194.894 46.4914 193.464 46.4914ZM216.696 30.3314C217.102 30.3314 217.411 30.4487 217.624 30.6834C217.859 30.918 217.976 31.2274 217.976 31.6114V45.1474C217.976 45.51 217.859 45.8087 217.624 46.0434C217.411 46.278 217.102 46.3954 216.696 46.3954C216.312 46.3954 216.003 46.2887 215.768 46.0754C215.555 45.8407 215.448 45.542 215.448 45.1794V43.5794C214.958 44.518 214.264 45.2327 213.368 45.7234C212.494 46.214 211.502 46.4594 210.392 46.4594C208.536 46.4594 207.139 45.9474 206.2 44.9234C205.262 43.878 204.792 42.342 204.792 40.3154V31.6114C204.792 31.2274 204.91 30.918 205.144 30.6834C205.379 30.4487 205.699 30.3314 206.104 30.3314C206.51 30.3314 206.819 30.4487 207.032 30.6834C207.267 30.918 207.384 31.2274 207.384 31.6114V40.2514C207.384 41.638 207.662 42.662 208.216 43.3234C208.771 43.9634 209.646 44.2834 210.84 44.2834C212.206 44.2834 213.304 43.846 214.136 42.9714C214.968 42.0754 215.384 40.902 215.384 39.4514V31.6114C215.384 31.2274 215.502 30.918 215.736 30.6834C215.971 30.4487 216.291 30.3314 216.696 30.3314ZM230.506 30.3314C231.402 30.2674 231.85 30.63 231.85 31.4194C231.85 31.7607 231.754 32.038 231.562 32.2514C231.37 32.4434 231.039 32.5607 230.57 32.6034L229.61 32.6994C228.18 32.8274 227.114 33.3394 226.41 34.2354C225.727 35.11 225.386 36.1447 225.386 37.3394V45.1154C225.386 45.542 225.268 45.862 225.034 46.0754C224.799 46.2887 224.49 46.3954 224.106 46.3954C223.722 46.3954 223.402 46.2887 223.146 46.0754C222.911 45.8407 222.794 45.5207 222.794 45.1154V31.6114C222.794 31.206 222.922 30.8967 223.178 30.6834C223.434 30.4487 223.743 30.3314 224.106 30.3314C224.447 30.3314 224.735 30.4487 224.97 30.6834C225.204 30.8967 225.322 31.1954 225.322 31.5794V33.3714C225.77 32.4327 226.399 31.718 227.21 31.2274C228.042 30.7367 228.991 30.4487 230.058 30.3634L230.506 30.3314ZM239.167 46.4594C238.185 46.4594 237.247 46.342 236.351 46.1074C235.476 45.8727 234.697 45.542 234.015 45.1154C233.631 44.8594 233.353 44.6247 233.183 44.4114C233.033 44.1767 232.959 43.8994 232.959 43.5794C232.959 43.302 233.033 43.078 233.183 42.9074C233.353 42.7154 233.567 42.6194 233.823 42.6194C234.079 42.6194 234.452 42.7794 234.943 43.0994C235.583 43.4834 236.212 43.7927 236.831 44.0274C237.471 44.2407 238.26 44.3474 239.199 44.3474C240.351 44.3474 241.247 44.1447 241.887 43.7394C242.527 43.334 242.847 42.7474 242.847 41.9794C242.847 41.51 242.729 41.1367 242.495 40.8594C242.26 40.5607 241.855 40.3047 241.279 40.0914C240.703 39.8567 239.86 39.622 238.751 39.3874C236.873 38.982 235.529 38.438 234.719 37.7554C233.908 37.0727 233.503 36.1447 233.503 34.9714C233.503 34.054 233.759 33.2434 234.271 32.5394C234.783 31.8354 235.487 31.2807 236.383 30.8754C237.3 30.47 238.335 30.2674 239.487 30.2674C240.319 30.2674 241.119 30.3847 241.887 30.6194C242.676 30.8327 243.369 31.142 243.967 31.5474C244.692 32.0594 245.055 32.5927 245.055 33.1474C245.055 33.4247 244.969 33.6594 244.799 33.8514C244.628 34.0434 244.425 34.1394 244.191 34.1394C243.935 34.1394 243.551 33.958 243.039 33.5954C242.441 33.2114 241.876 32.9127 241.343 32.6994C240.809 32.486 240.148 32.3794 239.359 32.3794C238.356 32.3794 237.545 32.6034 236.927 33.0514C236.329 33.4994 236.031 34.0967 236.031 34.8434C236.031 35.3127 236.137 35.6967 236.351 35.9954C236.585 36.2727 236.959 36.5287 237.471 36.7634C238.004 36.9767 238.761 37.19 239.743 37.4034C241.193 37.7234 242.313 38.0754 243.103 38.4594C243.913 38.8434 244.489 39.3127 244.831 39.8674C245.172 40.422 245.343 41.126 245.343 41.9794C245.343 43.3234 244.777 44.4114 243.647 45.2434C242.516 46.054 241.023 46.4594 239.167 46.4594ZM255.758 46.4594C254.286 46.4594 252.984 46.1287 251.854 45.4674C250.744 44.806 249.88 43.8674 249.262 42.6514C248.664 41.414 248.366 39.9847 248.366 38.3634C248.366 36.742 248.664 35.3234 249.262 34.1074C249.88 32.87 250.744 31.9207 251.854 31.2594C252.984 30.598 254.286 30.2674 255.758 30.2674C257.23 30.2674 258.531 30.598 259.662 31.2594C260.792 31.9207 261.656 32.87 262.254 34.1074C262.872 35.3234 263.182 36.742 263.182 38.3634C263.182 39.9847 262.872 41.414 262.254 42.6514C261.656 43.8674 260.792 44.806 259.662 45.4674C258.531 46.1287 257.23 46.4594 255.758 46.4594ZM255.758 44.3154C257.294 44.3154 258.467 43.814 259.278 42.8114C260.11 41.7874 260.526 40.3047 260.526 38.3634C260.526 36.4647 260.11 35.0034 259.278 33.9794C258.446 32.934 257.272 32.4114 255.758 32.4114C254.243 32.4114 253.07 32.934 252.238 33.9794C251.406 35.0034 250.99 36.4647 250.99 38.3634C250.99 40.2834 251.395 41.7554 252.206 42.7794C253.038 43.8034 254.222 44.3154 255.758 44.3154ZM272.292 46.4594C271.31 46.4594 270.372 46.342 269.476 46.1074C268.601 45.8727 267.822 45.542 267.14 45.1154C266.756 44.8594 266.478 44.6247 266.308 44.4114C266.158 44.1767 266.084 43.8994 266.084 43.5794C266.084 43.302 266.158 43.078 266.308 42.9074C266.478 42.7154 266.692 42.6194 266.948 42.6194C267.204 42.6194 267.577 42.7794 268.068 43.0994C268.708 43.4834 269.337 43.7927 269.956 44.0274C270.596 44.2407 271.385 44.3474 272.324 44.3474C273.476 44.3474 274.372 44.1447 275.012 43.7394C275.652 43.334 275.972 42.7474 275.972 41.9794C275.972 41.51 275.854 41.1367 275.62 40.8594C275.385 40.5607 274.98 40.3047 274.404 40.0914C273.828 39.8567 272.985 39.622 271.876 39.3874C269.998 38.982 268.654 38.438 267.844 37.7554C267.033 37.0727 266.628 36.1447 266.628 34.9714C266.628 34.054 266.884 33.2434 267.396 32.5394C267.908 31.8354 268.612 31.2807 269.508 30.8754C270.425 30.47 271.46 30.2674 272.612 30.2674C273.444 30.2674 274.244 30.3847 275.012 30.6194C275.801 30.8327 276.494 31.142 277.092 31.5474C277.817 32.0594 278.18 32.5927 278.18 33.1474C278.18 33.4247 278.094 33.6594 277.924 33.8514C277.753 34.0434 277.55 34.1394 277.316 34.1394C277.06 34.1394 276.676 33.958 276.164 33.5954C275.566 33.2114 275.001 32.9127 274.468 32.6994C273.934 32.486 273.273 32.3794 272.484 32.3794C271.481 32.3794 270.67 32.6034 270.052 33.0514C269.454 33.4994 269.156 34.0967 269.156 34.8434C269.156 35.3127 269.262 35.6967 269.476 35.9954C269.71 36.2727 270.084 36.5287 270.596 36.7634C271.129 36.9767 271.886 37.19 272.868 37.4034C274.318 37.7234 275.438 38.0754 276.228 38.4594C277.038 38.8434 277.614 39.3127 277.956 39.8674C278.297 40.422 278.468 41.126 278.468 41.9794C278.468 43.3234 277.902 44.4114 276.772 45.2434C275.641 46.054 274.148 46.4594 272.292 46.4594Z" fill="black"/>
</g>
</g>
<defs>
<filter id="filter0_d" x="109" y="10" width="256" height="66" filterUnits="userSpaceOnUse" color-interpolation-filters="sRGB">
<feFlood flood-opacity="0" result="BackgroundImageFix"/>
<feColorMatrix in="SourceAlpha" type="matrix" values="0 0 0 0 0 0 0 0 0 0 0 0 0 0 0 0 0 0 127 0"/>
<feOffset dx="7" dy="8"/>
<feGaussianBlur stdDeviation="4"/>
<feColorMatrix type="matrix" values="0 0 0 0 0 0 0 0 0 0 0 0 0 0 0 0 0 0 0.25 0"/>
<feBlend mode="normal" in2="BackgroundImageFix" result="effect1_dropShadow"/>
<feBlend mode="normal" in="SourceGraphic" in2="effect1_dropShadow" result="shape"/>
</filter>
<clipPath id="clip0">
<rect width="350" height="70" fill="white"/>
</clipPath>
</defs>
</svg>
