<svg width="1466" height="150" viewBox="0 0 1466 150" fill="none" xmlns="http://www.w3.org/2000/svg">
<rect width="1466" height="150" fill="#B7D124"/>
<path d="M150.395 57.55C150.965 57.55 151.4 57.73 151.7 58.09C152.03 58.42 152.195 58.87 152.195 59.44V87.835C152.195 88.405 152.03 88.87 151.7 89.23C151.4 89.56 150.965 89.725 150.395 89.725C149.825 89.725 149.375 89.56 149.045 89.23C148.715 88.87 148.55 88.405 148.55 87.835V74.965H129.56V87.835C129.56 88.405 129.395 88.87 129.065 89.23C128.735 89.56 128.285 89.725 127.715 89.725C127.145 89.725 126.695 89.56 126.365 89.23C126.065 88.87 125.915 88.405 125.915 87.835V59.44C125.915 58.87 126.065 58.42 126.365 58.09C126.695 57.73 127.145 57.55 127.715 57.55C128.285 57.55 128.735 57.73 129.065 58.09C129.395 58.42 129.56 58.87 129.56 59.44V71.815H148.55V59.44C148.55 58.87 148.715 58.42 149.045 58.09C149.375 57.73 149.825 57.55 150.395 57.55ZM168.567 89.815C166.497 89.815 164.667 89.35 163.077 88.42C161.517 87.49 160.302 86.17 159.432 84.46C158.592 82.72 158.172 80.71 158.172 78.43C158.172 76.15 158.592 74.155 159.432 72.445C160.302 70.705 161.517 69.37 163.077 68.44C164.667 67.51 166.497 67.045 168.567 67.045C170.637 67.045 172.467 67.51 174.057 68.44C175.647 69.37 176.862 70.705 177.702 72.445C178.572 74.155 179.007 76.15 179.007 78.43C179.007 80.71 178.572 82.72 177.702 84.46C176.862 86.17 175.647 87.49 174.057 88.42C172.467 89.35 170.637 89.815 168.567 89.815ZM168.567 86.8C170.727 86.8 172.377 86.095 173.517 84.685C174.687 83.245 175.272 81.16 175.272 78.43C175.272 75.76 174.687 73.705 173.517 72.265C172.347 70.795 170.697 70.06 168.567 70.06C166.437 70.06 164.787 70.795 163.617 72.265C162.447 73.705 161.862 75.76 161.862 78.43C161.862 81.13 162.432 83.2 163.572 84.64C164.742 86.08 166.407 86.8 168.567 86.8ZM186.283 89.725C185.743 89.725 185.293 89.575 184.933 89.275C184.603 88.945 184.438 88.495 184.438 87.925V59.35C184.438 58.78 184.603 58.345 184.933 58.045C185.293 57.715 185.743 57.55 186.283 57.55C186.793 57.55 187.213 57.715 187.543 58.045C187.903 58.345 188.083 58.78 188.083 59.35V87.925C188.083 88.495 187.903 88.945 187.543 89.275C187.213 89.575 186.793 89.725 186.283 89.725ZM203.851 67.045C209.341 67.045 212.086 69.925 212.086 75.685V87.925C212.086 88.465 211.921 88.9 211.591 89.23C211.291 89.56 210.871 89.725 210.331 89.725C209.791 89.725 209.356 89.56 209.026 89.23C208.696 88.9 208.531 88.465 208.531 87.925V85.765C207.961 87.055 207.091 88.06 205.921 88.78C204.751 89.47 203.401 89.815 201.871 89.815C200.461 89.815 199.156 89.53 197.956 88.96C196.786 88.39 195.856 87.595 195.166 86.575C194.476 85.555 194.131 84.43 194.131 83.2C194.131 81.55 194.551 80.275 195.391 79.375C196.231 78.445 197.611 77.785 199.531 77.395C201.451 76.975 204.121 76.765 207.541 76.765H208.531V75.28C208.531 73.48 208.156 72.16 207.406 71.32C206.686 70.48 205.501 70.06 203.851 70.06C201.811 70.06 199.741 70.615 197.641 71.725C196.831 72.235 196.261 72.49 195.931 72.49C195.571 72.49 195.271 72.355 195.031 72.085C194.791 71.815 194.671 71.47 194.671 71.05C194.671 70.63 194.791 70.27 195.031 69.97C195.301 69.64 195.721 69.31 196.291 68.98C197.341 68.38 198.526 67.915 199.846 67.585C201.196 67.225 202.531 67.045 203.851 67.045ZM202.366 86.935C204.166 86.935 205.636 86.335 206.776 85.135C207.946 83.905 208.531 82.33 208.531 80.41V79.105H207.721C205.081 79.105 203.071 79.225 201.691 79.465C200.311 79.675 199.321 80.05 198.721 80.59C198.151 81.1 197.866 81.865 197.866 82.885C197.866 84.055 198.286 85.03 199.126 85.81C199.996 86.56 201.076 86.935 202.366 86.935ZM220.469 84.64C221.219 84.64 221.819 84.94 222.269 85.54C222.749 86.11 222.989 86.98 222.989 88.15C222.989 90.52 222.224 92.515 220.694 94.135C220.394 94.465 220.049 94.63 219.659 94.63C219.359 94.63 219.089 94.51 218.849 94.27C218.609 94.06 218.489 93.805 218.489 93.505C218.489 93.175 218.609 92.89 218.849 92.65C219.629 91.84 220.124 90.835 220.334 89.635C219.674 89.575 219.119 89.335 218.669 88.915C218.249 88.465 218.039 87.895 218.039 87.205C218.039 86.455 218.264 85.84 218.714 85.36C219.194 84.88 219.779 84.64 220.469 84.64ZM239.069 89.725C238.319 89.785 237.749 89.68 237.359 89.41C236.969 89.14 236.774 88.735 236.774 88.195C236.774 87.205 237.329 86.695 238.439 86.665L239.789 86.575C241.319 86.485 242.459 86.02 243.209 85.18C243.959 84.31 244.334 82.93 244.334 81.04V59.44C244.334 58.87 244.514 58.42 244.874 58.09C245.234 57.73 245.669 57.55 246.179 57.55C246.749 57.55 247.199 57.73 247.529 58.09C247.859 58.42 248.024 58.87 248.024 59.44V81.085C248.024 83.845 247.394 85.93 246.134 87.34C244.874 88.72 242.969 89.485 240.419 89.635L239.069 89.725ZM266.391 67.045C268.971 67.045 270.921 67.78 272.241 69.25C273.561 70.69 274.221 72.85 274.221 75.73V87.925C274.221 88.495 274.056 88.945 273.726 89.275C273.396 89.575 272.961 89.725 272.421 89.725C271.851 89.725 271.401 89.575 271.071 89.275C270.741 88.945 270.576 88.495 270.576 87.925V75.82C270.576 73.87 270.171 72.43 269.361 71.5C268.581 70.57 267.321 70.105 265.581 70.105C263.571 70.105 261.966 70.72 260.766 71.95C259.566 73.18 258.966 74.845 258.966 76.945V87.925C258.966 88.495 258.801 88.945 258.471 89.275C258.171 89.575 257.736 89.725 257.166 89.725C256.596 89.725 256.146 89.575 255.816 89.275C255.486 88.945 255.321 88.495 255.321 87.925V59.305C255.321 58.795 255.486 58.375 255.816 58.045C256.176 57.715 256.626 57.55 257.166 57.55C257.736 57.55 258.171 57.715 258.471 58.045C258.801 58.345 258.966 58.765 258.966 59.305V71.095C259.686 69.775 260.691 68.77 261.981 68.08C263.271 67.39 264.741 67.045 266.391 67.045ZM289.987 89.815C287.917 89.815 286.087 89.35 284.497 88.42C282.937 87.49 281.722 86.17 280.852 84.46C280.012 82.72 279.592 80.71 279.592 78.43C279.592 76.15 280.012 74.155 280.852 72.445C281.722 70.705 282.937 69.37 284.497 68.44C286.087 67.51 287.917 67.045 289.987 67.045C292.057 67.045 293.887 67.51 295.477 68.44C297.067 69.37 298.282 70.705 299.122 72.445C299.992 74.155 300.427 76.15 300.427 78.43C300.427 80.71 299.992 82.72 299.122 84.46C298.282 86.17 297.067 87.49 295.477 88.42C293.887 89.35 292.057 89.815 289.987 89.815ZM289.987 86.8C292.147 86.8 293.797 86.095 294.937 84.685C296.107 83.245 296.692 81.16 296.692 78.43C296.692 75.76 296.107 73.705 294.937 72.265C293.767 70.795 292.117 70.06 289.987 70.06C287.857 70.06 286.207 70.795 285.037 72.265C283.867 73.705 283.282 75.76 283.282 78.43C283.282 81.13 283.852 83.2 284.992 84.64C286.162 86.08 287.827 86.8 289.987 86.8ZM316.883 67.045C322.133 67.045 324.758 69.94 324.758 75.73V87.925C324.758 88.495 324.593 88.945 324.263 89.275C323.963 89.575 323.528 89.725 322.958 89.725C322.388 89.725 321.938 89.575 321.608 89.275C321.278 88.945 321.113 88.495 321.113 87.925V75.955C321.113 73.915 320.708 72.43 319.898 71.5C319.118 70.57 317.858 70.105 316.118 70.105C314.108 70.105 312.503 70.72 311.303 71.95C310.103 73.18 309.503 74.845 309.503 76.945V87.925C309.503 88.495 309.338 88.945 309.008 89.275C308.708 89.575 308.273 89.725 307.703 89.725C307.133 89.725 306.683 89.575 306.353 89.275C306.023 88.945 305.858 88.495 305.858 87.925V68.935C305.858 68.395 306.023 67.96 306.353 67.63C306.683 67.3 307.133 67.135 307.703 67.135C308.243 67.135 308.663 67.3 308.963 67.63C309.293 67.96 309.458 68.38 309.458 68.89V71.185C310.178 69.835 311.183 68.815 312.473 68.125C313.763 67.405 315.233 67.045 316.883 67.045ZM340.39 67.045C345.88 67.045 348.625 69.925 348.625 75.685V87.925C348.625 88.465 348.46 88.9 348.13 89.23C347.83 89.56 347.41 89.725 346.87 89.725C346.33 89.725 345.895 89.56 345.565 89.23C345.235 88.9 345.07 88.465 345.07 87.925V85.765C344.5 87.055 343.63 88.06 342.46 88.78C341.29 89.47 339.94 89.815 338.41 89.815C337 89.815 335.695 89.53 334.495 88.96C333.325 88.39 332.395 87.595 331.705 86.575C331.015 85.555 330.67 84.43 330.67 83.2C330.67 81.55 331.09 80.275 331.93 79.375C332.77 78.445 334.15 77.785 336.07 77.395C337.99 76.975 340.66 76.765 344.08 76.765H345.07V75.28C345.07 73.48 344.695 72.16 343.945 71.32C343.225 70.48 342.04 70.06 340.39 70.06C338.35 70.06 336.28 70.615 334.18 71.725C333.37 72.235 332.8 72.49 332.47 72.49C332.11 72.49 331.81 72.355 331.57 72.085C331.33 71.815 331.21 71.47 331.21 71.05C331.21 70.63 331.33 70.27 331.57 69.97C331.84 69.64 332.26 69.31 332.83 68.98C333.88 68.38 335.065 67.915 336.385 67.585C337.735 67.225 339.07 67.045 340.39 67.045ZM338.905 86.935C340.705 86.935 342.175 86.335 343.315 85.135C344.485 83.905 345.07 82.33 345.07 80.41V79.105H344.26C341.62 79.105 339.61 79.225 338.23 79.465C336.85 79.675 335.86 80.05 335.26 80.59C334.69 81.1 334.405 81.865 334.405 82.885C334.405 84.055 334.825 85.03 335.665 85.81C336.535 86.56 337.615 86.935 338.905 86.935ZM365.422 86.845C366.472 86.935 366.997 87.415 366.997 88.285C366.997 88.795 366.802 89.185 366.412 89.455C366.052 89.695 365.497 89.785 364.747 89.725L363.532 89.635C361.132 89.455 359.362 88.735 358.222 87.475C357.082 86.215 356.512 84.31 356.512 81.76V70.465H353.497C352.987 70.465 352.582 70.345 352.282 70.105C352.012 69.835 351.877 69.49 351.877 69.07C351.877 68.62 352.012 68.26 352.282 67.99C352.582 67.72 352.987 67.585 353.497 67.585H356.512V62.5C356.512 61.93 356.677 61.495 357.007 61.195C357.337 60.865 357.787 60.7 358.357 60.7C358.897 60.7 359.332 60.865 359.662 61.195C359.992 61.495 360.157 61.93 360.157 62.5V67.585H365.152C365.632 67.585 366.007 67.72 366.277 67.99C366.577 68.26 366.727 68.62 366.727 69.07C366.727 69.49 366.577 69.835 366.277 70.105C366.007 70.345 365.632 70.465 365.152 70.465H360.157V81.94C360.157 83.59 360.487 84.79 361.147 85.54C361.837 86.26 362.857 86.665 364.207 86.755L365.422 86.845ZM381.66 67.045C384.24 67.045 386.19 67.78 387.51 69.25C388.83 70.69 389.49 72.85 389.49 75.73V87.925C389.49 88.495 389.325 88.945 388.995 89.275C388.665 89.575 388.23 89.725 387.69 89.725C387.12 89.725 386.67 89.575 386.34 89.275C386.01 88.945 385.845 88.495 385.845 87.925V75.82C385.845 73.87 385.44 72.43 384.63 71.5C383.85 70.57 382.59 70.105 380.85 70.105C378.84 70.105 377.235 70.72 376.035 71.95C374.835 73.18 374.235 74.845 374.235 76.945V87.925C374.235 88.495 374.07 88.945 373.74 89.275C373.44 89.575 373.005 89.725 372.435 89.725C371.865 89.725 371.415 89.575 371.085 89.275C370.755 88.945 370.59 88.495 370.59 87.925V59.305C370.59 58.795 370.755 58.375 371.085 58.045C371.445 57.715 371.895 57.55 372.435 57.55C373.005 57.55 373.44 57.715 373.74 58.045C374.07 58.345 374.235 58.765 374.235 59.305V71.095C374.955 69.775 375.96 68.77 377.25 68.08C378.54 67.39 380.01 67.045 381.66 67.045ZM405.121 67.045C410.611 67.045 413.356 69.925 413.356 75.685V87.925C413.356 88.465 413.191 88.9 412.861 89.23C412.561 89.56 412.141 89.725 411.601 89.725C411.061 89.725 410.626 89.56 410.296 89.23C409.966 88.9 409.801 88.465 409.801 87.925V85.765C409.231 87.055 408.361 88.06 407.191 88.78C406.021 89.47 404.671 89.815 403.141 89.815C401.731 89.815 400.426 89.53 399.226 88.96C398.056 88.39 397.126 87.595 396.436 86.575C395.746 85.555 395.401 84.43 395.401 83.2C395.401 81.55 395.821 80.275 396.661 79.375C397.501 78.445 398.881 77.785 400.801 77.395C402.721 76.975 405.391 76.765 408.811 76.765H409.801V75.28C409.801 73.48 409.426 72.16 408.676 71.32C407.956 70.48 406.771 70.06 405.121 70.06C403.081 70.06 401.011 70.615 398.911 71.725C398.101 72.235 397.531 72.49 397.201 72.49C396.841 72.49 396.541 72.355 396.301 72.085C396.061 71.815 395.941 71.47 395.941 71.05C395.941 70.63 396.061 70.27 396.301 69.97C396.571 69.64 396.991 69.31 397.561 68.98C398.611 68.38 399.796 67.915 401.116 67.585C402.466 67.225 403.801 67.045 405.121 67.045ZM403.636 86.935C405.436 86.935 406.906 86.335 408.046 85.135C409.216 83.905 409.801 82.33 409.801 80.41V79.105H408.991C406.351 79.105 404.341 79.225 402.961 79.465C401.581 79.675 400.591 80.05 399.991 80.59C399.421 81.1 399.136 81.865 399.136 82.885C399.136 84.055 399.556 85.03 400.396 85.81C401.266 86.56 402.346 86.935 403.636 86.935ZM431.053 67.045C436.303 67.045 438.928 69.94 438.928 75.73V87.925C438.928 88.495 438.763 88.945 438.433 89.275C438.133 89.575 437.698 89.725 437.128 89.725C436.558 89.725 436.108 89.575 435.778 89.275C435.448 88.945 435.283 88.495 435.283 87.925V75.955C435.283 73.915 434.878 72.43 434.068 71.5C433.288 70.57 432.028 70.105 430.288 70.105C428.278 70.105 426.673 70.72 425.473 71.95C424.273 73.18 423.673 74.845 423.673 76.945V87.925C423.673 88.495 423.508 88.945 423.178 89.275C422.878 89.575 422.443 89.725 421.873 89.725C421.303 89.725 420.853 89.575 420.523 89.275C420.193 88.945 420.028 88.495 420.028 87.925V68.935C420.028 68.395 420.193 67.96 420.523 67.63C420.853 67.3 421.303 67.135 421.873 67.135C422.413 67.135 422.833 67.3 423.133 67.63C423.463 67.96 423.628 68.38 423.628 68.89V71.185C424.348 69.835 425.353 68.815 426.643 68.125C427.933 67.405 429.403 67.045 431.053 67.045ZM459.546 89.5C459.036 89.5 458.601 89.35 458.241 89.05C457.911 88.72 457.746 88.3 457.746 87.79V59.44C457.746 58.87 457.911 58.42 458.241 58.09C458.571 57.73 459.021 57.55 459.591 57.55C460.161 57.55 460.611 57.73 460.941 58.09C461.271 58.42 461.436 58.87 461.436 59.44V86.35H475.971C476.511 86.35 476.931 86.485 477.231 86.755C477.531 87.025 477.681 87.415 477.681 87.925C477.681 88.435 477.531 88.825 477.231 89.095C476.931 89.365 476.511 89.5 475.971 89.5H459.546ZM490.554 89.815C488.484 89.815 486.654 89.35 485.064 88.42C483.504 87.49 482.289 86.17 481.419 84.46C480.579 82.72 480.159 80.71 480.159 78.43C480.159 76.15 480.579 74.155 481.419 72.445C482.289 70.705 483.504 69.37 485.064 68.44C486.654 67.51 488.484 67.045 490.554 67.045C492.624 67.045 494.454 67.51 496.044 68.44C497.634 69.37 498.849 70.705 499.689 72.445C500.559 74.155 500.994 76.15 500.994 78.43C500.994 80.71 500.559 82.72 499.689 84.46C498.849 86.17 497.634 87.49 496.044 88.42C494.454 89.35 492.624 89.815 490.554 89.815ZM490.554 86.8C492.714 86.8 494.364 86.095 495.504 84.685C496.674 83.245 497.259 81.16 497.259 78.43C497.259 75.76 496.674 73.705 495.504 72.265C494.334 70.795 492.684 70.06 490.554 70.06C488.424 70.06 486.774 70.795 485.604 72.265C484.434 73.705 483.849 75.76 483.849 78.43C483.849 81.13 484.419 83.2 485.559 84.64C486.729 86.08 488.394 86.8 490.554 86.8ZM491.364 64.66C491.124 64.84 490.884 64.93 490.644 64.93C490.344 64.93 490.089 64.84 489.879 64.66C489.669 64.45 489.564 64.21 489.564 63.94C489.564 63.7 489.654 63.475 489.834 63.265L495.054 56.425C495.594 55.735 496.209 55.39 496.899 55.39C497.379 55.39 497.784 55.555 498.114 55.885C498.444 56.185 498.609 56.575 498.609 57.055C498.609 57.685 498.309 58.255 497.709 58.765L491.364 64.66ZM517.45 67.045C519.37 67.045 521.065 67.525 522.535 68.485C524.005 69.445 525.145 70.795 525.955 72.535C526.765 74.245 527.17 76.24 527.17 78.52C527.17 80.8 526.765 82.795 525.955 84.505C525.145 86.185 524.005 87.49 522.535 88.42C521.095 89.35 519.4 89.815 517.45 89.815C515.74 89.815 514.24 89.44 512.95 88.69C511.69 87.94 510.73 86.875 510.07 85.495V96.07C510.07 96.61 509.905 97.03 509.575 97.33C509.275 97.66 508.84 97.825 508.27 97.825C507.7 97.825 507.25 97.66 506.92 97.33C506.59 97 506.425 96.58 506.425 96.07V68.935C506.425 68.395 506.59 67.96 506.92 67.63C507.25 67.3 507.7 67.135 508.27 67.135C508.84 67.135 509.275 67.3 509.575 67.63C509.905 67.96 510.07 68.395 510.07 68.935V71.365C510.73 69.985 511.69 68.92 512.95 68.17C514.24 67.42 515.74 67.045 517.45 67.045ZM516.73 86.8C518.86 86.8 520.51 86.08 521.68 84.64C522.85 83.2 523.435 81.16 523.435 78.52C523.435 75.88 522.85 73.825 521.68 72.355C520.51 70.855 518.86 70.105 516.73 70.105C514.6 70.105 512.95 70.825 511.78 72.265C510.64 73.705 510.07 75.76 510.07 78.43C510.07 81.1 510.64 83.17 511.78 84.64C512.95 86.08 514.6 86.8 516.73 86.8ZM549.581 84.415C549.911 84.415 550.196 84.55 550.436 84.82C550.676 85.09 550.796 85.435 550.796 85.855C550.796 86.605 550.271 87.295 549.221 87.925C548.141 88.555 547.001 89.035 545.801 89.365C544.601 89.665 543.431 89.815 542.291 89.815C538.901 89.815 536.216 88.81 534.236 86.8C532.286 84.79 531.311 82.015 531.311 78.475C531.311 76.225 531.746 74.245 532.616 72.535C533.486 70.795 534.701 69.445 536.261 68.485C537.851 67.525 539.651 67.045 541.661 67.045C544.511 67.045 546.776 67.975 548.456 69.835C550.136 71.695 550.976 74.215 550.976 77.395C550.976 77.995 550.856 78.43 550.616 78.7C550.376 78.97 549.986 79.105 549.446 79.105H534.956C535.226 84.265 537.671 86.845 542.291 86.845C543.461 86.845 544.466 86.695 545.306 86.395C546.146 86.065 547.046 85.63 548.006 85.09C548.786 84.64 549.311 84.415 549.581 84.415ZM541.706 69.88C539.786 69.88 538.241 70.48 537.071 71.68C535.931 72.88 535.256 74.575 535.046 76.765H547.781C547.721 74.545 547.166 72.85 546.116 71.68C545.066 70.48 543.596 69.88 541.706 69.88ZM572.281 86.62C572.791 86.62 573.181 86.755 573.451 87.025C573.721 87.265 573.856 87.61 573.856 88.06C573.856 88.51 573.721 88.87 573.451 89.14C573.181 89.38 572.791 89.5 572.281 89.5H556.531C556.021 89.5 555.601 89.35 555.271 89.05C554.941 88.72 554.776 88.33 554.776 87.88C554.776 87.4 554.956 86.935 555.316 86.485L568.636 70.465H556.306C555.796 70.465 555.391 70.345 555.091 70.105C554.821 69.835 554.686 69.49 554.686 69.07C554.686 68.62 554.821 68.26 555.091 67.99C555.391 67.72 555.796 67.585 556.306 67.585H571.561C572.101 67.585 572.536 67.75 572.866 68.08C573.196 68.38 573.361 68.755 573.361 69.205C573.361 69.685 573.181 70.15 572.821 70.6L559.456 86.62H572.281Z" fill="black"/>
<path d="M666.575 71.72C665.855 71.72 665.255 71.48 664.775 71C664.325 70.52 664.1 69.92 664.1 69.2C664.1 68.45 664.325 67.835 664.775 67.355C665.255 66.875 665.855 66.635 666.575 66.635C667.295 66.635 667.88 66.875 668.33 67.355C668.81 67.835 669.05 68.45 669.05 69.2C669.05 69.92 668.81 70.52 668.33 71C667.88 71.48 667.295 71.72 666.575 71.72ZM665.81 97.415C663.2 97.415 661.085 96.785 659.465 95.525C657.875 94.265 657.08 92.6 657.08 90.53C657.08 89.45 657.26 88.49 657.62 87.65C657.98 86.78 658.415 86.045 658.925 85.445C659.465 84.815 660.2 84.05 661.13 83.15C662.42 81.89 663.425 80.75 664.145 79.73C664.865 78.71 665.3 77.465 665.45 75.995C665.48 75.695 665.6 75.455 665.81 75.275C666.02 75.065 666.275 74.96 666.575 74.96C666.935 74.96 667.22 75.08 667.43 75.32C667.64 75.56 667.745 75.89 667.745 76.31C667.745 77.6 667.565 78.74 667.205 79.73C666.845 80.72 666.395 81.56 665.855 82.25C665.345 82.91 664.67 83.705 663.83 84.635C662.81 85.715 662.045 86.66 661.535 87.47C661.055 88.25 660.815 89.195 660.815 90.305C660.815 91.535 661.28 92.51 662.21 93.23C663.14 93.95 664.4 94.31 665.99 94.31C667.34 94.31 668.585 94.04 669.725 93.5C670.865 92.99 672.155 92.195 673.595 91.115C674.075 90.785 674.495 90.62 674.855 90.62C675.215 90.62 675.5 90.77 675.71 91.07C675.95 91.37 676.07 91.745 676.07 92.195C676.07 92.765 675.83 93.275 675.35 93.725C674.15 94.865 672.695 95.765 670.985 96.425C669.275 97.085 667.55 97.415 665.81 97.415ZM703.581 57.05C704.121 57.05 704.541 57.23 704.841 57.59C705.141 57.92 705.291 58.37 705.291 58.94V87.335C705.291 87.905 705.126 88.37 704.796 88.73C704.496 89.06 704.061 89.225 703.491 89.225C702.921 89.225 702.426 88.97 702.006 88.46L683.331 63.485V87.335C683.331 87.905 683.166 88.37 682.836 88.73C682.536 89.06 682.116 89.225 681.576 89.225C681.036 89.225 680.616 89.06 680.316 88.73C680.016 88.37 679.866 87.905 679.866 87.335V58.94C679.866 58.37 680.016 57.92 680.316 57.59C680.646 57.23 681.096 57.05 681.666 57.05C682.266 57.05 682.776 57.305 683.196 57.815L701.826 82.79V58.94C701.826 58.37 701.976 57.92 702.276 57.59C702.606 57.23 703.041 57.05 703.581 57.05ZM729.558 83.915C729.888 83.915 730.173 84.05 730.413 84.32C730.653 84.59 730.773 84.935 730.773 85.355C730.773 86.105 730.248 86.795 729.198 87.425C728.118 88.055 726.978 88.535 725.778 88.865C724.578 89.165 723.408 89.315 722.268 89.315C718.878 89.315 716.193 88.31 714.213 86.3C712.263 84.29 711.288 81.515 711.288 77.975C711.288 75.725 711.723 73.745 712.593 72.035C713.463 70.295 714.678 68.945 716.238 67.985C717.828 67.025 719.628 66.545 721.638 66.545C724.488 66.545 726.753 67.475 728.433 69.335C730.113 71.195 730.953 73.715 730.953 76.895C730.953 77.495 730.833 77.93 730.593 78.2C730.353 78.47 729.963 78.605 729.423 78.605H714.933C715.203 83.765 717.648 86.345 722.268 86.345C723.438 86.345 724.443 86.195 725.283 85.895C726.123 85.565 727.023 85.13 727.983 84.59C728.763 84.14 729.288 83.915 729.558 83.915ZM721.683 69.38C719.763 69.38 718.218 69.98 717.048 71.18C715.908 72.38 715.233 74.075 715.023 76.265H727.758C727.698 74.045 727.143 72.35 726.093 71.18C725.043 69.98 723.573 69.38 721.683 69.38ZM745.368 89.315C743.328 89.315 741.513 88.85 739.923 87.92C738.363 86.99 737.148 85.67 736.278 83.96C735.438 82.25 735.018 80.27 735.018 78.02C735.018 75.77 735.453 73.775 736.323 72.035C737.223 70.295 738.468 68.945 740.058 67.985C741.648 67.025 743.478 66.545 745.548 66.545C746.688 66.545 747.813 66.71 748.923 67.04C750.063 67.34 751.053 67.79 751.893 68.39C752.433 68.75 752.808 69.11 753.018 69.47C753.258 69.8 753.378 70.175 753.378 70.595C753.378 71.015 753.258 71.36 753.018 71.63C752.808 71.9 752.523 72.035 752.163 72.035C751.953 72.035 751.728 71.975 751.488 71.855C751.248 71.735 751.038 71.615 750.858 71.495C750.708 71.375 750.603 71.3 750.543 71.27C749.763 70.76 749.013 70.355 748.293 70.055C747.603 69.755 746.748 69.605 745.728 69.605C743.538 69.605 741.828 70.355 740.598 71.855C739.398 73.325 738.798 75.38 738.798 78.02C738.798 80.66 739.398 82.7 740.598 84.14C741.828 85.58 743.538 86.3 745.728 86.3C746.748 86.3 747.618 86.15 748.338 85.85C749.088 85.55 749.838 85.145 750.588 84.635C750.918 84.425 751.233 84.245 751.533 84.095C751.833 83.945 752.088 83.87 752.298 83.87C752.628 83.87 752.898 84.005 753.108 84.275C753.348 84.545 753.468 84.89 753.468 85.31C753.468 85.7 753.363 86.06 753.153 86.39C752.943 86.69 752.553 87.035 751.983 87.425C751.143 87.995 750.123 88.46 748.923 88.82C747.753 89.15 746.568 89.315 745.368 89.315ZM774.821 83.915C775.151 83.915 775.436 84.05 775.676 84.32C775.916 84.59 776.036 84.935 776.036 85.355C776.036 86.105 775.511 86.795 774.461 87.425C773.381 88.055 772.241 88.535 771.041 88.865C769.841 89.165 768.671 89.315 767.531 89.315C764.141 89.315 761.456 88.31 759.476 86.3C757.526 84.29 756.551 81.515 756.551 77.975C756.551 75.725 756.986 73.745 757.856 72.035C758.726 70.295 759.941 68.945 761.501 67.985C763.091 67.025 764.891 66.545 766.901 66.545C769.751 66.545 772.016 67.475 773.696 69.335C775.376 71.195 776.216 73.715 776.216 76.895C776.216 77.495 776.096 77.93 775.856 78.2C775.616 78.47 775.226 78.605 774.686 78.605H760.196C760.466 83.765 762.911 86.345 767.531 86.345C768.701 86.345 769.706 86.195 770.546 85.895C771.386 85.565 772.286 85.13 773.246 84.59C774.026 84.14 774.551 83.915 774.821 83.915ZM766.946 69.38C765.026 69.38 763.481 69.98 762.311 71.18C761.171 72.38 760.496 74.075 760.286 76.265H773.021C772.961 74.045 772.406 72.35 771.356 71.18C770.306 69.98 768.836 69.38 766.946 69.38ZM788.967 89.315C787.587 89.315 786.267 89.15 785.007 88.82C783.777 88.49 782.682 88.025 781.722 87.425C781.182 87.065 780.792 86.735 780.552 86.435C780.342 86.105 780.237 85.715 780.237 85.265C780.237 84.875 780.342 84.56 780.552 84.32C780.792 84.05 781.092 83.915 781.452 83.915C781.812 83.915 782.337 84.14 783.027 84.59C783.927 85.13 784.812 85.565 785.682 85.895C786.582 86.195 787.692 86.345 789.012 86.345C790.632 86.345 791.892 86.06 792.792 85.49C793.692 84.92 794.142 84.095 794.142 83.015C794.142 82.355 793.977 81.83 793.647 81.44C793.317 81.02 792.747 80.66 791.937 80.36C791.127 80.03 789.942 79.7 788.382 79.37C785.742 78.8 783.852 78.035 782.712 77.075C781.572 76.115 781.002 74.81 781.002 73.16C781.002 71.87 781.362 70.73 782.082 69.74C782.802 68.75 783.792 67.97 785.052 67.4C786.342 66.83 787.797 66.545 789.417 66.545C790.587 66.545 791.712 66.71 792.792 67.04C793.902 67.34 794.877 67.775 795.717 68.345C796.737 69.065 797.247 69.815 797.247 70.595C797.247 70.985 797.127 71.315 796.887 71.585C796.647 71.855 796.362 71.99 796.032 71.99C795.672 71.99 795.132 71.735 794.412 71.225C793.572 70.685 792.777 70.265 792.027 69.965C791.277 69.665 790.347 69.515 789.237 69.515C787.827 69.515 786.687 69.83 785.817 70.46C784.977 71.09 784.557 71.93 784.557 72.98C784.557 73.64 784.707 74.18 785.007 74.6C785.337 74.99 785.862 75.35 786.582 75.68C787.332 75.98 788.397 76.28 789.777 76.58C791.817 77.03 793.392 77.525 794.502 78.065C795.642 78.605 796.452 79.265 796.932 80.045C797.412 80.825 797.652 81.815 797.652 83.015C797.652 84.905 796.857 86.435 795.267 87.605C793.677 88.745 791.577 89.315 788.967 89.315ZM805.053 89.225C804.513 89.225 804.063 89.075 803.703 88.775C803.373 88.445 803.208 87.995 803.208 87.425V68.435C803.208 67.865 803.373 67.43 803.703 67.13C804.063 66.8 804.513 66.635 805.053 66.635C805.593 66.635 806.028 66.8 806.358 67.13C806.688 67.43 806.853 67.865 806.853 68.435V87.425C806.853 88.025 806.688 88.475 806.358 88.775C806.028 89.075 805.593 89.225 805.053 89.225ZM805.053 61.91C804.333 61.91 803.748 61.7 803.298 61.28C802.848 60.86 802.623 60.305 802.623 59.615C802.623 58.955 802.848 58.415 803.298 57.995C803.748 57.575 804.333 57.365 805.053 57.365C805.773 57.365 806.358 57.575 806.808 57.995C807.258 58.415 807.483 58.955 807.483 59.615C807.483 60.305 807.258 60.86 806.808 61.28C806.358 61.7 805.773 61.91 805.053 61.91ZM823.792 86.345C824.842 86.435 825.367 86.915 825.367 87.785C825.367 88.295 825.172 88.685 824.782 88.955C824.422 89.195 823.867 89.285 823.117 89.225L821.902 89.135C819.502 88.955 817.732 88.235 816.592 86.975C815.452 85.715 814.882 83.81 814.882 81.26V69.965H811.867C811.357 69.965 810.952 69.845 810.652 69.605C810.382 69.335 810.247 68.99 810.247 68.57C810.247 68.12 810.382 67.76 810.652 67.49C810.952 67.22 811.357 67.085 811.867 67.085H814.882V62C814.882 61.43 815.047 60.995 815.377 60.695C815.707 60.365 816.157 60.2 816.727 60.2C817.267 60.2 817.702 60.365 818.032 60.695C818.362 60.995 818.527 61.43 818.527 62V67.085H823.522C824.002 67.085 824.377 67.22 824.647 67.49C824.947 67.76 825.097 68.12 825.097 68.57C825.097 68.99 824.947 69.335 824.647 69.605C824.377 69.845 824.002 69.965 823.522 69.965H818.527V81.44C818.527 83.09 818.857 84.29 819.517 85.04C820.207 85.76 821.227 86.165 822.577 86.255L823.792 86.345ZM837.915 66.545C843.405 66.545 846.15 69.425 846.15 75.185V87.425C846.15 87.965 845.985 88.4 845.655 88.73C845.355 89.06 844.935 89.225 844.395 89.225C843.855 89.225 843.42 89.06 843.09 88.73C842.76 88.4 842.595 87.965 842.595 87.425V85.265C842.025 86.555 841.155 87.56 839.985 88.28C838.815 88.97 837.465 89.315 835.935 89.315C834.525 89.315 833.22 89.03 832.02 88.46C830.85 87.89 829.92 87.095 829.23 86.075C828.54 85.055 828.195 83.93 828.195 82.7C828.195 81.05 828.615 79.775 829.455 78.875C830.295 77.945 831.675 77.285 833.595 76.895C835.515 76.475 838.185 76.265 841.605 76.265H842.595V74.78C842.595 72.98 842.22 71.66 841.47 70.82C840.75 69.98 839.565 69.56 837.915 69.56C835.875 69.56 833.805 70.115 831.705 71.225C830.895 71.735 830.325 71.99 829.995 71.99C829.635 71.99 829.335 71.855 829.095 71.585C828.855 71.315 828.735 70.97 828.735 70.55C828.735 70.13 828.855 69.77 829.095 69.47C829.365 69.14 829.785 68.81 830.355 68.48C831.405 67.88 832.59 67.415 833.91 67.085C835.26 66.725 836.595 66.545 837.915 66.545ZM836.43 86.435C838.23 86.435 839.7 85.835 840.84 84.635C842.01 83.405 842.595 81.83 842.595 79.91V78.605H841.785C839.145 78.605 837.135 78.725 835.755 78.965C834.375 79.175 833.385 79.55 832.785 80.09C832.215 80.6 831.93 81.365 831.93 82.385C831.93 83.555 832.35 84.53 833.19 85.31C834.06 86.06 835.14 86.435 836.43 86.435ZM860.202 89.315C858.822 89.315 857.502 89.15 856.242 88.82C855.012 88.49 853.917 88.025 852.957 87.425C852.417 87.065 852.027 86.735 851.787 86.435C851.577 86.105 851.472 85.715 851.472 85.265C851.472 84.875 851.577 84.56 851.787 84.32C852.027 84.05 852.327 83.915 852.687 83.915C853.047 83.915 853.572 84.14 854.262 84.59C855.162 85.13 856.047 85.565 856.917 85.895C857.817 86.195 858.927 86.345 860.247 86.345C861.867 86.345 863.127 86.06 864.027 85.49C864.927 84.92 865.377 84.095 865.377 83.015C865.377 82.355 865.212 81.83 864.882 81.44C864.552 81.02 863.982 80.66 863.172 80.36C862.362 80.03 861.177 79.7 859.617 79.37C856.977 78.8 855.087 78.035 853.947 77.075C852.807 76.115 852.237 74.81 852.237 73.16C852.237 71.87 852.597 70.73 853.317 69.74C854.037 68.75 855.027 67.97 856.287 67.4C857.577 66.83 859.032 66.545 860.652 66.545C861.822 66.545 862.947 66.71 864.027 67.04C865.137 67.34 866.112 67.775 866.952 68.345C867.972 69.065 868.482 69.815 868.482 70.595C868.482 70.985 868.362 71.315 868.122 71.585C867.882 71.855 867.597 71.99 867.267 71.99C866.907 71.99 866.367 71.735 865.647 71.225C864.807 70.685 864.012 70.265 863.262 69.965C862.512 69.665 861.582 69.515 860.472 69.515C859.062 69.515 857.922 69.83 857.052 70.46C856.212 71.09 855.792 71.93 855.792 72.98C855.792 73.64 855.942 74.18 856.242 74.6C856.572 74.99 857.097 75.35 857.817 75.68C858.567 75.98 859.632 76.28 861.012 76.58C863.052 77.03 864.627 77.525 865.737 78.065C866.877 78.605 867.687 79.265 868.167 80.045C868.647 80.825 868.887 81.815 868.887 83.015C868.887 84.905 868.092 86.435 866.502 87.605C864.912 88.745 862.812 89.315 860.202 89.315ZM895 66.545C900.49 66.545 903.235 69.425 903.235 75.185V87.425C903.235 87.965 903.07 88.4 902.74 88.73C902.44 89.06 902.02 89.225 901.48 89.225C900.94 89.225 900.505 89.06 900.175 88.73C899.845 88.4 899.68 87.965 899.68 87.425V85.265C899.11 86.555 898.24 87.56 897.07 88.28C895.9 88.97 894.55 89.315 893.02 89.315C891.61 89.315 890.305 89.03 889.105 88.46C887.935 87.89 887.005 87.095 886.315 86.075C885.625 85.055 885.28 83.93 885.28 82.7C885.28 81.05 885.7 79.775 886.54 78.875C887.38 77.945 888.76 77.285 890.68 76.895C892.6 76.475 895.27 76.265 898.69 76.265H899.68V74.78C899.68 72.98 899.305 71.66 898.555 70.82C897.835 69.98 896.65 69.56 895 69.56C892.96 69.56 890.89 70.115 888.79 71.225C887.98 71.735 887.41 71.99 887.08 71.99C886.72 71.99 886.42 71.855 886.18 71.585C885.94 71.315 885.82 70.97 885.82 70.55C885.82 70.13 885.94 69.77 886.18 69.47C886.45 69.14 886.87 68.81 887.44 68.48C888.49 67.88 889.675 67.415 890.995 67.085C892.345 66.725 893.68 66.545 895 66.545ZM893.515 86.435C895.315 86.435 896.785 85.835 897.925 84.635C899.095 83.405 899.68 81.83 899.68 79.91V78.605H898.87C896.23 78.605 894.22 78.725 892.84 78.965C891.46 79.175 890.47 79.55 889.87 80.09C889.3 80.6 889.015 81.365 889.015 82.385C889.015 83.555 889.435 84.53 890.275 85.31C891.145 86.06 892.225 86.435 893.515 86.435ZM925.702 67.76C926.032 67.04 926.557 66.68 927.277 66.68C927.727 66.68 928.132 66.83 928.492 67.13C928.852 67.43 929.032 67.805 929.032 68.255C929.032 68.525 928.972 68.765 928.852 68.975L916.207 96.245C916.057 96.575 915.832 96.83 915.532 97.01C915.262 97.19 914.977 97.28 914.677 97.28C914.227 97.28 913.822 97.13 913.462 96.83C913.132 96.56 912.967 96.2 912.967 95.75C912.967 95.51 913.027 95.27 913.147 95.03L916.297 88.235L907.387 68.975C907.267 68.765 907.207 68.54 907.207 68.3C907.207 67.85 907.402 67.46 907.792 67.13C908.212 66.8 908.662 66.635 909.142 66.635C909.442 66.635 909.727 66.725 909.997 66.905C910.297 67.085 910.522 67.34 910.672 67.67L918.187 84.545L925.702 67.76ZM949.672 66.635C950.242 66.635 950.677 66.8 950.977 67.13C951.307 67.46 951.472 67.895 951.472 68.435V87.47C951.472 87.98 951.307 88.4 950.977 88.73C950.677 89.06 950.242 89.225 949.672 89.225C949.132 89.225 948.697 89.075 948.367 88.775C948.067 88.445 947.917 88.025 947.917 87.515V85.265C947.227 86.585 946.252 87.59 944.992 88.28C943.762 88.97 942.367 89.315 940.807 89.315C938.197 89.315 936.232 88.595 934.912 87.155C933.592 85.685 932.932 83.525 932.932 80.675V68.435C932.932 67.895 933.097 67.46 933.427 67.13C933.757 66.8 934.207 66.635 934.777 66.635C935.347 66.635 935.782 66.8 936.082 67.13C936.412 67.46 936.577 67.895 936.577 68.435V80.585C936.577 82.535 936.967 83.975 937.747 84.905C938.527 85.805 939.757 86.255 941.437 86.255C943.357 86.255 944.902 85.64 946.072 84.41C947.242 83.15 947.827 81.5 947.827 79.46V68.435C947.827 67.895 947.992 67.46 948.322 67.13C948.652 66.8 949.102 66.635 949.672 66.635ZM975.842 57.05C976.412 57.05 976.862 57.215 977.192 57.545C977.522 57.875 977.687 58.295 977.687 58.805V87.425C977.687 87.965 977.522 88.4 977.192 88.73C976.862 89.06 976.412 89.225 975.842 89.225C975.272 89.225 974.822 89.06 974.492 88.73C974.192 88.4 974.042 87.965 974.042 87.425V84.995C973.382 86.375 972.407 87.44 971.117 88.19C969.857 88.94 968.372 89.315 966.662 89.315C964.742 89.315 963.047 88.835 961.577 87.875C960.107 86.915 958.967 85.58 958.157 83.87C957.347 82.13 956.942 80.12 956.942 77.84C956.942 75.59 957.347 73.61 958.157 71.9C958.967 70.19 960.107 68.87 961.577 67.94C963.047 67.01 964.742 66.545 966.662 66.545C968.372 66.545 969.857 66.92 971.117 67.67C972.407 68.42 973.382 69.485 974.042 70.865V58.805C974.042 58.265 974.192 57.845 974.492 57.545C974.822 57.215 975.272 57.05 975.842 57.05ZM967.382 86.3C969.512 86.3 971.147 85.58 972.287 84.14C973.457 82.67 974.042 80.6 974.042 77.93C974.042 75.26 973.457 73.205 972.287 71.765C971.147 70.325 969.512 69.605 967.382 69.605C965.252 69.605 963.587 70.325 962.387 71.765C961.217 73.205 960.632 75.23 960.632 77.84C960.632 80.51 961.217 82.595 962.387 84.095C963.587 85.565 965.252 86.3 967.382 86.3ZM993.393 66.545C998.883 66.545 1001.63 69.425 1001.63 75.185V87.425C1001.63 87.965 1001.46 88.4 1001.13 88.73C1000.83 89.06 1000.41 89.225 999.873 89.225C999.333 89.225 998.898 89.06 998.568 88.73C998.238 88.4 998.073 87.965 998.073 87.425V85.265C997.503 86.555 996.633 87.56 995.463 88.28C994.293 88.97 992.943 89.315 991.413 89.315C990.003 89.315 988.698 89.03 987.498 88.46C986.328 87.89 985.398 87.095 984.708 86.075C984.018 85.055 983.673 83.93 983.673 82.7C983.673 81.05 984.093 79.775 984.933 78.875C985.773 77.945 987.153 77.285 989.073 76.895C990.993 76.475 993.663 76.265 997.083 76.265H998.073V74.78C998.073 72.98 997.698 71.66 996.948 70.82C996.228 69.98 995.043 69.56 993.393 69.56C991.353 69.56 989.283 70.115 987.183 71.225C986.373 71.735 985.803 71.99 985.473 71.99C985.113 71.99 984.813 71.855 984.573 71.585C984.333 71.315 984.213 70.97 984.213 70.55C984.213 70.13 984.333 69.77 984.573 69.47C984.843 69.14 985.263 68.81 985.833 68.48C986.883 67.88 988.068 67.415 989.388 67.085C990.738 66.725 992.073 66.545 993.393 66.545ZM991.908 86.435C993.708 86.435 995.178 85.835 996.318 84.635C997.488 83.405 998.073 81.83 998.073 79.91V78.605H997.263C994.623 78.605 992.613 78.725 991.233 78.965C989.853 79.175 988.863 79.55 988.263 80.09C987.693 80.6 987.408 81.365 987.408 82.385C987.408 83.555 987.828 84.53 988.668 85.31C989.538 86.06 990.618 86.435 991.908 86.435ZM1013.8 80.945C1013.47 80.945 1013.2 80.825 1012.99 80.585C1012.78 80.345 1012.68 80.015 1012.68 79.595C1012.68 77.735 1013.01 76.145 1013.67 74.825C1014.36 73.505 1015.33 72.065 1016.59 70.505C1017.61 69.215 1018.36 68.12 1018.84 67.22C1019.35 66.32 1019.61 65.315 1019.61 64.205C1019.61 62.915 1019.14 61.91 1018.21 61.19C1017.28 60.44 1016.02 60.065 1014.43 60.065C1013.08 60.065 1011.84 60.335 1010.7 60.875C1009.56 61.385 1008.27 62.18 1006.83 63.26C1006.32 63.62 1005.9 63.8 1005.57 63.8C1005.21 63.8 1004.91 63.65 1004.67 63.35C1004.46 63.02 1004.35 62.645 1004.35 62.225C1004.35 61.625 1004.59 61.1 1005.07 60.65C1006.27 59.51 1007.73 58.61 1009.44 57.95C1011.18 57.26 1012.9 56.915 1014.61 56.915C1017.22 56.915 1019.32 57.56 1020.91 58.85C1022.53 60.14 1023.34 61.835 1023.34 63.935C1023.34 65.525 1023 66.905 1022.31 68.075C1021.65 69.215 1020.63 70.565 1019.25 72.125C1017.96 73.595 1016.95 74.9 1016.23 76.04C1015.54 77.15 1015.12 78.44 1014.97 79.91C1014.94 80.24 1014.82 80.495 1014.61 80.675C1014.4 80.855 1014.13 80.945 1013.8 80.945ZM1013.85 89.225C1013.13 89.225 1012.53 88.985 1012.05 88.505C1011.6 88.025 1011.37 87.425 1011.37 86.705C1011.37 85.985 1011.6 85.385 1012.05 84.905C1012.53 84.395 1013.13 84.14 1013.85 84.14C1014.57 84.14 1015.15 84.395 1015.6 84.905C1016.08 85.385 1016.32 85.985 1016.32 86.705C1016.32 87.425 1016.08 88.025 1015.6 88.505C1015.15 88.985 1014.57 89.225 1013.85 89.225Z" fill="black"/>
<path opacity="0.3" d="M1041.67 95.0002H1057.77L1059.73 96.9668L1065 102.233L1070.3 96.9335L1072.23 95.0002H1088.33V48.3335H1041.67V95.0002ZM1068.33 91.6668H1061.67V85.0002H1068.33V91.6668ZM1065 51.6668C1072.37 51.6668 1078.33 57.6335 1078.33 65.0002C1078.33 73.3335 1068.33 74.1668 1068.33 81.6668H1061.67C1061.67 70.8335 1071.67 71.6668 1071.67 65.0002C1071.67 61.3335 1068.67 58.3335 1065 58.3335C1061.33 58.3335 1058.33 61.3335 1058.33 65.0002H1051.67C1051.67 57.6335 1057.63 51.6668 1065 51.6668Z" fill="#0D7A7C"/>
<path d="M1095 48.3332C1095 44.6665 1092 41.6665 1088.33 41.6665H1041.67C1039.9 41.6665 1038.2 42.3689 1036.95 43.6191C1035.7 44.8694 1035 46.5651 1035 48.3332V94.9998C1035 96.7679 1035.7 98.4636 1036.95 99.7139C1038.2 100.964 1039.9 101.667 1041.67 101.667H1055L1065 111.667L1075 101.667H1088.33C1092 101.667 1095 98.6665 1095 94.9998V48.3332ZM1088.33 94.9998H1072.23L1070.27 96.9665L1065 102.233L1059.7 96.9332L1057.77 94.9998H1041.67V48.3332H1088.33V94.9998ZM1061.67 84.9998H1068.33V91.6665H1061.67V84.9998ZM1065 58.3332C1068.67 58.3332 1071.67 61.3332 1071.67 64.9998C1071.67 71.6665 1061.67 70.8332 1061.67 81.6665H1068.33C1068.33 74.1665 1078.33 73.3332 1078.33 64.9998C1078.33 57.6332 1072.37 51.6665 1065 51.6665C1057.63 51.6665 1051.67 57.6332 1051.67 64.9998H1058.33C1058.33 61.3332 1061.33 58.3332 1065 58.3332Z" fill="#0D7A7C"/>
<path d="M1269.04 93.36C1266.79 93.36 1264.63 93.03 1262.56 92.37C1260.52 91.68 1258.89 90.765 1257.66 89.625C1257.21 89.205 1256.98 88.68 1256.98 88.05C1256.98 87.63 1257.1 87.27 1257.34 86.97C1257.58 86.64 1257.87 86.475 1258.2 86.475C1258.59 86.475 1259.01 86.64 1259.46 86.97C1262.25 89.13 1265.43 90.21 1269 90.21C1271.58 90.21 1273.56 89.715 1274.94 88.725C1276.32 87.735 1277.01 86.325 1277.01 84.495C1277.01 83.445 1276.68 82.605 1276.02 81.975C1275.36 81.315 1274.49 80.79 1273.41 80.4C1272.33 80.01 1270.87 79.605 1269.04 79.185C1266.58 78.615 1264.56 78.015 1262.97 77.385C1261.41 76.755 1260.13 75.855 1259.14 74.685C1258.18 73.515 1257.7 71.985 1257.7 70.095C1257.7 68.295 1258.18 66.705 1259.14 65.325C1260.13 63.915 1261.5 62.835 1263.24 62.085C1265.01 61.305 1267.02 60.915 1269.27 60.915C1271.37 60.915 1273.32 61.245 1275.12 61.905C1276.95 62.535 1278.48 63.45 1279.71 64.65C1280.19 65.13 1280.42 65.655 1280.42 66.225C1280.42 66.645 1280.31 67.02 1280.07 67.35C1279.83 67.65 1279.54 67.8 1279.21 67.8C1278.88 67.8 1278.45 67.635 1277.91 67.305C1276.44 66.105 1275.07 65.265 1273.81 64.785C1272.55 64.305 1271.04 64.065 1269.27 64.065C1266.78 64.065 1264.84 64.59 1263.46 65.64C1262.08 66.66 1261.39 68.1 1261.39 69.96C1261.39 71.55 1261.99 72.75 1263.19 73.56C1264.42 74.34 1266.3 75.03 1268.82 75.63C1271.55 76.29 1273.69 76.905 1275.25 77.475C1276.81 78.015 1278.1 78.84 1279.12 79.95C1280.17 81.06 1280.7 82.545 1280.7 84.405C1280.7 86.175 1280.2 87.735 1279.21 89.085C1278.25 90.435 1276.89 91.485 1275.12 92.235C1273.35 92.985 1271.32 93.36 1269.04 93.36ZM1295.1 70.545C1300.59 70.545 1303.34 73.425 1303.34 79.185V91.425C1303.34 91.965 1303.17 92.4 1302.84 92.73C1302.54 93.06 1302.12 93.225 1301.58 93.225C1301.04 93.225 1300.61 93.06 1300.28 92.73C1299.95 92.4 1299.78 91.965 1299.78 91.425V89.265C1299.21 90.555 1298.34 91.56 1297.17 92.28C1296 92.97 1294.65 93.315 1293.12 93.315C1291.71 93.315 1290.41 93.03 1289.21 92.46C1288.04 91.89 1287.11 91.095 1286.42 90.075C1285.73 89.055 1285.38 87.93 1285.38 86.7C1285.38 85.05 1285.8 83.775 1286.64 82.875C1287.48 81.945 1288.86 81.285 1290.78 80.895C1292.7 80.475 1295.37 80.265 1298.79 80.265H1299.78V78.78C1299.78 76.98 1299.41 75.66 1298.66 74.82C1297.94 73.98 1296.75 73.56 1295.1 73.56C1293.06 73.56 1290.99 74.115 1288.89 75.225C1288.08 75.735 1287.51 75.99 1287.18 75.99C1286.82 75.99 1286.52 75.855 1286.28 75.585C1286.04 75.315 1285.92 74.97 1285.92 74.55C1285.92 74.13 1286.04 73.77 1286.28 73.47C1286.55 73.14 1286.97 72.81 1287.54 72.48C1288.59 71.88 1289.78 71.415 1291.1 71.085C1292.45 70.725 1293.78 70.545 1295.1 70.545ZM1293.62 90.435C1295.42 90.435 1296.89 89.835 1298.03 88.635C1299.2 87.405 1299.78 85.83 1299.78 83.91V82.605H1298.97C1296.33 82.605 1294.32 82.725 1292.94 82.965C1291.56 83.175 1290.57 83.55 1289.97 84.09C1289.4 84.6 1289.12 85.365 1289.12 86.385C1289.12 87.555 1289.54 88.53 1290.38 89.31C1291.25 90.06 1292.33 90.435 1293.62 90.435ZM1311.86 93.225C1311.32 93.225 1310.87 93.075 1310.51 92.775C1310.18 92.445 1310.01 91.995 1310.01 91.425V62.85C1310.01 62.28 1310.18 61.845 1310.51 61.545C1310.87 61.215 1311.32 61.05 1311.86 61.05C1312.37 61.05 1312.79 61.215 1313.12 61.545C1313.48 61.845 1313.66 62.28 1313.66 62.85V91.425C1313.66 91.995 1313.48 92.445 1313.12 92.775C1312.79 93.075 1312.37 93.225 1311.86 93.225ZM1322.31 93.225C1321.77 93.225 1321.32 93.075 1320.96 92.775C1320.63 92.445 1320.47 91.995 1320.47 91.425V72.435C1320.47 71.865 1320.63 71.43 1320.96 71.13C1321.32 70.8 1321.77 70.635 1322.31 70.635C1322.85 70.635 1323.29 70.8 1323.62 71.13C1323.95 71.43 1324.11 71.865 1324.11 72.435V91.425C1324.11 92.025 1323.95 92.475 1323.62 92.775C1323.29 93.075 1322.85 93.225 1322.31 93.225ZM1322.31 65.91C1321.59 65.91 1321.01 65.7 1320.56 65.28C1320.11 64.86 1319.88 64.305 1319.88 63.615C1319.88 62.955 1320.11 62.415 1320.56 61.995C1321.01 61.575 1321.59 61.365 1322.31 61.365C1323.03 61.365 1323.62 61.575 1324.07 61.995C1324.52 62.415 1324.74 62.955 1324.74 63.615C1324.74 64.305 1324.52 64.86 1324.07 65.28C1323.62 65.7 1323.03 65.91 1322.31 65.91ZM1341.77 70.635C1343.03 70.545 1343.66 71.055 1343.66 72.165C1343.66 72.645 1343.53 73.035 1343.26 73.335C1342.99 73.605 1342.52 73.77 1341.86 73.83L1340.51 73.965C1338.5 74.145 1337 74.865 1336.01 76.125C1335.05 77.355 1334.57 78.81 1334.57 80.49V91.425C1334.57 92.025 1334.41 92.475 1334.08 92.775C1333.75 93.075 1333.31 93.225 1332.77 93.225C1332.23 93.225 1331.78 93.075 1331.42 92.775C1331.09 92.445 1330.93 91.995 1330.93 91.425V72.435C1330.93 71.865 1331.11 71.43 1331.47 71.13C1331.83 70.8 1332.26 70.635 1332.77 70.635C1333.25 70.635 1333.66 70.8 1333.99 71.13C1334.32 71.43 1334.48 71.85 1334.48 72.39V74.91C1335.11 73.59 1336 72.585 1337.14 71.895C1338.31 71.205 1339.64 70.8 1341.14 70.68L1341.77 70.635Z" fill="black"/>
<path d="M1185 56.9816V93.0184C1185 96.3364 1186.26 99.2857 1188.26 101.59C1190.27 103.802 1192.87 105 1195.88 105H1212.28V97.5346H1195.88C1193.62 97.5346 1191.86 95.5069 1191.86 93.0184V56.9816C1191.86 54.4931 1193.62 52.5576 1195.88 52.5576H1212.28V45H1195.88C1192.87 45 1190.27 46.2903 1188.26 48.5023C1186.26 50.8065 1185 53.6636 1185 56.9816ZM1202.99 67.8571V82.235C1202.99 83.894 1204.33 85.2765 1205.84 85.2765H1220.99V96.6129C1220.99 97.6267 1221.49 98.4562 1222.33 98.9171C1222.66 99.0092 1223 99.0092 1223.17 99.0092C1223.75 99.0092 1224.25 98.8249 1224.67 98.3641L1244.34 76.7051C1245.26 75.8756 1245.18 74.2166 1244.34 73.2949L1224.67 51.7281C1223.5 50.3456 1220.99 51.1751 1220.99 53.3871V64.8157H1205.84C1204.33 64.8157 1202.99 66.1982 1202.99 67.8571Z" fill="#0D7A7C"/>
</svg>
