<svg width="350" height="70" viewBox="0 0 350 70" fill="none" xmlns="http://www.w3.org/2000/svg">
<g clip-path="url(#clip0)">
<path d="M35 70C54.33 70 70 54.33 70 35C70 15.67 54.33 0 35 0C15.67 0 0 15.67 0 35C0 54.33 15.67 70 35 70Z" fill="#3B5059"/>
<path d="M23.0004 37.8824L13.3524 34.4366V20.5317L23.0004 23.9776V37.8824Z" fill="#DBD8DD"/>
<path d="M23.0004 53.6109L13.3524 50.165V36.2603L23.0004 39.7061V53.6109Z" fill="#EF5261"/>
<path d="M34.1079 41.6929L24.46 38.2471V24.3428L34.1079 27.7881V41.6929Z" fill="#69B0EE"/>
<path d="M34.1079 57.422L24.46 53.9761V40.0713L34.1079 43.5171V57.422Z" fill="#F6C863"/>
<path d="M46.9995 37.8824L56.6475 34.4366V20.5317L46.9995 23.9776V37.8824Z" fill="#EF5261"/>
<path d="M46.9995 53.6109L56.6475 50.165V36.2603L46.9995 39.7061V53.6109Z" fill="#2CBFAE"/>
<path d="M35.892 41.6929L45.5399 38.2471V24.3428L35.892 27.7881V41.6929Z" fill="#F6C863"/>
<path d="M35.892 57.422L45.5399 53.9761V40.0713L35.892 43.5171V57.422Z" fill="#69B0EE"/>
<path d="M26.5272 23.3283L34.9595 20.3691L43.4727 23.3283L35 26.5308L26.5272 23.3283Z" fill="#2CBFAE"/>
<path d="M37.7173 19.3527L46.1496 16.3936L54.6623 19.3527L46.19 22.5552L37.7173 19.3527Z" fill="#F6C863"/>
<path d="M15.2161 19.5139L23.6483 16.5542L32.1615 19.5139L23.6888 22.7164L15.2161 19.5139Z" fill="#EF5261"/>
<path d="M26.4065 15.5373L34.8387 12.5781L43.3519 15.5373L34.8792 18.7398L26.4065 15.5373Z" fill="#EEEFEE"/>
<g filter="url(#filter0_d)">
<path d="M110 35C110 21.1929 121.193 10 135 10H325C338.807 10 350 21.1929 350 35C350 48.8071 338.807 60 325 60H230H135C121.193 60 110 48.8071 110 35Z" fill="#FCE3AF"/>
<path d="M182.783 46.3954C182.25 46.438 181.844 46.3634 181.567 46.1714C181.29 45.9794 181.151 45.6914 181.151 45.3074C181.151 44.6034 181.546 44.2407 182.335 44.2194L183.295 44.1554C184.383 44.0914 185.194 43.7607 185.727 43.1634C186.26 42.5447 186.527 41.5634 186.527 40.2194V24.8594C186.527 24.454 186.655 24.134 186.911 23.8994C187.167 23.6434 187.476 23.5154 187.839 23.5154C188.244 23.5154 188.564 23.6434 188.799 23.8994C189.034 24.134 189.151 24.454 189.151 24.8594V40.2514C189.151 42.214 188.703 43.6967 187.807 44.6994C186.911 45.6807 185.556 46.2247 183.743 46.3314L182.783 46.3954ZM206.181 30.3314C206.586 30.3314 206.895 30.4487 207.109 30.6834C207.343 30.918 207.461 31.2274 207.461 31.6114V45.1474C207.461 45.51 207.343 45.8087 207.109 46.0434C206.895 46.278 206.586 46.3954 206.181 46.3954C205.797 46.3954 205.487 46.2887 205.253 46.0754C205.039 45.8407 204.933 45.542 204.933 45.1794V43.5794C204.442 44.518 203.749 45.2327 202.853 45.7234C201.978 46.214 200.986 46.4594 199.877 46.4594C198.021 46.4594 196.623 45.9474 195.685 44.9234C194.746 43.878 194.277 42.342 194.277 40.3154V31.6114C194.277 31.2274 194.394 30.918 194.629 30.6834C194.863 30.4487 195.183 30.3314 195.589 30.3314C195.994 30.3314 196.303 30.4487 196.517 30.6834C196.751 30.918 196.869 31.2274 196.869 31.6114V40.2514C196.869 41.638 197.146 42.662 197.701 43.3234C198.255 43.9634 199.13 44.2834 200.325 44.2834C201.69 44.2834 202.789 43.846 203.621 42.9714C204.453 42.0754 204.869 40.902 204.869 39.4514V31.6114C204.869 31.2274 204.986 30.918 205.221 30.6834C205.455 30.4487 205.775 30.3314 206.181 30.3314ZM224.342 42.6194C224.577 42.6194 224.779 42.7154 224.95 42.9074C225.121 43.0994 225.206 43.3447 225.206 43.6434C225.206 44.1767 224.833 44.6674 224.086 45.1154C223.318 45.5634 222.507 45.9047 221.654 46.1394C220.801 46.3527 219.969 46.4594 219.158 46.4594C216.747 46.4594 214.838 45.7447 213.43 44.3154C212.043 42.886 211.35 40.9127 211.35 38.3954C211.35 36.7954 211.659 35.3874 212.278 34.1714C212.897 32.934 213.761 31.974 214.87 31.2914C216.001 30.6087 217.281 30.2674 218.71 30.2674C220.737 30.2674 222.347 30.9287 223.542 32.2514C224.737 33.574 225.334 35.366 225.334 37.6274C225.334 38.054 225.249 38.3634 225.078 38.5554C224.907 38.7474 224.63 38.8434 224.246 38.8434H213.942C214.134 42.5127 215.873 44.3474 219.158 44.3474C219.99 44.3474 220.705 44.2407 221.302 44.0274C221.899 43.7927 222.539 43.4834 223.222 43.0994C223.777 42.7794 224.15 42.6194 224.342 42.6194ZM218.742 32.2834C217.377 32.2834 216.278 32.71 215.446 33.5634C214.635 34.4167 214.155 35.622 214.006 37.1794H223.062C223.019 35.6007 222.625 34.3954 221.878 33.5634C221.131 32.71 220.086 32.2834 218.742 32.2834ZM241.793 30.3314C242.198 30.3314 242.518 30.4487 242.753 30.6834C242.988 30.918 243.105 31.2274 243.105 31.6114V45.1794C243.105 47.5047 242.508 49.254 241.313 50.4274C240.118 51.622 238.348 52.2194 236.001 52.2194C233.718 52.2194 231.82 51.7714 230.305 50.8754C229.537 50.4487 229.153 49.958 229.153 49.4034C229.153 49.1047 229.228 48.8594 229.377 48.6674C229.548 48.4754 229.761 48.3794 230.017 48.3794C230.23 48.3794 230.614 48.5287 231.169 48.8274C231.916 49.2114 232.652 49.5207 233.377 49.7554C234.102 49.99 234.966 50.1074 235.969 50.1074C237.484 50.1074 238.625 49.702 239.393 48.8914C240.161 48.102 240.545 46.9394 240.545 45.4034V42.6514C240.097 43.654 239.404 44.422 238.465 44.9554C237.548 45.4887 236.46 45.7554 235.201 45.7554C233.836 45.7554 232.62 45.4354 231.553 44.7954C230.508 44.1554 229.686 43.2487 229.089 42.0754C228.513 40.902 228.225 39.5474 228.225 38.0114C228.225 36.4754 228.513 35.1207 229.089 33.9474C229.686 32.774 230.508 31.8674 231.553 31.2274C232.62 30.5874 233.836 30.2674 235.201 30.2674C236.438 30.2674 237.516 30.534 238.433 31.0674C239.35 31.6007 240.044 32.358 240.513 33.3394V31.6114C240.513 31.2274 240.62 30.918 240.833 30.6834C241.068 30.4487 241.388 30.3314 241.793 30.3314ZM235.713 43.6114C237.206 43.6114 238.38 43.1207 239.233 42.1394C240.086 41.1367 240.513 39.7607 240.513 38.0114C240.513 36.2834 240.086 34.9287 239.233 33.9474C238.401 32.9447 237.228 32.4434 235.713 32.4434C234.198 32.4434 233.004 32.9447 232.129 33.9474C231.276 34.9287 230.849 36.2834 230.849 38.0114C230.849 39.7607 231.276 41.1367 232.129 42.1394C233.004 43.1207 234.198 43.6114 235.713 43.6114ZM254.367 46.4594C252.895 46.4594 251.594 46.1287 250.463 45.4674C249.354 44.806 248.49 43.8674 247.871 42.6514C247.274 41.414 246.975 39.9847 246.975 38.3634C246.975 36.742 247.274 35.3234 247.871 34.1074C248.49 32.87 249.354 31.9207 250.463 31.2594C251.594 30.598 252.895 30.2674 254.367 30.2674C255.839 30.2674 257.14 30.598 258.271 31.2594C259.402 31.9207 260.266 32.87 260.863 34.1074C261.482 35.3234 261.791 36.742 261.791 38.3634C261.791 39.9847 261.482 41.414 260.863 42.6514C260.266 43.8674 259.402 44.806 258.271 45.4674C257.14 46.1287 255.839 46.4594 254.367 46.4594ZM254.367 44.3154C255.903 44.3154 257.076 43.814 257.887 42.8114C258.719 41.7874 259.135 40.3047 259.135 38.3634C259.135 36.4647 258.719 35.0034 257.887 33.9794C257.055 32.934 255.882 32.4114 254.367 32.4114C252.852 32.4114 251.679 32.934 250.847 33.9794C250.015 35.0034 249.599 36.4647 249.599 38.3634C249.599 40.2834 250.004 41.7554 250.815 42.7794C251.647 43.8034 252.831 44.3154 254.367 44.3154ZM270.901 46.4594C269.92 46.4594 268.981 46.342 268.085 46.1074C267.21 45.8727 266.432 45.542 265.749 45.1154C265.365 44.8594 265.088 44.6247 264.917 44.4114C264.768 44.1767 264.693 43.8994 264.693 43.5794C264.693 43.302 264.768 43.078 264.917 42.9074C265.088 42.7154 265.301 42.6194 265.557 42.6194C265.813 42.6194 266.186 42.7794 266.677 43.0994C267.317 43.4834 267.946 43.7927 268.565 44.0274C269.205 44.2407 269.994 44.3474 270.933 44.3474C272.085 44.3474 272.981 44.1447 273.621 43.7394C274.261 43.334 274.581 42.7474 274.581 41.9794C274.581 41.51 274.464 41.1367 274.229 40.8594C273.994 40.5607 273.589 40.3047 273.013 40.0914C272.437 39.8567 271.594 39.622 270.485 39.3874C268.608 38.982 267.264 38.438 266.453 37.7554C265.642 37.0727 265.237 36.1447 265.237 34.9714C265.237 34.054 265.493 33.2434 266.005 32.5394C266.517 31.8354 267.221 31.2807 268.117 30.8754C269.034 30.47 270.069 30.2674 271.221 30.2674C272.053 30.2674 272.853 30.3847 273.621 30.6194C274.41 30.8327 275.104 31.142 275.701 31.5474C276.426 32.0594 276.789 32.5927 276.789 33.1474C276.789 33.4247 276.704 33.6594 276.533 33.8514C276.362 34.0434 276.16 34.1394 275.925 34.1394C275.669 34.1394 275.285 33.958 274.773 33.5954C274.176 33.2114 273.61 32.9127 273.077 32.6994C272.544 32.486 271.882 32.3794 271.093 32.3794C270.09 32.3794 269.28 32.6034 268.661 33.0514C268.064 33.4994 267.765 34.0967 267.765 34.8434C267.765 35.3127 267.872 35.6967 268.085 35.9954C268.32 36.2727 268.693 36.5287 269.205 36.7634C269.738 36.9767 270.496 37.19 271.477 37.4034C272.928 37.7234 274.048 38.0754 274.837 38.4594C275.648 38.8434 276.224 39.3127 276.565 39.8674C276.906 40.422 277.077 41.126 277.077 41.9794C277.077 43.3234 276.512 44.4114 275.381 45.2434C274.25 46.054 272.757 46.4594 270.901 46.4594Z" fill="black"/>
</g>
</g>
<defs>
<filter id="filter0_d" x="109" y="10" width="256" height="66" filterUnits="userSpaceOnUse" color-interpolation-filters="sRGB">
<feFlood flood-opacity="0" result="BackgroundImageFix"/>
<feColorMatrix in="SourceAlpha" type="matrix" values="0 0 0 0 0 0 0 0 0 0 0 0 0 0 0 0 0 0 127 0"/>
<feOffset dx="7" dy="8"/>
<feGaussianBlur stdDeviation="4"/>
<feColorMatrix type="matrix" values="0 0 0 0 0 0 0 0 0 0 0 0 0 0 0 0 0 0 0.25 0"/>
<feBlend mode="normal" in2="BackgroundImageFix" result="effect1_dropShadow"/>
<feBlend mode="normal" in="SourceGraphic" in2="effect1_dropShadow" result="shape"/>
</filter>
<clipPath id="clip0">
<rect width="350" height="70" fill="white"/>
</clipPath>
</defs>
</svg>
