<svg width="308" height="308" viewBox="0 0 308 308" fill="none" xmlns="http://www.w3.org/2000/svg">
<g filter="url(#filter0_d)">
<rect width="290" height="290" rx="145" fill="#9D0200"/>
<path d="M229.39 255.465L223.597 209.12C222.979 204.179 219.579 200.032 214.855 198.457L188.62 189.712C186.396 188.97 184.056 190.144 183.244 192.23L176.757 190.068C173.236 188.894 170.862 185.6 170.862 181.889V167.988L189.43 160.251C199.067 156.236 205.344 146.82 205.344 136.379V132.068C212.486 132.068 218.275 126.279 218.275 119.138C218.275 115.73 216.955 112.632 214.8 110.322C216.973 98.0158 222.354 63.301 218.275 41.5516C215.851 28.6207 209.655 20 209.655 20C209.655 20 177.327 21.0776 153.621 28.6207L149.31 20C149.31 20 101.627 20 88.9694 41.5479L88.9657 41.5516C88.9657 41.5516 67.414 41.3722 67.414 67.4136C67.414 76.9448 72.7303 100.745 75.0126 110.525C72.969 112.812 71.7244 115.829 71.7244 119.138C71.7244 126.279 77.5137 132.068 84.6553 132.068V136.379C84.6553 146.82 90.9328 156.236 100.57 160.252L119.138 167.988V181.889C119.138 185.6 116.763 188.894 113.244 190.068L106.757 192.23C105.944 190.144 103.605 188.97 101.38 189.712L75.1457 198.457C70.4216 200.032 67.0213 204.179 66.4038 209.12L60.6107 255.465C59.6457 263.182 65.6635 269.999 73.4415 269.999H216.559C224.337 269.999 230.355 263.182 229.39 255.465Z" fill="#F6B47B"/>
<path d="M104.051 269.999H185.948V190.508C184.106 191.063 182.464 192.227 181.384 193.929C173.743 205.967 160.314 213.965 144.999 213.965C129.685 213.965 116.256 205.967 108.615 193.928C107.535 192.226 105.893 191.063 104.051 190.508V269.999Z" fill="#9BCE7A"/>
<path d="M119.138 167.628V181.889C119.138 184.957 117.512 187.736 114.961 189.271C149.31 195.206 168.944 169.982 170.728 167.628H119.138V167.628Z" fill="#E2A071"/>
<path d="M76.0343 114.827L209.654 20C209.654 20 215.85 28.6207 218.275 41.5516C223.299 68.3484 213.965 114.827 213.965 114.827H76.0343Z" fill="#6E4439"/>
<path d="M149.31 20C149.31 20 101.627 20 88.969 41.5479L88.9652 41.5516C88.9652 41.5516 67.4136 41.3722 67.4136 67.4136C67.4136 79.5504 76.0342 114.827 76.0342 114.827C76.0342 114.827 167.809 74.0585 209.654 20C209.654 20 177.327 21.0776 153.62 28.6207L149.31 20Z" fill="#5E342E"/>
<path d="M205.344 106.206V97.5858C205.344 85.6828 195.695 76.0342 183.792 76.0342H106.206C94.3041 76.0342 84.6549 85.6834 84.6549 97.5858V106.206C77.5132 106.206 71.7239 111.996 71.7239 119.137C71.7239 126.279 77.5132 132.068 84.6549 132.068V136.379C84.6549 146.819 90.9323 156.236 100.57 160.251L128.42 171.856C133.674 174.045 139.308 175.172 144.999 175.172C150.69 175.172 156.324 174.045 161.577 171.856L189.429 160.251C199.067 156.236 205.344 146.819 205.344 136.379V132.068C212.486 132.068 218.275 126.279 218.275 119.137C218.275 111.996 212.486 106.206 205.344 106.206Z" fill="#FDC88E"/>
<path d="M114.827 123.448C112.456 123.448 110.517 121.508 110.517 119.138V114.827C110.517 112.457 112.456 110.517 114.827 110.517C117.198 110.517 119.137 112.457 119.137 114.827V119.138C119.137 121.508 117.198 123.448 114.827 123.448Z" fill="#623F33"/>
<path d="M175.172 123.448C172.801 123.448 170.861 121.508 170.861 119.138V114.827C170.861 112.457 172.801 110.517 175.172 110.517C177.542 110.517 179.482 112.457 179.482 114.827V119.138C179.482 121.508 177.542 123.448 175.172 123.448Z" fill="#623F33"/>
<path d="M144.999 153.738C137.336 153.738 130.168 151.853 125.334 148.563C123.366 147.225 122.854 144.543 124.195 142.576C125.531 140.61 128.215 140.098 130.183 141.437C133.571 143.742 139.11 145.118 144.999 145.118C150.888 145.118 156.428 143.742 159.816 141.437C161.788 140.094 164.465 140.608 165.804 142.576C167.144 144.543 166.633 147.225 164.665 148.563C159.832 151.853 152.663 153.738 144.999 153.738Z" fill="#E2A071"/>
<path d="M183.792 88.9652V76.0342H106.206C104.726 76.0342 103.286 76.191 101.896 76.4835V76.469C92.0595 78.4663 84.6549 87.1602 84.6549 97.5863V106.207C77.5132 106.207 71.7239 111.996 71.7239 119.138C71.7239 126.28 77.5132 132.069 84.6549 132.069V136.379C84.6549 146.82 90.9323 156.236 100.57 160.252L128.42 171.856C129.783 172.424 131.174 172.914 132.583 173.338C120.275 164.334 112.082 156.463 107.281 151.316C103.789 147.572 101.896 142.63 101.896 137.51V92.8579C115.479 86.5789 144.426 77.5363 183.792 88.9652Z" fill="#F6B47B"/>
<path d="M191.24 190.585C187.576 189.364 183.454 190.668 181.385 193.929C173.743 205.968 160.314 213.965 144.999 213.965C129.685 213.965 116.256 205.967 108.615 193.928C106.545 190.668 102.424 189.363 98.7599 190.585L97.3666 191.049C105.232 209.585 123.597 222.586 144.999 222.586C166.402 222.586 184.768 209.584 192.632 191.05L191.24 190.585Z" fill="#8ABE69"/>
<path d="M119.138 269.999L107 193.129C106.585 190.498 103.906 188.87 101.379 189.712L75.1447 198.457C70.4206 200.032 67.0203 204.18 66.4028 209.121L60.6097 255.465C59.6448 263.183 65.6631 270 73.441 270L119.138 269.999Z" fill="#43A0C5"/>
<path d="M170.861 269.999L182.999 193.129C183.414 190.498 186.093 188.87 188.619 189.712L214.854 198.457C219.578 200.032 222.979 204.18 223.596 209.121L229.389 255.465C230.354 263.183 224.336 270 216.558 270L170.861 269.999Z" fill="#43A0C5"/>
<path d="M220.996 202.851C222.375 204.643 223.305 206.786 223.597 209.12L229.39 255.464C230.355 263.182 224.336 269.999 216.558 269.999H192.413V245.233C192.413 238.969 194.687 232.918 198.812 228.203L220.996 202.851Z" fill="#2C8CB3"/>
<path d="M229.024 252.538C220.544 251.455 213.965 244.291 213.965 235.516C213.965 228.227 218.502 222.028 224.895 219.506L229.024 252.538Z" fill="#FFC84A"/>
<path d="M152.536 74.9565C165.722 77.3138 180.329 83.859 188.103 97.5858C188.103 97.5858 189.388 85.0061 186.321 74.9565H152.536Z" fill="#6E4439"/>
<path d="M69.0036 202.851C67.6243 204.643 66.6948 206.786 66.4028 209.12L60.6097 255.464C59.6448 263.182 65.6631 269.999 73.441 269.999H97.5859V245.233C97.5859 238.969 95.3122 232.918 91.1872 228.203L69.0036 202.851Z" fill="#2C8CB3"/>
</g>
<defs>
<filter id="filter0_d" x="0" y="0" width="308" height="308" filterUnits="userSpaceOnUse" color-interpolation-filters="sRGB">
<feFlood flood-opacity="0" result="BackgroundImageFix"/>
<feColorMatrix in="SourceAlpha" type="matrix" values="0 0 0 0 0 0 0 0 0 0 0 0 0 0 0 0 0 0 127 0"/>
<feOffset dx="10" dy="10"/>
<feGaussianBlur stdDeviation="4"/>
<feColorMatrix type="matrix" values="0 0 0 0 0 0 0 0 0 0 0 0 0 0 0 0 0 0 0.25 0"/>
<feBlend mode="normal" in2="BackgroundImageFix" result="effect1_dropShadow"/>
<feBlend mode="normal" in="SourceGraphic" in2="effect1_dropShadow" result="shape"/>
</filter>
</defs>
</svg>
