<svg width="350" height="70" viewBox="0 0 350 70" fill="none" xmlns="http://www.w3.org/2000/svg">
<g clip-path="url(#clip0)">
<path d="M57.0743 7.21191C56.8079 10.3739 53.5111 10.873 53.5111 10.873C56.3417 11.0061 57.0472 14.7172 57.0472 14.7172C57.1076 12.0712 60.6916 10.8339 60.6916 10.8339C58.0067 10.6734 57.0743 7.21191 57.0743 7.21191Z" fill="#D7E057"/>
<path d="M60.7158 10.39C58.3618 10.2492 57.4786 7.10196 57.4701 7.07024C57.4179 6.87829 57.2385 6.75169 57.037 6.76919C56.8387 6.78724 56.682 6.94474 56.6654 7.14298C56.4302 9.93614 53.5703 10.4141 53.4495 10.4333C53.2408 10.4647 53.0905 10.6493 53.1014 10.8601C53.1123 11.0706 53.281 11.2385 53.4919 11.2486C55.9618 11.3649 56.6378 14.7262 56.644 14.7601C56.6818 14.9545 56.8519 15.0929 57.0468 15.0929C57.0583 15.0929 57.0698 15.0926 57.0813 15.0915C57.2904 15.074 57.4523 14.902 57.4572 14.6926C57.5103 12.3662 60.7926 11.1989 60.8257 11.1874C61.0106 11.1231 61.1243 10.9375 61.0975 10.7436C61.0707 10.5497 60.911 10.4018 60.7158 10.39ZM57.0044 13.2193C56.6337 12.3634 55.99 11.3304 54.9288 10.7917C55.7308 10.4076 56.682 9.72149 57.1726 8.52931C57.597 9.36903 58.3216 10.4108 59.4528 10.9148C58.63 11.3632 57.5587 12.1195 57.0044 13.2193Z" fill="#3A312A"/>
<path d="M51.138 11.8604C50.9496 14.0968 48.6177 14.4498 48.6177 14.4498C50.6198 14.5439 51.1188 17.1689 51.1188 17.1689C51.1615 15.2975 53.6965 14.4222 53.6965 14.4222C51.7975 14.3087 51.138 11.8604 51.138 11.8604Z" fill="#D7E057"/>
<path d="M53.7208 13.9787C52.1431 13.8843 51.5396 11.7403 51.5336 11.7187C51.4819 11.5267 51.2987 11.4015 51.1013 11.4174C50.9028 11.4351 50.7458 11.5929 50.7292 11.7914C50.5708 13.6702 48.6374 13.9973 48.5564 14.0101C48.3478 14.0415 48.1974 14.2261 48.2083 14.4369C48.2193 14.6475 48.388 14.8154 48.5988 14.8255C50.2498 14.9032 50.7119 17.1891 50.716 17.2115C50.7532 17.4062 50.9236 17.5451 51.1188 17.5451C51.13 17.5451 51.1415 17.5448 51.153 17.5437C51.3622 17.5265 51.5243 17.354 51.5292 17.1442C51.5648 15.5832 53.8083 14.7837 53.8305 14.7757C54.0156 14.7117 54.1296 14.5261 54.1031 14.3322C54.076 14.1386 53.9161 13.9904 53.7208 13.9787ZM51.0986 15.8372C50.8459 15.3215 50.4584 14.7577 49.882 14.3932C50.3895 14.1085 50.8935 13.674 51.2145 13.0487C51.5038 13.5611 51.9408 14.1304 52.5664 14.4774C52.0605 14.7782 51.4751 15.2266 51.0986 15.8372Z" fill="#3A312A"/>
<path d="M51.138 4.5459C50.9496 6.78234 48.6177 7.13563 48.6177 7.13563C50.6198 7.22969 51.1188 9.85469 51.1188 9.85469C51.1615 7.98301 53.6965 7.10801 53.6965 7.10801C51.7975 6.99426 51.138 4.5459 51.138 4.5459Z" fill="#D7E057"/>
<path d="M53.7208 6.69834C52.1431 6.604 51.5396 4.45998 51.5336 4.43838C51.4819 4.24643 51.2987 4.12147 51.1013 4.13705C50.9028 4.15482 50.7458 4.3126 50.7292 4.51111C50.5708 6.3899 48.6374 6.71693 48.5564 6.72978C48.3478 6.76123 48.1974 6.9458 48.2083 7.15662C48.2193 7.36717 48.388 7.53506 48.5988 7.54518C50.2498 7.62283 50.7119 9.90877 50.716 9.93119C50.7532 10.1259 50.9236 10.2648 51.1188 10.2648C51.13 10.2648 51.1415 10.2645 51.153 10.2634C51.3622 10.2462 51.5243 10.0737 51.5292 9.86392C51.5648 8.30287 53.8083 7.50334 53.8305 7.49541C54.0156 7.43143 54.1296 7.24576 54.1031 7.05189C54.076 6.85803 53.9161 6.7101 53.7208 6.69834ZM51.0986 8.55662C50.8459 8.04092 50.4584 7.47709 49.882 7.1126C50.3895 6.82795 50.8935 6.39346 51.2145 5.76811C51.5038 6.28053 51.9408 6.84982 52.5664 7.19682C52.0605 7.4976 51.4751 7.94603 51.0986 8.55662Z" fill="#3A312A"/>
<path d="M45.4022 20.8619C45.4022 18.1166 43.3432 15.858 40.6882 15.5299C40.7948 15.1061 40.8604 14.6631 40.8604 14.2064C40.8604 11.2369 38.4514 8.83066 35.4846 8.83066C34.4702 8.83066 33.5268 9.11504 32.7202 9.60176C32.5862 6.75254 30.2401 4.47754 27.3553 4.47754C24.4733 4.47754 22.1245 6.75254 21.9932 9.60176C21.1839 9.11504 20.2405 8.83066 19.2288 8.83066C16.2593 8.83066 13.853 11.2369 13.853 14.2064C13.853 14.6631 13.9159 15.1061 14.0253 15.5299C11.3675 15.858 9.30847 18.1166 9.30847 20.8619C9.30847 22.1826 9.78699 23.3912 10.5772 24.3264C9.78699 25.267 9.30847 26.4783 9.30847 27.8018C9.30847 30.5416 11.3483 32.8029 13.9925 33.1557C13.5167 31.5315 13.2487 29.9482 13.2487 28.5072C13.2487 20.7197 19.5651 14.4088 27.3553 14.4088C35.1483 14.4088 41.462 20.7197 41.462 28.5072C41.462 29.9482 41.205 31.5287 40.7456 33.1529C43.376 32.7893 45.4022 30.5334 45.4022 27.8018C45.4022 26.4783 44.9237 25.267 44.1335 24.3264C44.9237 23.3912 45.4022 22.1823 45.4022 20.8619Z" fill="#87796F"/>
<path d="M45.8125 20.8619C45.8125 18.0977 43.85 15.7358 41.1799 15.1946C41.2403 14.8578 41.2707 14.5269 41.2707 14.2064C41.2707 11.016 38.6752 8.42051 35.4847 8.42051C34.6483 8.42051 33.8233 8.60371 33.0667 8.95426C32.6328 6.1682 30.2353 4.06738 27.3554 4.06738C24.4745 4.06738 22.0778 6.1682 21.6466 8.95453C20.8884 8.60398 20.0634 8.42051 19.2292 8.42051C16.0387 8.42051 13.4432 11.016 13.4432 14.2064C13.4432 14.5327 13.4733 14.8635 13.5329 15.1949C10.8617 15.7361 8.89868 18.098 8.89868 20.8619C8.89868 22.1118 9.30692 23.3297 10.0542 24.3272C9.30692 25.3293 8.89868 26.5505 8.89868 27.802C8.89868 30.7027 11.0654 33.1792 13.9387 33.5625C13.9567 33.565 13.9748 33.5661 13.9928 33.5661C14.1115 33.5661 14.2255 33.5147 14.304 33.4231C14.3945 33.3178 14.4254 33.1737 14.3863 33.0406C13.9037 31.3934 13.659 29.8681 13.659 28.5075C13.659 20.9598 19.8031 14.8192 27.3554 14.8192C34.9078 14.8192 41.0519 20.9598 41.0519 28.5075C41.0519 29.8711 40.8162 31.3966 40.3508 33.0416C40.3131 33.1748 40.3451 33.3181 40.4361 33.4225C40.5272 33.527 40.6656 33.5781 40.8017 33.5595C43.6583 33.1647 45.8125 30.6895 45.8125 27.802C45.8125 26.5508 45.4042 25.3296 44.6569 24.3272C45.4042 23.33 45.8125 22.1121 45.8125 20.8619ZM44.9922 27.802C44.9922 30.0669 43.4492 32.0365 41.3131 32.6195C41.6841 31.1454 41.8722 29.765 41.8722 28.5075C41.8722 20.5075 35.3601 13.9989 27.3554 13.9989C19.3508 13.9989 12.8386 20.5075 12.8386 28.5075C12.8386 29.7645 13.0339 31.1465 13.4197 32.6241C11.2708 32.0488 9.71872 30.0773 9.71872 27.802C9.71872 26.6312 10.1352 25.4904 10.8915 24.5905C11.02 24.4377 11.0197 24.2145 10.8907 24.062C10.1349 23.1675 9.71872 22.0311 9.71872 20.8622C9.71872 18.3613 11.5918 16.2438 14.0757 15.9373C14.193 15.9228 14.2983 15.8586 14.3644 15.7609C14.4309 15.6633 14.4519 15.5419 14.4227 15.4276C14.3168 15.0183 14.2635 14.6073 14.2635 14.2067C14.2635 11.4685 16.4909 9.24109 19.2292 9.24109C20.1244 9.24109 21.007 9.48746 21.7822 9.95367C21.9058 10.028 22.0601 10.0319 22.1872 9.96379C22.3146 9.89543 22.3967 9.76527 22.4035 9.62117C22.5257 6.96719 24.7009 4.88824 27.3557 4.88824C30.0097 4.88824 32.1863 6.96746 32.311 9.62172C32.3178 9.76609 32.4001 9.89625 32.5275 9.96434C32.6549 10.0324 32.8089 10.0283 32.9325 9.95367C33.7047 9.48774 34.5873 9.24164 35.485 9.24164C38.2232 9.24164 40.4506 11.4691 40.4506 14.2073C40.4506 14.5972 40.397 15.0087 40.2907 15.4306C40.2622 15.5446 40.2838 15.6655 40.3503 15.7623C40.4167 15.8594 40.5217 15.9231 40.6385 15.9376C43.1208 16.2444 44.9927 18.3616 44.9927 20.8625C44.9927 22.0314 44.5763 23.1681 43.8208 24.0622C43.6917 24.2148 43.6914 24.4379 43.8199 24.5908C44.5754 25.4904 44.9922 26.6309 44.9922 27.802Z" fill="#3A312A"/>
<path d="M37.1899 50.1102H31.847V46.6394C30.369 47.6634 28.84 48.2675 27.356 48.2675C25.9325 48.2675 24.4305 47.6574 22.9589 46.6211H22.8681V50.1099H17.5221C13.0555 50.1099 9.43494 53.7286 9.43494 58.1927V65.5175H45.2771V58.1927C45.2771 53.7286 41.6565 50.1102 37.1899 50.1102Z" fill="#FAE6CA"/>
<path d="M37.1899 49.6655H32.2571V46.605C32.2571 46.4524 32.1724 46.3124 32.0373 46.2416C31.9022 46.1707 31.739 46.1809 31.6134 46.2678C30.1243 47.2998 28.6918 47.8231 27.3563 47.8231C26.0763 47.8231 24.6763 47.2943 23.1954 46.2514C23.1262 46.2027 23.0436 46.1768 22.9592 46.1768H22.8684C22.6417 46.1768 22.4582 46.3602 22.4582 46.5869V49.6655H17.5221C12.8368 49.6655 9.02478 53.4756 9.02478 58.1588V65.4836C9.02478 65.7103 9.20826 65.8938 9.43494 65.8938H21.7158C21.9425 65.8938 22.126 65.7103 22.126 65.4836C22.126 65.2569 21.9425 65.0735 21.7158 65.0735H9.84509V58.1588C9.84509 53.9279 13.289 50.4859 17.5221 50.4859H22.8684C23.0951 50.4859 23.2785 50.3024 23.2785 50.0757V47.2929C24.7012 48.1895 26.0706 48.6432 27.3563 48.6432C28.6631 48.6432 30.033 48.2122 31.4371 47.3605V50.0757C31.4371 50.3024 31.6206 50.4859 31.8472 50.4859H37.1902C41.4233 50.4859 44.8672 53.9279 44.8672 58.1588V65.0735H25.7559C25.5292 65.0735 25.3457 65.2569 25.3457 65.4836C25.3457 65.7103 25.5292 65.8938 25.7559 65.8938H45.2771C45.5035 65.8938 45.6873 65.7103 45.6873 65.4836V58.1588C45.6873 53.4753 41.8753 49.6655 37.1899 49.6655Z" fill="#3A312A"/>
<path d="M37.1898 50.0732H35.9115L35.9449 50.0973L30.3873 57.4645L27.5192 55.3049L24.6511 57.4645L19.0935 50.0973L19.1266 50.0732H17.5218C13.0552 50.0732 9.43457 53.6919 9.43457 58.156V65.4839H45.2768V58.156C45.277 53.6919 41.6567 50.0732 37.1898 50.0732Z" fill="#D6DF58"/>
<path d="M37.1901 49.6631H35.9115C35.7338 49.6631 35.576 49.7777 35.5213 49.9469C35.5164 49.9625 35.5123 49.9784 35.509 49.9942L30.3066 56.8906L27.7658 54.9773C27.6198 54.8674 27.4183 54.8674 27.2723 54.9773L24.7315 56.8906L19.5288 49.9937C19.5255 49.9775 19.5214 49.9617 19.5165 49.9461C19.4612 49.7771 19.304 49.6631 19.1266 49.6631H17.5218C12.8364 49.6631 9.02441 53.4732 9.02441 58.1563V65.4842C9.02441 65.7109 9.20789 65.8943 9.43457 65.8943H21.7155C21.9421 65.8943 22.1256 65.7109 22.1256 65.4842C22.1256 65.2575 21.9421 65.074 21.7155 65.074H9.845V58.1563C9.845 53.9254 13.2889 50.4834 17.522 50.4834H18.8712L24.3238 57.7117C24.46 57.8927 24.717 57.9285 24.898 57.7924L27.5192 55.8184L30.1403 57.7924C30.3214 57.9285 30.5784 57.8925 30.7146 57.7117L36.1675 50.4834H37.1898C41.4227 50.4834 44.8666 53.9254 44.8666 58.1563V65.074H25.7558C25.5291 65.074 25.3456 65.2575 25.3456 65.4842C25.3456 65.7109 25.5291 65.8943 25.7558 65.8943H45.277C45.5034 65.8943 45.6872 65.7109 45.6872 65.4842V58.1563C45.6872 53.4729 41.8752 49.6631 37.1901 49.6631Z" fill="#3A312A"/>
<path fill-rule="evenodd" clip-rule="evenodd" d="M13.4692 26.8652C11.7118 26.8652 10.2872 28.2893 10.2872 30.0456C10.2872 31.8019 11.7118 33.2259 13.4692 33.2259C15.2266 33.2259 16.6515 31.8021 16.6515 30.0456C16.6515 28.289 15.2269 26.8652 13.4692 26.8652Z" fill="#FAE6CA"/>
<path d="M13.4692 26.4551C11.4884 26.4551 9.87708 28.0659 9.87708 30.0456C9.87708 32.0253 11.4884 33.6361 13.4692 33.6361C15.45 33.6361 17.0616 32.0253 17.0616 30.0456C17.0616 28.0659 15.45 26.4551 13.4692 26.4551ZM13.4692 32.8161C11.9407 32.8161 10.6974 31.5733 10.6974 30.0459C10.6974 28.5184 11.9407 27.2757 13.4692 27.2757C14.9977 27.2757 16.2413 28.5184 16.2413 30.0459C16.2413 31.5733 14.9977 32.8161 13.4692 32.8161Z" fill="#3A312A"/>
<path d="M41.2414 33.2571C42.9989 33.2557 44.4218 31.8307 44.4196 30.0743C44.4174 28.3178 42.9908 26.895 41.2333 26.8964C39.4758 26.8978 38.0528 28.3228 38.0551 30.0793C38.0573 31.8357 39.4839 33.2585 41.2414 33.2571Z" fill="#FAE6CA"/>
<path d="M41.2437 26.4551C39.2629 26.4551 37.6512 28.0659 37.6512 30.0456C37.6512 32.0253 39.2626 33.6361 41.2437 33.6361C43.2245 33.6361 44.8361 32.0253 44.8361 30.0456C44.8361 28.0659 43.2245 26.4551 41.2437 26.4551ZM41.2437 32.8161C39.7152 32.8161 38.4716 31.5733 38.4716 30.0459C38.4716 28.5184 39.7152 27.2757 41.2437 27.2757C42.7722 27.2757 44.0158 28.5184 44.0158 30.0459C44.0158 31.5733 42.7722 32.8161 41.2437 32.8161Z" fill="#3A312A"/>
<path d="M27.3565 14.3896C19.5657 14.3896 13.2499 20.7022 13.2499 28.4889C13.2499 36.2756 21.0532 48.2281 27.3565 48.2281C33.96 48.2281 41.4632 36.2759 41.4632 28.4889C41.4632 20.702 35.1473 14.3896 27.3565 14.3896Z" fill="#FAE6CA"/>
<path d="M27.3563 13.9795C19.3517 13.9795 12.8395 20.4884 12.8395 28.4889C12.8395 32.2727 14.6644 37.263 17.6019 41.5119C20.6869 45.9741 24.3334 48.6383 27.3563 48.6383C30.5388 48.6383 34.1356 46.0401 37.2246 41.5097C40.0919 37.3051 41.8731 32.3157 41.8731 28.4889C41.8734 20.4884 35.3609 13.9795 27.3563 13.9795ZM36.5471 41.0476C33.6563 45.287 30.2205 47.8179 27.3563 47.8179C24.6028 47.8179 21.2086 45.2862 18.2768 41.0454C15.4289 36.9264 13.6598 32.115 13.6598 28.4889C13.6598 20.9407 19.8039 14.7998 27.3563 14.7998C34.9086 14.7998 41.0528 20.9407 41.0528 28.4889C41.053 32.1595 39.3263 36.9718 36.5471 41.0476Z" fill="#3A312A"/>
<path d="M22.3759 26.9678C21.6155 26.9678 20.9991 27.5838 20.9991 28.344C20.9991 29.1041 21.6155 29.7202 22.3759 29.7202C23.1363 29.7202 23.7527 29.1041 23.7527 28.344C23.7529 27.5838 23.1363 26.9678 22.3759 26.9678Z" fill="#3A312A"/>
<path d="M32.337 26.9678C31.5765 26.9678 30.9602 27.5838 30.9602 28.344C30.9602 29.1041 31.5765 29.7202 32.337 29.7202C33.0974 29.7202 33.714 29.1041 33.714 28.344C33.7137 27.5838 33.0974 26.9678 32.337 26.9678Z" fill="#3A312A"/>
<path d="M19.6242 30.6934C18.3145 30.6934 17.2524 31.4869 17.2524 32.4655C17.2524 33.4441 18.3145 34.2377 19.6242 34.2377C20.9343 34.2377 21.996 33.4441 21.996 32.4655C21.996 31.4869 20.934 30.6934 19.6242 30.6934Z" fill="#F59689"/>
<path d="M35.0888 30.6934C33.7788 30.6934 32.717 31.4869 32.717 32.4655C32.717 33.4441 33.7791 34.2377 35.0888 34.2377C36.3986 34.2377 37.4606 33.4441 37.4606 32.4655C37.4606 31.4869 36.3986 30.6934 35.0888 30.6934Z" fill="#F59689"/>
<path d="M19.1185 50.1411L21.9994 47.9706L27.5548 55.3439L24.6739 57.5144L19.1185 50.1411Z" fill="#87796F"/>
<path d="M27.8586 55.0414L22.3026 47.6728C22.1661 47.4921 21.9088 47.4563 21.7284 47.5922L18.8485 49.7616C18.7616 49.8272 18.7042 49.9246 18.6891 50.0323C18.6738 50.1401 18.7022 50.2494 18.7679 50.3361L24.3236 57.7044C24.4042 57.8113 24.527 57.8677 24.6514 57.8677C24.7376 57.8677 24.824 57.8409 24.8978 57.7851L27.7779 55.6156C27.8649 55.55 27.9223 55.4527 27.9373 55.3449C27.9524 55.2375 27.9242 55.1281 27.8586 55.0414ZM24.7315 56.8833L19.6697 50.1699L21.8943 48.494L26.9565 55.2074L24.7315 56.8833Z" fill="#3A312A"/>
<path d="M27.5345 55.3027L33.0899 47.9294L35.9708 50.0999L30.4154 57.4733L27.5345 55.3027Z" fill="#87796F"/>
<path d="M36.3493 50.0324C36.334 49.9247 36.2769 49.8274 36.1899 49.7617L33.31 47.5923C33.1296 47.4561 32.8723 47.4922 32.7358 47.673L27.1801 55.0413C27.1145 55.1279 27.0863 55.2373 27.1014 55.3451C27.1164 55.4528 27.1738 55.5501 27.2608 55.6158L30.1406 57.7852C30.2145 57.841 30.3011 57.8678 30.387 57.8678C30.5114 57.8678 30.6342 57.8115 30.7149 57.7045L36.2706 50.336C36.3365 50.2495 36.3646 50.1402 36.3493 50.0324ZM30.3066 56.8837L28.0819 55.2081L33.1438 48.4946L35.3685 50.1705L30.3066 56.8837Z" fill="#3A312A"/>
<path d="M16.1487 59.3018C15.922 59.3018 15.7385 59.4852 15.7385 59.7119V65.5014C15.7385 65.7281 15.922 65.9116 16.1487 65.9116C16.3754 65.9116 16.5588 65.7281 16.5588 65.5014V59.7119C16.5588 59.4852 16.3754 59.3018 16.1487 59.3018Z" fill="#3A312A"/>
<path d="M38.8901 59.3018C38.6637 59.3018 38.48 59.4852 38.48 59.7119V65.5014C38.48 65.7281 38.6637 65.9116 38.8901 65.9116C39.1165 65.9116 39.3003 65.7281 39.3003 65.5014V59.7119C39.3003 59.4852 39.1165 59.3018 38.8901 59.3018Z" fill="#3A312A"/>
<path d="M31.3979 37.1453C31.1863 37.066 30.9495 37.1732 30.8699 37.3853C30.5902 38.1318 29.4956 39.5441 27.3559 39.5441C25.6844 39.5441 24.5308 38.8275 23.8286 37.3531C23.7313 37.1486 23.4865 37.0621 23.282 37.1592C23.0775 37.2566 22.9908 37.5013 23.0879 37.7061C23.9281 39.4703 25.3642 40.3647 27.3559 40.3647C29.605 40.3647 31.1524 38.9696 31.638 37.6736C31.7175 37.4611 31.6098 37.2248 31.3979 37.1453Z" fill="#3A312A"/>
<path d="M22.0232 23.3447C19.3093 23.3447 17.1013 25.5527 17.1013 28.2666C17.1013 30.9805 19.3093 33.1885 22.0232 33.1885C24.7371 33.1885 26.9451 30.9805 26.9451 28.2666C26.9451 25.5527 24.7373 23.3447 22.0232 23.3447ZM22.0232 32.3682C19.7616 32.3682 17.9216 30.5282 17.9216 28.2666C17.9216 26.005 19.7616 24.165 22.0232 24.165C24.2848 24.165 26.1248 26.005 26.1248 28.2666C26.1248 30.5282 24.2848 32.3682 22.0232 32.3682Z" fill="#3A312A"/>
<path d="M32.6873 23.3447C29.9734 23.3447 27.7654 25.5527 27.7654 28.2666C27.7654 30.9805 29.9734 33.1885 32.6873 33.1885C35.4011 33.1885 37.6094 30.9805 37.6094 28.2666C37.6094 25.5527 35.4014 23.3447 32.6873 23.3447ZM32.6873 32.3682C30.4257 32.3682 28.5857 30.5282 28.5857 28.2666C28.5857 26.005 30.4257 24.165 32.6873 24.165C34.9491 24.165 36.7891 26.005 36.7891 28.2666C36.7891 30.5282 34.9491 32.3682 32.6873 32.3682Z" fill="#3A312A"/>
<path d="M28.1755 27.8564H26.5398C26.3131 27.8564 26.1296 28.0399 26.1296 28.2666C26.1296 28.4933 26.3131 28.6768 26.5398 28.6768H28.1755C28.4022 28.6768 28.5857 28.4933 28.5857 28.2666C28.5857 28.0399 28.4022 27.8564 28.1755 27.8564Z" fill="#3A312A"/>
<path d="M17.6419 27.8663L13.4996 26.4764C13.285 26.4045 13.0525 26.5202 12.9803 26.7348C12.9082 26.9495 13.0238 27.1822 13.2387 27.2541L17.381 28.644C17.4242 28.6585 17.4683 28.6656 17.5115 28.6656C17.6829 28.6656 17.8426 28.5573 17.9003 28.3858C17.9725 28.1706 17.8568 27.9382 17.6419 27.8663Z" fill="#3A312A"/>
<path d="M41.735 26.7349C41.6631 26.5199 41.4309 26.4045 41.2157 26.4765L37.0737 27.8663C36.859 27.9382 36.7434 28.1709 36.8156 28.3856C36.873 28.557 37.0329 28.6653 37.2044 28.6653C37.2476 28.6653 37.2916 28.6585 37.3351 28.6437L41.4771 27.2538C41.6915 27.1822 41.8069 26.9495 41.735 26.7349Z" fill="#3A312A"/>
<path d="M37.1902 50.4834H36.1676L35.7328 51.0604C38.5219 52.2088 40.4906 54.9568 40.4906 58.1561V65.074H44.8656V58.1561C44.8656 53.926 41.423 50.4834 37.1902 50.4834Z" fill="#B9C239"/>
<g filter="url(#filter0_d)">
<path d="M110 35C110 21.1929 121.193 10 135 10H325C338.807 10 350 21.1929 350 35C350 48.8071 338.807 60 325 60H230H135C121.193 60 110 48.8071 110 35Z" fill="#FCE3AF"/>
<path d="M158.38 46.3954C157.975 46.3954 157.655 46.278 157.42 46.0434C157.186 45.7874 157.068 45.4567 157.068 45.0514V24.9554C157.068 24.5714 157.186 24.262 157.42 24.0274C157.676 23.7927 158.007 23.6754 158.412 23.6754H165.996C168.364 23.6754 170.199 24.2514 171.5 25.4034C172.823 26.5554 173.484 28.1874 173.484 30.2994C173.484 32.4114 172.823 34.054 171.5 35.2274C170.178 36.4007 168.343 36.9874 165.996 36.9874H159.692V45.0514C159.692 45.4567 159.575 45.7874 159.34 46.0434C159.106 46.278 158.786 46.3954 158.38 46.3954ZM165.74 34.8114C169.175 34.8114 170.892 33.3074 170.892 30.2994C170.892 27.334 169.175 25.8514 165.74 25.8514H159.692V34.8114H165.74ZM184.709 30.3314C185.605 30.2674 186.053 30.63 186.053 31.4194C186.053 31.7607 185.957 32.038 185.765 32.2514C185.573 32.4434 185.242 32.5607 184.773 32.6034L183.813 32.6994C182.383 32.8274 181.317 33.3394 180.613 34.2354C179.93 35.11 179.589 36.1447 179.589 37.3394V45.1154C179.589 45.542 179.471 45.862 179.237 46.0754C179.002 46.2887 178.693 46.3954 178.309 46.3954C177.925 46.3954 177.605 46.2887 177.349 46.0754C177.114 45.8407 176.997 45.5207 176.997 45.1154V31.6114C176.997 31.206 177.125 30.8967 177.381 30.6834C177.637 30.4487 177.946 30.3314 178.309 30.3314C178.65 30.3314 178.938 30.4487 179.173 30.6834C179.407 30.8967 179.525 31.1954 179.525 31.5794V33.3714C179.973 32.4327 180.602 31.718 181.413 31.2274C182.245 30.7367 183.194 30.4487 184.261 30.3634L184.709 30.3314ZM194.43 46.4594C192.958 46.4594 191.656 46.1287 190.526 45.4674C189.416 44.806 188.552 43.8674 187.934 42.6514C187.336 41.414 187.038 39.9847 187.038 38.3634C187.038 36.742 187.336 35.3234 187.934 34.1074C188.552 32.87 189.416 31.9207 190.526 31.2594C191.656 30.598 192.958 30.2674 194.43 30.2674C195.902 30.2674 197.203 30.598 198.334 31.2594C199.464 31.9207 200.328 32.87 200.926 34.1074C201.544 35.3234 201.854 36.742 201.854 38.3634C201.854 39.9847 201.544 41.414 200.926 42.6514C200.328 43.8674 199.464 44.806 198.334 45.4674C197.203 46.1287 195.902 46.4594 194.43 46.4594ZM194.43 44.3154C195.966 44.3154 197.139 43.814 197.95 42.8114C198.782 41.7874 199.198 40.3047 199.198 38.3634C199.198 36.4647 198.782 35.0034 197.95 33.9794C197.118 32.934 195.944 32.4114 194.43 32.4114C192.915 32.4114 191.742 32.934 190.91 33.9794C190.078 35.0034 189.662 36.4647 189.662 38.3634C189.662 40.2834 190.067 41.7554 190.878 42.7794C191.71 43.8034 192.894 44.3154 194.43 44.3154ZM212.564 25.7234C211.434 25.8087 210.58 26.1714 210.004 26.8113C209.428 27.43 209.14 28.3687 209.14 29.6273V30.6514H212.692C213.055 30.6514 213.332 30.7474 213.524 30.9394C213.716 31.1314 213.812 31.3874 213.812 31.7074C213.812 32.0274 213.716 32.2727 213.524 32.4434C213.332 32.614 213.055 32.6994 212.692 32.6994H209.14V45.1154C209.14 45.5207 209.012 45.8407 208.756 46.0754C208.522 46.2887 208.223 46.3954 207.86 46.3954C207.476 46.3954 207.156 46.2887 206.9 46.0754C206.666 45.8407 206.548 45.5207 206.548 45.1154V32.6994H204.404C204.042 32.6994 203.754 32.614 203.54 32.4434C203.348 32.2514 203.252 32.006 203.252 31.7074C203.252 31.3874 203.348 31.1314 203.54 30.9394C203.754 30.7474 204.042 30.6514 204.404 30.6514H206.548V30.0754C206.548 28.1554 207.028 26.6514 207.988 25.5634C208.948 24.454 210.324 23.8354 212.116 23.7073L212.948 23.6434C213.503 23.6007 213.898 23.654 214.132 23.8034C214.388 23.9527 214.516 24.2194 214.516 24.6033C214.516 25.222 214.143 25.574 213.396 25.6594L212.564 25.7234ZM228.092 42.6194C228.327 42.6194 228.529 42.7154 228.7 42.9074C228.871 43.0994 228.956 43.3447 228.956 43.6434C228.956 44.1767 228.583 44.6674 227.836 45.1154C227.068 45.5634 226.257 45.9047 225.404 46.1394C224.551 46.3527 223.719 46.4594 222.908 46.4594C220.497 46.4594 218.588 45.7447 217.18 44.3154C215.793 42.886 215.1 40.9127 215.1 38.3954C215.1 36.7954 215.409 35.3874 216.028 34.1714C216.647 32.934 217.511 31.974 218.62 31.2914C219.751 30.6087 221.031 30.2674 222.46 30.2674C224.487 30.2674 226.097 30.9287 227.292 32.2514C228.487 33.574 229.084 35.366 229.084 37.6274C229.084 38.054 228.999 38.3634 228.828 38.5554C228.657 38.7474 228.38 38.8434 227.996 38.8434H217.692C217.884 42.5127 219.623 44.3474 222.908 44.3474C223.74 44.3474 224.455 44.2407 225.052 44.0274C225.649 43.7927 226.289 43.4834 226.972 43.0994C227.527 42.7794 227.9 42.6194 228.092 42.6194ZM222.492 32.2834C221.127 32.2834 220.028 32.71 219.196 33.5634C218.385 34.4167 217.905 35.622 217.756 37.1794H226.812C226.769 35.6007 226.375 34.3954 225.628 33.5634C224.881 32.71 223.836 32.2834 222.492 32.2834ZM238.151 46.4594C237.17 46.4594 236.231 46.342 235.335 46.1074C234.46 45.8727 233.682 45.542 232.999 45.1154C232.615 44.8594 232.338 44.6247 232.167 44.4114C232.018 44.1767 231.943 43.8994 231.943 43.5794C231.943 43.302 232.018 43.078 232.167 42.9074C232.338 42.7154 232.551 42.6194 232.807 42.6194C233.063 42.6194 233.436 42.7794 233.927 43.0994C234.567 43.4834 235.196 43.7927 235.815 44.0274C236.455 44.2407 237.244 44.3474 238.183 44.3474C239.335 44.3474 240.231 44.1447 240.871 43.7394C241.511 43.334 241.831 42.7474 241.831 41.9794C241.831 41.51 241.714 41.1367 241.479 40.8594C241.244 40.5607 240.839 40.3047 240.263 40.0914C239.687 39.8567 238.844 39.622 237.735 39.3874C235.858 38.982 234.514 38.438 233.703 37.7554C232.892 37.0727 232.487 36.1447 232.487 34.9714C232.487 34.054 232.743 33.2434 233.255 32.5394C233.767 31.8354 234.471 31.2807 235.367 30.8754C236.284 30.47 237.319 30.2674 238.471 30.2674C239.303 30.2674 240.103 30.3847 240.871 30.6194C241.66 30.8327 242.354 31.142 242.951 31.5474C243.676 32.0594 244.039 32.5927 244.039 33.1474C244.039 33.4247 243.954 33.6594 243.783 33.8514C243.612 34.0434 243.41 34.1394 243.175 34.1394C242.919 34.1394 242.535 33.958 242.023 33.5954C241.426 33.2114 240.86 32.9127 240.327 32.6994C239.794 32.486 239.132 32.3794 238.343 32.3794C237.34 32.3794 236.53 32.6034 235.911 33.0514C235.314 33.4994 235.015 34.0967 235.015 34.8434C235.015 35.3127 235.122 35.6967 235.335 35.9954C235.57 36.2727 235.943 36.5287 236.455 36.7634C236.988 36.9767 237.746 37.19 238.727 37.4034C240.178 37.7234 241.298 38.0754 242.087 38.4594C242.898 38.8434 243.474 39.3127 243.815 39.8674C244.156 40.422 244.327 41.126 244.327 41.9794C244.327 43.3234 243.762 44.4114 242.631 45.2434C241.5 46.054 240.007 46.4594 238.151 46.4594ZM254.742 46.4594C253.27 46.4594 251.969 46.1287 250.838 45.4674C249.729 44.806 248.865 43.8674 248.246 42.6514C247.649 41.414 247.35 39.9847 247.35 38.3634C247.35 36.742 247.649 35.3234 248.246 34.1074C248.865 32.87 249.729 31.9207 250.838 31.2594C251.969 30.598 253.27 30.2674 254.742 30.2674C256.214 30.2674 257.515 30.598 258.646 31.2594C259.777 31.9207 260.641 32.87 261.238 34.1074C261.857 35.3234 262.166 36.742 262.166 38.3634C262.166 39.9847 261.857 41.414 261.238 42.6514C260.641 43.8674 259.777 44.806 258.646 45.4674C257.515 46.1287 256.214 46.4594 254.742 46.4594ZM254.742 44.3154C256.278 44.3154 257.451 43.814 258.262 42.8114C259.094 41.7874 259.51 40.3047 259.51 38.3634C259.51 36.4647 259.094 35.0034 258.262 33.9794C257.43 32.934 256.257 32.4114 254.742 32.4114C253.227 32.4114 252.054 32.934 251.222 33.9794C250.39 35.0034 249.974 36.4647 249.974 38.3634C249.974 40.2834 250.379 41.7554 251.19 42.7794C252.022 43.8034 253.206 44.3154 254.742 44.3154ZM273.74 30.3314C274.636 30.2674 275.084 30.63 275.084 31.4194C275.084 31.7607 274.988 32.038 274.796 32.2514C274.604 32.4434 274.273 32.5607 273.804 32.6034L272.844 32.6994C271.415 32.8274 270.348 33.3394 269.644 34.2354C268.961 35.11 268.62 36.1447 268.62 37.3394V45.1154C268.62 45.542 268.503 45.862 268.268 46.0754C268.033 46.2887 267.724 46.3954 267.34 46.3954C266.956 46.3954 266.636 46.2887 266.38 46.0754C266.145 45.8407 266.028 45.5207 266.028 45.1154V31.6114C266.028 31.206 266.156 30.8967 266.412 30.6834C266.668 30.4487 266.977 30.3314 267.34 30.3314C267.681 30.3314 267.969 30.4487 268.204 30.6834C268.439 30.8967 268.556 31.1954 268.556 31.5794V33.3714C269.004 32.4327 269.633 31.718 270.444 31.2274C271.276 30.7367 272.225 30.4487 273.292 30.3634L273.74 30.3314ZM289.061 42.6194C289.295 42.6194 289.498 42.7154 289.669 42.9074C289.839 43.0994 289.925 43.3447 289.925 43.6434C289.925 44.1767 289.551 44.6674 288.805 45.1154C288.037 45.5634 287.226 45.9047 286.373 46.1394C285.519 46.3527 284.687 46.4594 283.877 46.4594C281.466 46.4594 279.557 45.7447 278.149 44.3154C276.762 42.886 276.069 40.9127 276.069 38.3954C276.069 36.7954 276.378 35.3874 276.997 34.1714C277.615 32.934 278.479 31.974 279.589 31.2914C280.719 30.6087 281.999 30.2674 283.429 30.2674C285.455 30.2674 287.066 30.9287 288.261 32.2514C289.455 33.574 290.053 35.366 290.053 37.6274C290.053 38.054 289.967 38.3634 289.797 38.5554C289.626 38.7474 289.349 38.8434 288.965 38.8434H278.661C278.853 42.5127 280.591 44.3474 283.877 44.3474C284.709 44.3474 285.423 44.2407 286.021 44.0274C286.618 43.7927 287.258 43.4834 287.941 43.0994C288.495 42.7794 288.869 42.6194 289.061 42.6194ZM283.461 32.2834C282.095 32.2834 280.997 32.71 280.165 33.5634C279.354 34.4167 278.874 35.622 278.725 37.1794H287.781C287.738 35.6007 287.343 34.3954 286.597 33.5634C285.85 32.71 284.805 32.2834 283.461 32.2834ZM299.12 46.4594C298.138 46.4594 297.2 46.342 296.304 46.1074C295.429 45.8727 294.65 45.542 293.968 45.1154C293.584 44.8594 293.306 44.6247 293.136 44.4114C292.986 44.1767 292.912 43.8994 292.912 43.5794C292.912 43.302 292.986 43.078 293.136 42.9074C293.306 42.7154 293.52 42.6194 293.776 42.6194C294.032 42.6194 294.405 42.7794 294.896 43.0994C295.536 43.4834 296.165 43.7927 296.784 44.0274C297.424 44.2407 298.213 44.3474 299.152 44.3474C300.304 44.3474 301.2 44.1447 301.84 43.7394C302.48 43.334 302.8 42.7474 302.8 41.9794C302.8 41.51 302.682 41.1367 302.448 40.8594C302.213 40.5607 301.808 40.3047 301.232 40.0914C300.656 39.8567 299.813 39.622 298.704 39.3874C296.826 38.982 295.482 38.438 294.672 37.7554C293.861 37.0727 293.456 36.1447 293.456 34.9714C293.456 34.054 293.712 33.2434 294.224 32.5394C294.736 31.8354 295.44 31.2807 296.336 30.8754C297.253 30.47 298.288 30.2674 299.44 30.2674C300.272 30.2674 301.072 30.3847 301.84 30.6194C302.629 30.8327 303.322 31.142 303.92 31.5474C304.645 32.0594 305.008 32.5927 305.008 33.1474C305.008 33.4247 304.922 33.6594 304.752 33.8514C304.581 34.0434 304.378 34.1394 304.144 34.1394C303.888 34.1394 303.504 33.958 302.992 33.5954C302.394 33.2114 301.829 32.9127 301.296 32.6994C300.762 32.486 300.101 32.3794 299.312 32.3794C298.309 32.3794 297.498 32.6034 296.88 33.0514C296.282 33.4994 295.984 34.0967 295.984 34.8434C295.984 35.3127 296.09 35.6967 296.304 35.9954C296.538 36.2727 296.912 36.5287 297.424 36.7634C297.957 36.9767 298.714 37.19 299.696 37.4034C301.146 37.7234 302.266 38.0754 303.056 38.4594C303.866 38.8434 304.442 39.3127 304.784 39.8674C305.125 40.422 305.296 41.126 305.296 41.9794C305.296 43.3234 304.73 44.4114 303.6 45.2434C302.469 46.054 300.976 46.4594 299.12 46.4594Z" fill="black"/>
</g>
</g>
<defs>
<filter id="filter0_d" x="109" y="10" width="256" height="66" filterUnits="userSpaceOnUse" color-interpolation-filters="sRGB">
<feFlood flood-opacity="0" result="BackgroundImageFix"/>
<feColorMatrix in="SourceAlpha" type="matrix" values="0 0 0 0 0 0 0 0 0 0 0 0 0 0 0 0 0 0 127 0"/>
<feOffset dx="7" dy="8"/>
<feGaussianBlur stdDeviation="4"/>
<feColorMatrix type="matrix" values="0 0 0 0 0 0 0 0 0 0 0 0 0 0 0 0 0 0 0.25 0"/>
<feBlend mode="normal" in2="BackgroundImageFix" result="effect1_dropShadow"/>
<feBlend mode="normal" in="SourceGraphic" in2="effect1_dropShadow" result="shape"/>
</filter>
<clipPath id="clip0">
<rect width="350" height="70" fill="white"/>
</clipPath>
</defs>
</svg>
