<svg width="350" height="76" viewBox="0 0 350 76" fill="none" xmlns="http://www.w3.org/2000/svg">
<path d="M4.02148 55.8613H48.8791V68.6328H4.02148V55.8613Z" fill="#FFE4B2"/>
<path d="M40.8262 29.4413C38.7748 31.9063 37.5399 35.0767 37.5399 38.534C37.5399 41.9914 38.7746 45.1616 40.8262 47.6253C42.848 50.0562 45.6657 51.8012 48.8791 52.4617V55.8611H4.02087V1.36719H48.879V24.6049C45.6672 25.2654 42.8494 27.0104 40.8262 29.4413Z" fill="#F9F5F3"/>
<path d="M11.9518 8.77246H21.2802V16.5803H11.9518V8.77246Z" fill="#A0E4A5"/>
<path d="M11.9518 16.5801H21.2802V47.7264H11.9518V16.5801Z" fill="#A0E4A5"/>
<path d="M21.2804 8.77246H40.8259V16.5803H21.2804V8.77246Z" fill="#A0E4A5"/>
<path d="M40.8263 29.4411C38.7748 31.9061 37.54 35.0765 37.54 38.5338C37.54 41.9912 38.7747 45.1614 40.8263 47.6251V47.7262H21.2811V16.5801H40.8263V29.4411Z" fill="#A0E4A5"/>
<path d="M51.7592 52.7532C59.6126 52.7532 65.979 46.3867 65.979 38.5333C65.979 30.6799 59.6126 24.3135 51.7592 24.3135C43.9058 24.3135 37.5393 30.6799 37.5393 38.5333C37.5393 46.3867 43.9058 52.7532 51.7592 52.7532Z" fill="#FF7D95"/>
<path d="M2.65369 1.36719L2.65423 68.6328C2.65423 69.3879 3.26646 70 4.02142 70H48.879C49.6339 70 50.2462 69.3879 50.2462 68.6328V55.8637C50.2462 55.8627 50.2463 54.0467 50.2463 54.0467C50.7444 54.095 51.2489 54.1204 51.7592 54.1204C60.3539 54.1204 67.3463 47.128 67.3463 38.5334C67.3463 29.9387 60.3539 22.9463 51.7592 22.9463C51.2489 22.9463 50.7442 22.9718 50.2463 23.02V1.36719C50.2463 0.61209 49.6341 0 48.8791 0H4.02087C3.26591 0 2.65369 0.61209 2.65369 1.36719ZM5.38861 67.2656V57.2286H47.5118V60.7385H18.3419C17.5869 60.7385 16.9747 61.3506 16.9747 62.1057C16.9747 62.8608 17.5869 63.4729 18.3419 63.4729H47.5117V67.2656H5.38861ZM64.6119 38.5332C64.6119 45.6202 58.8462 51.3859 51.7592 51.3859C44.7673 51.3859 38.9071 45.5351 38.9071 38.534C38.9071 31.5533 44.7814 25.6807 51.7592 25.6807C58.8462 25.6806 64.6119 31.4463 64.6119 38.5332ZM38.2796 46.3591H22.6483V17.9475H39.4589V28.9596C37.3424 31.6805 36.1722 35.0857 36.1722 38.5332C36.1722 41.271 36.9056 43.9914 38.2796 46.3591ZM39.4587 15.213H22.6476V10.1397H39.4587V15.213ZM19.9132 15.2131H13.3191V10.1397H19.9132V15.2131ZM13.3191 17.9475H19.9132V46.3594H13.3191V17.9475ZM5.38806 2.73438H47.5118V23.5324C45.5884 24.0779 43.7708 25.0053 42.1933 26.232L42.193 8.77256C42.193 8.01746 41.5808 7.40537 40.8258 7.40537H11.9519C11.197 7.40537 10.5847 8.01746 10.5847 8.77256V47.7266C10.5847 48.4817 11.197 49.0938 11.9519 49.0938L40.2988 49.0937C42.2372 51.1958 44.7596 52.7542 47.5119 53.5343V54.4939H5.38806V2.73438Z" fill="black"/>
<path d="M13.4846 61.5823C13.198 60.8945 12.3876 60.5587 11.6989 60.844C11.0107 61.1291 10.6752 61.9401 10.9594 62.6282C11.2436 63.3164 12.0577 63.6532 12.745 63.3679C13.4351 63.0813 13.7673 62.2726 13.4846 61.5823Z" fill="black"/>
<path d="M48.7263 30.6143C48.7257 30.6143 48.7252 30.6143 48.7246 30.6143C48.061 30.6148 47.4696 31.0122 47.2181 31.6265C47.2139 31.6369 47.2097 31.6473 47.2058 31.6578L42.8634 43.0594C42.5946 43.765 42.9487 44.5548 43.6543 44.8236C44.36 45.0922 45.1497 44.7381 45.4185 44.0325L46.1647 42.0735H51.2543L51.9921 44.0287C52.1988 44.5762 52.7189 44.9135 53.2715 44.9135C53.4319 44.9135 53.595 44.8851 53.7538 44.8251C54.4604 44.5585 54.8168 43.7696 54.5504 43.0632L50.2473 31.6611C50.2426 31.6485 50.2377 31.636 50.2326 31.6237C49.9807 31.0103 49.3894 30.6143 48.7263 30.6143ZM47.2064 39.3391L48.7215 35.3611L50.2227 39.3391H47.2064Z" fill="black"/>
<path d="M55.5509 35.7515H56.0881V36.2887C56.0881 37.0438 56.7003 37.6559 57.4553 37.6559C58.2102 37.6559 58.8224 37.0438 58.8224 36.2887V35.7515H59.3596C60.1146 35.7515 60.7268 35.1394 60.7268 34.3843C60.7268 33.6292 60.1146 33.0171 59.3596 33.0171H58.8224V32.48C58.8224 31.7249 58.2102 31.1128 57.4553 31.1128C56.7003 31.1128 56.0881 31.7249 56.0881 32.48V33.0171H55.5509C54.7959 33.0171 54.1837 33.6292 54.1837 34.3843C54.1837 35.1394 54.7959 35.7515 55.5509 35.7515Z" fill="black"/>
<path d="M34.8642 22.249H27.9219C27.1669 22.249 26.5547 22.8611 26.5547 23.6162C26.5547 24.3713 27.1669 24.9834 27.9219 24.9834H34.8642C35.6191 24.9834 36.2314 24.3713 36.2314 23.6162C36.2314 22.8611 35.6191 22.249 34.8642 22.249Z" fill="black"/>
<path d="M32.6976 30.0229H27.9218C27.1668 30.0229 26.5546 30.635 26.5546 31.3901C26.5546 32.1452 27.1668 32.7573 27.9218 32.7573H32.6976C33.4526 32.7573 34.0648 32.1452 34.0648 31.3901C34.0648 30.635 33.4527 30.0229 32.6976 30.0229Z" fill="black"/>
<path d="M32.2467 37.7964H27.9218C27.1668 37.7964 26.5546 38.4085 26.5546 39.1636C26.5546 39.9187 27.1668 40.5308 27.9218 40.5308H32.2467C33.0017 40.5308 33.6139 39.9187 33.6139 39.1636C33.6139 38.4085 33.0018 37.7964 32.2467 37.7964Z" fill="black"/>
<g filter="url(#filter0_d)">
<path d="M110 35C110 21.1929 121.193 10 135 10H325C338.807 10 350 21.1929 350 35C350 48.8071 338.807 60 325 60H230H135C121.193 60 110 48.8071 110 35Z" fill="#FCE3AF"/>
<path d="M170.287 46.3954C169.881 46.3954 169.561 46.278 169.327 46.0434C169.092 45.7874 168.975 45.4567 168.975 45.0514V24.9554C168.975 24.5714 169.092 24.262 169.327 24.0274C169.583 23.7927 169.913 23.6754 170.319 23.6754H177.903C180.271 23.6754 182.105 24.2514 183.407 25.4034C184.729 26.5554 185.391 28.1874 185.391 30.2994C185.391 32.4114 184.729 34.054 183.407 35.2274C182.084 36.4007 180.249 36.9874 177.903 36.9874H171.599V45.0514C171.599 45.4567 171.481 45.7874 171.247 46.0434C171.012 46.278 170.692 46.3954 170.287 46.3954ZM177.647 34.8114C181.081 34.8114 182.799 33.3074 182.799 30.2994C182.799 27.334 181.081 25.8514 177.647 25.8514H171.599V34.8114H177.647ZM196.615 30.3314C197.511 30.2674 197.959 30.63 197.959 31.4194C197.959 31.7607 197.863 32.038 197.671 32.2514C197.479 32.4434 197.148 32.5607 196.679 32.6034L195.719 32.6994C194.29 32.8274 193.223 33.3394 192.519 34.2354C191.836 35.11 191.495 36.1447 191.495 37.3394V45.1154C191.495 45.542 191.378 45.862 191.143 46.0754C190.908 46.2887 190.599 46.3954 190.215 46.3954C189.831 46.3954 189.511 46.2887 189.255 46.0754C189.02 45.8407 188.903 45.5207 188.903 45.1154V31.6114C188.903 31.206 189.031 30.8967 189.287 30.6834C189.543 30.4487 189.852 30.3314 190.215 30.3314C190.556 30.3314 190.844 30.4487 191.079 30.6834C191.314 30.8967 191.431 31.1954 191.431 31.5794V33.3714C191.879 32.4327 192.508 31.718 193.319 31.2274C194.151 30.7367 195.1 30.4487 196.167 30.3634L196.615 30.3314ZM206.336 46.4594C204.864 46.4594 203.562 46.1287 202.432 45.4674C201.322 44.806 200.458 43.8674 199.84 42.6514C199.242 41.414 198.944 39.9847 198.944 38.3634C198.944 36.742 199.242 35.3234 199.84 34.1074C200.458 32.87 201.322 31.9207 202.432 31.2594C203.562 30.598 204.864 30.2674 206.336 30.2674C207.808 30.2674 209.109 30.598 210.24 31.2594C211.37 31.9207 212.234 32.87 212.832 34.1074C213.45 35.3234 213.76 36.742 213.76 38.3634C213.76 39.9847 213.45 41.414 212.832 42.6514C212.234 43.8674 211.37 44.806 210.24 45.4674C209.109 46.1287 207.808 46.4594 206.336 46.4594ZM206.336 44.3154C207.872 44.3154 209.045 43.814 209.856 42.8114C210.688 41.7874 211.104 40.3047 211.104 38.3634C211.104 36.4647 210.688 35.0034 209.856 33.9794C209.024 32.934 207.85 32.4114 206.336 32.4114C204.821 32.4114 203.648 32.934 202.816 33.9794C201.984 35.0034 201.568 36.4647 201.568 38.3634C201.568 40.2834 201.973 41.7554 202.784 42.7794C203.616 43.8034 204.8 44.3154 206.336 44.3154ZM230.262 30.3314C230.667 30.3314 230.987 30.4487 231.222 30.6834C231.456 30.918 231.574 31.2274 231.574 31.6114V45.1794C231.574 47.5047 230.976 49.254 229.782 50.4274C228.587 51.622 226.816 52.2194 224.47 52.2194C222.187 52.2194 220.288 51.7714 218.774 50.8754C218.006 50.4487 217.622 49.958 217.622 49.4034C217.622 49.1047 217.696 48.8594 217.846 48.6674C218.016 48.4754 218.23 48.3794 218.486 48.3794C218.699 48.3794 219.083 48.5287 219.638 48.8274C220.384 49.2114 221.12 49.5207 221.846 49.7554C222.571 49.99 223.435 50.1074 224.438 50.1074C225.952 50.1074 227.094 49.702 227.862 48.8914C228.63 48.102 229.014 46.9394 229.014 45.4034V42.6514C228.566 43.654 227.872 44.422 226.934 44.9554C226.016 45.4887 224.928 45.7554 223.67 45.7554C222.304 45.7554 221.088 45.4354 220.022 44.7954C218.976 44.1554 218.155 43.2487 217.558 42.0754C216.982 40.902 216.694 39.5474 216.694 38.0114C216.694 36.4754 216.982 35.1207 217.558 33.9474C218.155 32.774 218.976 31.8674 220.022 31.2274C221.088 30.5874 222.304 30.2674 223.67 30.2674C224.907 30.2674 225.984 30.534 226.902 31.0674C227.819 31.6007 228.512 32.358 228.982 33.3394V31.6114C228.982 31.2274 229.088 30.918 229.302 30.6834C229.536 30.4487 229.856 30.3314 230.262 30.3314ZM224.182 43.6114C225.675 43.6114 226.848 43.1207 227.702 42.1394C228.555 41.1367 228.982 39.7607 228.982 38.0114C228.982 36.2834 228.555 34.9287 227.702 33.9474C226.87 32.9447 225.696 32.4434 224.182 32.4434C222.667 32.4434 221.472 32.9447 220.598 33.9474C219.744 34.9287 219.318 36.2834 219.318 38.0114C219.318 39.7607 219.744 41.1367 220.598 42.1394C221.472 43.1207 222.667 43.6114 224.182 43.6114ZM244.084 30.3314C244.98 30.2674 245.428 30.63 245.428 31.4194C245.428 31.7607 245.332 32.038 245.14 32.2514C244.948 32.4434 244.617 32.5607 244.148 32.6034L243.188 32.6994C241.758 32.8274 240.692 33.3394 239.988 34.2354C239.305 35.11 238.964 36.1447 238.964 37.3394V45.1154C238.964 45.542 238.846 45.862 238.612 46.0754C238.377 46.2887 238.068 46.3954 237.684 46.3954C237.3 46.3954 236.98 46.2887 236.724 46.0754C236.489 45.8407 236.372 45.5207 236.372 45.1154V31.6114C236.372 31.206 236.5 30.8967 236.756 30.6834C237.012 30.4487 237.321 30.3314 237.684 30.3314C238.025 30.3314 238.313 30.4487 238.548 30.6834C238.782 30.8967 238.9 31.1954 238.9 31.5794V33.3714C239.348 32.4327 239.977 31.718 240.788 31.2274C241.62 30.7367 242.569 30.4487 243.636 30.3634L244.084 30.3314ZM259.405 42.6194C259.639 42.6194 259.842 42.7154 260.013 42.9074C260.183 43.0994 260.269 43.3447 260.269 43.6434C260.269 44.1767 259.895 44.6674 259.149 45.1154C258.381 45.5634 257.57 45.9047 256.717 46.1394C255.863 46.3527 255.031 46.4594 254.221 46.4594C251.81 46.4594 249.901 45.7447 248.493 44.3154C247.106 42.886 246.413 40.9127 246.413 38.3954C246.413 36.7954 246.722 35.3874 247.341 34.1714C247.959 32.934 248.823 31.974 249.933 31.2914C251.063 30.6087 252.343 30.2674 253.773 30.2674C255.799 30.2674 257.41 30.9287 258.605 32.2514C259.799 33.574 260.397 35.366 260.397 37.6274C260.397 38.054 260.311 38.3634 260.141 38.5554C259.97 38.7474 259.693 38.8434 259.309 38.8434H249.005C249.197 42.5127 250.935 44.3474 254.221 44.3474C255.053 44.3474 255.767 44.2407 256.365 44.0274C256.962 43.7927 257.602 43.4834 258.285 43.0994C258.839 42.7794 259.213 42.6194 259.405 42.6194ZM253.805 32.2834C252.439 32.2834 251.341 32.71 250.509 33.5634C249.698 34.4167 249.218 35.622 249.069 37.1794H258.125C258.082 35.6007 257.687 34.3954 256.941 33.5634C256.194 32.71 255.149 32.2834 253.805 32.2834ZM269.464 46.4594C268.482 46.4594 267.544 46.342 266.648 46.1074C265.773 45.8727 264.994 45.542 264.312 45.1154C263.928 44.8594 263.65 44.6247 263.48 44.4114C263.33 44.1767 263.256 43.8994 263.256 43.5794C263.256 43.302 263.33 43.078 263.48 42.9074C263.65 42.7154 263.864 42.6194 264.12 42.6194C264.376 42.6194 264.749 42.7794 265.24 43.0994C265.88 43.4834 266.509 43.7927 267.128 44.0274C267.768 44.2407 268.557 44.3474 269.496 44.3474C270.648 44.3474 271.544 44.1447 272.184 43.7394C272.824 43.334 273.144 42.7474 273.144 41.9794C273.144 41.51 273.026 41.1367 272.792 40.8594C272.557 40.5607 272.152 40.3047 271.576 40.0914C271 39.8567 270.157 39.622 269.048 39.3874C267.17 38.982 265.826 38.438 265.016 37.7554C264.205 37.0727 263.8 36.1447 263.8 34.9714C263.8 34.054 264.056 33.2434 264.568 32.5394C265.08 31.8354 265.784 31.2807 266.68 30.8754C267.597 30.47 268.632 30.2674 269.784 30.2674C270.616 30.2674 271.416 30.3847 272.184 30.6194C272.973 30.8327 273.666 31.142 274.264 31.5474C274.989 32.0594 275.352 32.5927 275.352 33.1474C275.352 33.4247 275.266 33.6594 275.096 33.8514C274.925 34.0434 274.722 34.1394 274.488 34.1394C274.232 34.1394 273.848 33.958 273.336 33.5954C272.738 33.2114 272.173 32.9127 271.64 32.6994C271.106 32.486 270.445 32.3794 269.656 32.3794C268.653 32.3794 267.842 32.6034 267.224 33.0514C266.626 33.4994 266.328 34.0967 266.328 34.8434C266.328 35.3127 266.434 35.6967 266.648 35.9954C266.882 36.2727 267.256 36.5287 267.768 36.7634C268.301 36.9767 269.058 37.19 270.04 37.4034C271.49 37.7234 272.61 38.0754 273.4 38.4594C274.21 38.8434 274.786 39.3127 275.128 39.8674C275.469 40.422 275.64 41.126 275.64 41.9794C275.64 43.3234 275.074 44.4114 273.944 45.2434C272.813 46.054 271.32 46.4594 269.464 46.4594ZM286.055 46.4594C284.583 46.4594 283.281 46.1287 282.151 45.4674C281.041 44.806 280.177 43.8674 279.559 42.6514C278.961 41.414 278.663 39.9847 278.663 38.3634C278.663 36.742 278.961 35.3234 279.559 34.1074C280.177 32.87 281.041 31.9207 282.151 31.2594C283.281 30.598 284.583 30.2674 286.055 30.2674C287.527 30.2674 288.828 30.598 289.959 31.2594C291.089 31.9207 291.953 32.87 292.551 34.1074C293.169 35.3234 293.479 36.742 293.479 38.3634C293.479 39.9847 293.169 41.414 292.551 42.6514C291.953 43.8674 291.089 44.806 289.959 45.4674C288.828 46.1287 287.527 46.4594 286.055 46.4594ZM286.055 44.3154C287.591 44.3154 288.764 43.814 289.575 42.8114C290.407 41.7874 290.823 40.3047 290.823 38.3634C290.823 36.4647 290.407 35.0034 289.575 33.9794C288.743 32.934 287.569 32.4114 286.055 32.4114C284.54 32.4114 283.367 32.934 282.535 33.9794C281.703 35.0034 281.287 36.4647 281.287 38.3634C281.287 40.2834 281.692 41.7554 282.503 42.7794C283.335 43.8034 284.519 44.3154 286.055 44.3154Z" fill="black"/>
</g>
<defs>
<filter id="filter0_d" x="109" y="10" width="256" height="66" filterUnits="userSpaceOnUse" color-interpolation-filters="sRGB">
<feFlood flood-opacity="0" result="BackgroundImageFix"/>
<feColorMatrix in="SourceAlpha" type="matrix" values="0 0 0 0 0 0 0 0 0 0 0 0 0 0 0 0 0 0 127 0"/>
<feOffset dx="7" dy="8"/>
<feGaussianBlur stdDeviation="4"/>
<feColorMatrix type="matrix" values="0 0 0 0 0 0 0 0 0 0 0 0 0 0 0 0 0 0 0.25 0"/>
<feBlend mode="normal" in2="BackgroundImageFix" result="effect1_dropShadow"/>
<feBlend mode="normal" in="SourceGraphic" in2="effect1_dropShadow" result="shape"/>
</filter>
</defs>
</svg>
