<svg width="350" height="70" viewBox="0 0 350 70" fill="none" xmlns="http://www.w3.org/2000/svg">
<g clip-path="url(#clip0)">
<g clip-path="url(#clip1)">
<path d="M9.3241 52.5322H20.7264V54.7143H9.3241V52.5322Z" fill="white"/>
<path d="M1.36719 1.36719H68.6328V47.4852H1.36719V1.36719Z" fill="#26A69A"/>
<path d="M67.2656 2.73438V46.118H2.73438V2.73438H67.2656ZM70 0H0V48.8523H70V0Z" fill="#5D4037"/>
<path d="M8.79392 62.053C5.23376 49.8358 5.23376 24.7835 5.23376 24.7835L51.1713 24.603C51.1713 24.603 51.1713 47.2929 48.5025 61.8944L8.79392 62.053Z" fill="#6D4C41"/>
<path d="M28.2025 46.7856C40.8878 46.7856 51.1713 37.1143 51.1713 25.1841C51.1713 13.2539 40.8878 3.58252 28.2025 3.58252C15.5172 3.58252 5.23376 13.2539 5.23376 25.1841C5.23376 37.1143 15.5172 46.7856 28.2025 46.7856Z" fill="#6D4C41"/>
<path d="M4.375 64.5483V70.0006H52.0297V64.5483C52.0297 56.2522 40.332 52.0413 28.3828 52.0577C16.5102 52.0686 4.375 55.76 4.375 64.5483Z" fill="#546E7A"/>
<path d="M28.1752 49.3169H23.2096V54.5614C23.2096 56.9349 25.233 58.8599 27.7268 58.8599H28.6291C31.1229 58.8599 33.1463 56.9349 33.1463 54.5614V49.3169H28.1752Z" fill="#E49500"/>
<path d="M28.1423 7.38916C14.8259 7.38916 11.3423 17.7087 11.3423 32.2118C11.3423 46.7095 21.6728 51.1337 28.1423 51.1337C34.6118 51.1337 44.9423 46.7095 44.9423 32.2118C44.9423 17.7087 41.4587 7.38916 28.1423 7.38916Z" fill="#FBC11B"/>
<path d="M33.25 42.6841H28.2023H23.1547C22.575 42.6841 22.3289 43.0724 22.7117 43.6575C23.2477 44.4724 25.2328 46.0419 28.2023 46.0419C31.1719 46.0419 33.157 44.4724 33.693 43.6575C34.0758 43.0724 33.8297 42.6841 33.25 42.6841Z" fill="#444444"/>
<path d="M22.4601 33.1743C22.4601 34.7274 21.4211 35.9907 20.1304 35.9907C18.8453 35.9907 17.7953 34.7329 17.7953 33.1743C17.7953 31.6157 18.8398 30.3579 20.1304 30.3579C21.4211 30.3579 22.4601 31.6157 22.4601 33.1743Z" fill="#444444"/>
<path d="M33.9446 33.1743C33.9446 34.7274 34.9836 35.9907 36.2797 35.9907C37.5649 35.9907 38.6094 34.7329 38.6094 33.1743C38.6094 31.6157 37.5649 30.3579 36.2797 30.3579C34.9836 30.3579 33.9446 31.6157 33.9446 33.1743Z" fill="#444444"/>
<path d="M30.6142 38.3899C29.7556 38.6305 28.8642 38.7508 28.1751 38.7508C27.4861 38.7508 26.5947 38.6305 25.7361 38.3899C25.3697 38.286 25.222 38.636 25.3587 38.8657C25.6322 39.3469 26.7259 40.3094 28.1751 40.3094C29.6243 40.3094 30.7181 39.3415 30.9915 38.8657C31.1228 38.636 30.9806 38.286 30.6142 38.3899Z" fill="#E49500"/>
<path d="M33.1624 18.7911C31.396 20.4919 22.6132 28.4052 10.5109 30.4669V14.2466C10.5109 14.2466 15.7335 3.8833 28.2679 3.8833C40.8023 3.8833 46.0249 14.5091 46.0249 14.5091V30.4724C46.0249 30.4724 37.8109 27.3224 33.6874 18.895C33.6664 18.8468 33.634 18.8045 33.593 18.7716C33.552 18.7386 33.5037 18.7161 33.4521 18.7059C33.4005 18.6957 33.3472 18.6981 33.2968 18.7129C33.2464 18.7278 33.2003 18.7546 33.1624 18.7911Z" fill="#6D4C41"/>
<path d="M24.4945 57.5371H31.9593L28.1422 73.5824L24.4945 57.5371Z" fill="#455A64"/>
<path d="M17.1993 62.612L21.4704 59.2323L16.379 57.2089L23.1493 51.855L28.1423 73.5823L17.1993 62.612Z" fill="#E0E0E0"/>
<path d="M34.9016 59.1667L39.2602 62.612L28.1422 73.5823L33.3102 51.855L40.0805 57.2089L34.9016 59.1667Z" fill="#E0E0E0"/>
<path d="M22.1815 27.9844H15.701C15.5151 27.9844 15.3292 28.0008 15.1487 28.0227C15.5752 28.0938 15.9417 28.3234 16.1823 28.6406H22.176C24.0627 28.6406 25.5995 30.0625 25.5995 31.8125V34.9242C25.5995 36.6742 24.0627 38.0961 22.176 38.0961H15.701C13.8143 38.0961 12.2776 36.6742 12.2776 34.9242V32.25H11.7963C11.7198 32.25 11.6432 32.2391 11.5667 32.2281V34.9242C11.5667 37.0352 13.4206 38.7523 15.6956 38.7523H22.176C24.451 38.7523 26.3049 37.0352 26.3049 34.9242V31.8125C26.3104 29.7016 24.4565 27.9844 22.1815 27.9844Z" fill="#231F20" stroke="#231F20" stroke-width="0.060125" stroke-miterlimit="10"/>
<path d="M15.1485 28.0225C15.0501 28.0061 14.9516 27.9951 14.8532 27.9951H11.7962C10.8993 27.9951 10.161 28.6732 10.161 29.51V30.7404C10.161 31.5006 10.7735 32.1295 11.5665 32.2334V31.8178C11.5665 29.8764 13.1305 28.274 15.1485 28.0225Z" fill="black"/>
<path d="M12.2775 32.2503V31.8128C12.2775 30.0628 13.8142 28.6409 15.7009 28.6409H16.1876C15.947 28.3237 15.5806 28.094 15.1541 28.0229C13.1361 28.2745 11.572 29.8769 11.572 31.8128V32.2284C11.6486 32.2394 11.7197 32.2503 11.8017 32.2503H12.2775Z" fill="black" stroke="black" stroke-width="0.060125" stroke-miterlimit="10"/>
<path d="M34.0159 27.9844H40.4963C40.6823 27.9844 40.8682 28.0008 41.0487 28.0227C40.6221 28.0938 40.2557 28.3234 40.0151 28.6406H34.0159C32.1291 28.6406 30.5924 30.0625 30.5924 31.8125V34.9242C30.5924 36.6742 32.1291 38.0961 34.0159 38.0961H40.4963C42.3831 38.0961 43.9198 36.6742 43.9198 34.9242V32.25H44.401C44.4776 32.25 44.5541 32.2391 44.6307 32.2281V34.9242C44.6307 37.0352 42.7768 38.7523 40.5018 38.7523H34.0159C31.7409 38.7523 29.887 37.0352 29.887 34.9242V31.8125C29.887 29.7016 31.7354 27.9844 34.0159 27.9844Z" fill="#231F20" stroke="#231F20" stroke-width="0.060125" stroke-miterlimit="10"/>
<path d="M41.0487 28.0225C41.1471 28.0061 41.2456 27.9951 41.344 27.9951H44.4011C45.2979 27.9951 46.0362 28.6732 46.0362 29.51V30.7404C46.0362 31.5006 45.4237 32.1295 44.6307 32.2334V31.8178C44.6253 29.8764 43.0667 28.274 41.0487 28.0225Z" fill="black"/>
<path d="M43.9197 32.2503V31.8128C43.9197 30.0628 42.383 28.6409 40.4962 28.6409H40.0095C40.2501 28.3237 40.6166 28.094 41.0431 28.0229C43.0611 28.2745 44.6251 29.8769 44.6251 31.8128V32.2284C44.5486 32.2394 44.4775 32.2503 44.3955 32.2503H43.9197Z" fill="black" stroke="black" stroke-width="0.060125" stroke-miterlimit="10"/>
<path d="M30.2806 32.2505H25.8181L25.2166 29.3794H30.9369L30.2806 32.2505Z" fill="#231F20"/>
<path d="M58.9532 63.5201L57.1704 63.1756L65.0181 26.0811H65.7017L58.9532 63.5201Z" fill="#EF4136"/>
<path d="M56.6508 59.3646C57.4055 59.5506 57.8922 60.0865 58.2368 60.7537C59.079 60.6005 60.5391 60.4474 60.9602 60.4584C61.4579 60.4748 62.125 60.5295 62.2344 61.5576C62.3055 62.2248 62.054 62.7771 61.1954 62.8537C60.8782 62.881 60.5446 62.9029 60.2219 62.9193L60.3368 63.2912C60.6321 63.2857 60.9055 63.2802 61.1079 63.2748C61.9774 63.2638 62.4641 63.7232 62.4641 64.642C62.4641 65.4459 61.7696 65.8232 61.2665 65.856C60.9985 65.8724 60.2493 65.8287 59.511 65.7631L59.4344 65.9216L59.4016 65.9709C59.8665 66.042 60.3149 66.1185 60.6266 66.1732C61.4743 66.3209 61.8735 66.8841 61.7805 67.5513C61.6657 68.3607 60.9383 68.5849 60.4407 68.5685C60.0688 68.5576 58.7508 68.3552 57.8704 68.1638L57.7008 68.4099C57.761 68.4209 57.8266 68.4318 57.8977 68.4427C57.9086 68.4427 57.9196 68.4482 57.9305 68.4482C57.9907 68.4592 58.0508 68.4646 58.111 68.4756C58.1219 68.4756 58.1383 68.481 58.1493 68.481L58.3625 68.5138H58.3735C58.45 68.5248 58.5266 68.5412 58.5977 68.5521C58.6141 68.5521 58.625 68.5576 58.6415 68.5576L58.8165 68.5904C58.8383 68.5959 58.8657 68.6013 58.8875 68.6013C58.9368 68.6123 58.986 68.6177 59.0352 68.6287L59.1118 68.6451C59.161 68.656 59.2102 68.6615 59.254 68.6724C59.2758 68.6779 59.2977 68.6834 59.325 68.6834C59.3907 68.6943 59.4618 68.7107 59.5274 68.7217C60.2985 68.8802 60.5938 69.2357 60.5008 69.8482C60.3696 70.7068 59.5 70.8982 59.0461 70.8545C58.5868 70.8107 57.0391 70.4935 56.5305 70.2748C56.4977 70.2584 56.4649 70.242 56.4375 70.2256L56.2625 70.4826C53.9875 70.3295 52.3524 69.3834 52.3524 69.3834C51.018 68.6342 50.7938 68.0545 50.5696 67.1412C50.318 66.1021 50.3782 64.8662 50.3891 64.6693C50.4711 62.5966 50.9305 61.2568 52.604 60.1412C53.0086 59.8732 53.5993 59.4029 54.9118 59.2498C55.4204 59.2005 56.1477 59.2388 56.6508 59.3646Z" fill="#FBC11B"/>
<path d="M58.5486 62.8044C58.5486 62.8044 58.5705 61.7599 58.2369 60.7536L58.6033 60.688C58.6033 60.688 58.8604 61.4044 58.9533 62.4708C58.9697 62.6458 58.9752 62.7989 58.9752 62.9521L59.2979 62.9302L61.469 62.8099C61.469 62.8099 61.3049 62.8427 61.3049 63.0833C61.3049 63.1817 61.3651 63.2528 61.4143 63.2911C61.3213 63.2802 61.2229 63.2747 61.119 63.2747L58.9643 63.3294C58.9588 63.3896 58.9588 63.4497 58.9533 63.5153C58.9041 64.3958 58.6963 65.2435 58.2041 65.5661C59.8338 65.7575 61.2776 65.856 61.2776 65.856C60.9932 65.9708 61.1135 66.3153 61.1135 66.3153C60.0197 66.0146 57.3565 65.8614 57.3565 65.8614C56.2354 65.763 56.0822 66.5231 56.0822 66.5231C55.8744 67.4364 56.8752 67.8575 56.8752 67.8575C57.0065 67.9341 58.1986 68.1692 59.0408 68.3333L59.8885 68.4919L60.1291 68.5356C60.1018 68.5302 60.0033 68.5247 59.965 68.6942C59.9486 68.7763 59.965 68.831 59.9815 68.8692C59.8557 68.8145 59.7025 68.7653 59.5275 68.727C59.1283 68.645 57.9197 68.4481 57.8268 68.4317L57.526 68.388C56.5252 68.2567 56.2791 68.4372 56.2791 68.4372C55.7213 68.7325 55.8799 69.438 55.8799 69.438C56.0002 70.1161 56.7549 70.3349 56.7549 70.3349C57.0447 70.4224 58.5705 70.7888 58.5705 70.7888L56.2572 70.488C56.0932 70.4333 56.033 70.3622 55.9455 70.2911C55.1307 69.6239 55.4752 68.7161 55.4752 68.7161C55.601 68.3661 55.8635 68.213 55.8635 68.213C56.0221 68.1146 56.2025 68.0653 56.3885 68.0435C55.4424 67.5403 55.5955 66.5341 55.5955 66.5341C55.7158 65.9106 56.1643 65.6481 56.5252 65.5388C56.4924 65.5114 56.4596 65.4896 56.4268 65.4567C56.4268 65.4567 55.8197 65.0575 56.044 63.3403C56.1205 62.7661 56.1096 62.6841 56.0494 62.3231C56.0494 62.3231 55.8307 61.5466 55.1854 61.7927C55.1854 61.7927 54.9666 61.8474 54.6275 62.1153C54.6275 62.1153 54.3541 62.3286 54.3596 61.995C54.3596 61.8966 54.4307 61.7161 54.5674 61.5521C54.5674 61.5521 54.7096 61.3825 55.0541 61.2895C55.0541 61.2895 55.9565 60.9286 56.4104 61.8364C56.6455 62.3122 56.6018 62.6294 56.5307 63.1106C56.5307 63.1106 56.3885 64.6419 56.7932 65.1341C56.7932 65.1341 57.1869 65.588 57.8213 65.3091C57.8158 65.3036 58.6744 64.8333 58.5486 62.8044Z" fill="#E49500"/>
</g>
<g filter="url(#filter0_d)">
<path d="M110 35C110 21.1929 121.193 10 135 10H325C338.807 10 350 21.1929 350 35C350 48.8071 338.807 60 325 60H230H135C121.193 60 110 48.8071 110 35Z" fill="#FCE3AF"/>
<path d="M145.3 44.6034C145.449 44.838 145.524 45.0834 145.524 45.3394C145.524 45.6594 145.396 45.926 145.14 46.1394C144.905 46.3314 144.628 46.4274 144.308 46.4274C143.817 46.4274 143.433 46.214 143.156 45.7874L138.868 39.0034C138.313 38.1287 137.737 37.5314 137.14 37.2114C136.543 36.87 135.732 36.6994 134.708 36.6994H130.676V45.0514C130.676 45.4567 130.559 45.7874 130.324 46.0434C130.089 46.278 129.78 46.3954 129.396 46.3954C128.991 46.3954 128.671 46.278 128.436 46.0434C128.201 45.7874 128.084 45.4567 128.084 45.0514V24.9554C128.084 24.5714 128.201 24.262 128.436 24.0274C128.692 23.7927 129.023 23.6754 129.428 23.6754H137.364C139.817 23.6754 141.684 24.2194 142.964 25.3074C144.265 26.3954 144.916 27.9954 144.916 30.1074C144.916 31.8994 144.393 33.3394 143.348 34.4274C142.324 35.5154 140.852 36.1767 138.932 36.4114C139.465 36.582 139.945 36.8594 140.372 37.2434C140.799 37.6274 141.225 38.1607 141.652 38.8434L145.3 44.6034ZM137.14 34.5234C138.889 34.5234 140.191 34.1607 141.044 33.4354C141.919 32.71 142.356 31.6114 142.356 30.1394C142.356 28.6887 141.929 27.6114 141.076 26.9074C140.223 26.2034 138.911 25.8514 137.14 25.8514H130.676V34.5234H137.14ZM161.701 42.6194C161.936 42.6194 162.139 42.7154 162.309 42.9074C162.48 43.0994 162.565 43.3447 162.565 43.6434C162.565 44.1767 162.192 44.6674 161.445 45.1154C160.677 45.5634 159.867 45.9047 159.013 46.1394C158.16 46.3527 157.328 46.4594 156.517 46.4594C154.107 46.4594 152.197 45.7447 150.789 44.3154C149.403 42.886 148.709 40.9127 148.709 38.3954C148.709 36.7954 149.019 35.3874 149.637 34.1714C150.256 32.934 151.12 31.974 152.229 31.2914C153.36 30.6087 154.64 30.2674 156.069 30.2674C158.096 30.2674 159.707 30.9287 160.901 32.2514C162.096 33.574 162.693 35.366 162.693 37.6274C162.693 38.054 162.608 38.3634 162.437 38.5554C162.267 38.7474 161.989 38.8434 161.605 38.8434H151.301C151.493 42.5127 153.232 44.3474 156.517 44.3474C157.349 44.3474 158.064 44.2407 158.661 44.0274C159.259 43.7927 159.899 43.4834 160.581 43.0994C161.136 42.7794 161.509 42.6194 161.701 42.6194ZM156.101 32.2834C154.736 32.2834 153.637 32.71 152.805 33.5634C151.995 34.4167 151.515 35.622 151.365 37.1794H160.421C160.379 35.6007 159.984 34.3954 159.237 33.5634C158.491 32.71 157.445 32.2834 156.101 32.2834ZM173.361 25.7234C172.231 25.8087 171.377 26.1714 170.801 26.8113C170.225 27.43 169.937 28.3687 169.937 29.6273V30.6514H173.489C173.852 30.6514 174.129 30.7474 174.321 30.9394C174.513 31.1314 174.609 31.3874 174.609 31.7074C174.609 32.0274 174.513 32.2727 174.321 32.4434C174.129 32.614 173.852 32.6994 173.489 32.6994H169.937V45.1154C169.937 45.5207 169.809 45.8407 169.553 46.0754C169.319 46.2887 169.02 46.3954 168.657 46.3954C168.273 46.3954 167.953 46.2887 167.697 46.0754C167.463 45.8407 167.345 45.5207 167.345 45.1154V32.6994H165.201C164.839 32.6994 164.551 32.614 164.337 32.4434C164.145 32.2514 164.049 32.006 164.049 31.7074C164.049 31.3874 164.145 31.1314 164.337 30.9394C164.551 30.7474 164.839 30.6514 165.201 30.6514H167.345V30.0754C167.345 28.1554 167.825 26.6514 168.785 25.5634C169.745 24.454 171.121 23.8354 172.913 23.7073L173.745 23.6434C174.3 23.6007 174.695 23.654 174.929 23.8034C175.185 23.9527 175.313 24.2194 175.313 24.6033C175.313 25.222 174.94 25.574 174.193 25.6594L173.361 25.7234ZM183.289 46.4594C181.817 46.4594 180.516 46.1287 179.385 45.4674C178.276 44.806 177.412 43.8674 176.793 42.6514C176.196 41.414 175.897 39.9847 175.897 38.3634C175.897 36.742 176.196 35.3234 176.793 34.1074C177.412 32.87 178.276 31.9207 179.385 31.2594C180.516 30.598 181.817 30.2674 183.289 30.2674C184.761 30.2674 186.062 30.598 187.193 31.2594C188.324 31.9207 189.188 32.87 189.785 34.1074C190.404 35.3234 190.713 36.742 190.713 38.3634C190.713 39.9847 190.404 41.414 189.785 42.6514C189.188 43.8674 188.324 44.806 187.193 45.4674C186.062 46.1287 184.761 46.4594 183.289 46.4594ZM183.289 44.3154C184.825 44.3154 185.998 43.814 186.809 42.8114C187.641 41.7874 188.057 40.3047 188.057 38.3634C188.057 36.4647 187.641 35.0034 186.809 33.9794C185.977 32.934 184.804 32.4114 183.289 32.4114C181.774 32.4114 180.601 32.934 179.769 33.9794C178.937 35.0034 178.521 36.4647 178.521 38.3634C178.521 40.2834 178.926 41.7554 179.737 42.7794C180.569 43.8034 181.753 44.3154 183.289 44.3154ZM202.287 30.3314C203.183 30.2674 203.631 30.63 203.631 31.4194C203.631 31.7607 203.535 32.038 203.343 32.2514C203.151 32.4434 202.82 32.5607 202.351 32.6034L201.391 32.6994C199.962 32.8274 198.895 33.3394 198.191 34.2354C197.508 35.11 197.167 36.1447 197.167 37.3394V45.1154C197.167 45.542 197.05 45.862 196.815 46.0754C196.58 46.2887 196.271 46.3954 195.887 46.3954C195.503 46.3954 195.183 46.2887 194.927 46.0754C194.692 45.8407 194.575 45.5207 194.575 45.1154V31.6114C194.575 31.206 194.703 30.8967 194.959 30.6834C195.215 30.4487 195.524 30.3314 195.887 30.3314C196.228 30.3314 196.516 30.4487 196.751 30.6834C196.986 30.8967 197.103 31.1954 197.103 31.5794V33.3714C197.551 32.4327 198.18 31.718 198.991 31.2274C199.823 30.7367 200.772 30.4487 201.839 30.3634L202.287 30.3314ZM217.406 44.1874C217.769 44.1874 218.046 44.2834 218.238 44.4754C218.43 44.646 218.526 44.8914 218.526 45.2114C218.526 45.5314 218.43 45.7874 218.238 45.9794C218.046 46.15 217.769 46.2354 217.406 46.2354H206.206C205.843 46.2354 205.545 46.1287 205.31 45.9154C205.075 45.6807 204.958 45.4034 204.958 45.0834C204.958 44.742 205.086 44.4114 205.342 44.0914L214.814 32.6994H206.046C205.683 32.6994 205.395 32.614 205.182 32.4434C204.99 32.2514 204.894 32.006 204.894 31.7074C204.894 31.3874 204.99 31.1314 205.182 30.9394C205.395 30.7474 205.683 30.6514 206.046 30.6514H216.894C217.278 30.6514 217.587 30.7687 217.822 31.0034C218.057 31.2167 218.174 31.4834 218.174 31.8034C218.174 32.1447 218.046 32.4754 217.79 32.7954L208.286 44.1874H217.406ZM228.255 30.2674C232.159 30.2674 234.111 32.3154 234.111 36.4114V45.1154C234.111 45.4994 233.994 45.8087 233.759 46.0434C233.546 46.278 233.247 46.3954 232.863 46.3954C232.479 46.3954 232.17 46.278 231.935 46.0434C231.701 45.8087 231.583 45.4994 231.583 45.1154V43.5794C231.178 44.4967 230.559 45.2114 229.727 45.7234C228.895 46.214 227.935 46.4594 226.847 46.4594C225.845 46.4594 224.917 46.2567 224.063 45.8514C223.231 45.446 222.57 44.8807 222.079 44.1554C221.589 43.43 221.343 42.63 221.343 41.7554C221.343 40.582 221.642 39.6754 222.239 39.0354C222.837 38.374 223.818 37.9047 225.183 37.6274C226.549 37.3287 228.447 37.1794 230.879 37.1794H231.583V36.1234C231.583 34.8434 231.317 33.9047 230.783 33.3074C230.271 32.71 229.429 32.4114 228.255 32.4114C226.805 32.4114 225.333 32.806 223.839 33.5954C223.263 33.958 222.858 34.1394 222.623 34.1394C222.367 34.1394 222.154 34.0434 221.983 33.8514C221.813 33.6594 221.727 33.414 221.727 33.1154C221.727 32.8167 221.813 32.5607 221.983 32.3474C222.175 32.1127 222.474 31.878 222.879 31.6434C223.626 31.2167 224.469 30.886 225.407 30.6514C226.367 30.3954 227.317 30.2674 228.255 30.2674ZM227.199 44.4114C228.479 44.4114 229.525 43.9847 230.335 43.1314C231.167 42.2567 231.583 41.1367 231.583 39.7714V38.8434H231.007C229.13 38.8434 227.701 38.9287 226.719 39.0994C225.738 39.2487 225.034 39.5154 224.607 39.8994C224.202 40.262 223.999 40.806 223.999 41.5314C223.999 42.3634 224.298 43.0567 224.895 43.6114C225.514 44.1447 226.282 44.4114 227.199 44.4114ZM256.2 30.2674C259.656 30.2674 261.384 32.326 261.384 36.4434V45.1154C261.384 45.5207 261.267 45.8407 261.032 46.0754C260.798 46.2887 260.488 46.3954 260.104 46.3954C259.72 46.3954 259.4 46.2887 259.144 46.0754C258.91 45.8407 258.792 45.5207 258.792 45.1154V36.5074C258.792 35.078 258.536 34.0434 258.024 33.4034C257.512 32.7634 256.712 32.4434 255.624 32.4434C254.323 32.4434 253.299 32.8807 252.552 33.7554C251.806 34.63 251.432 35.814 251.432 37.3074V45.1154C251.432 45.5207 251.304 45.8407 251.048 46.0754C250.814 46.2887 250.504 46.3954 250.12 46.3954C249.736 46.3954 249.427 46.2887 249.192 46.0754C248.958 45.8407 248.84 45.5207 248.84 45.1154V36.5074C248.84 35.078 248.584 34.0434 248.072 33.4034C247.56 32.7634 246.75 32.4434 245.64 32.4434C244.36 32.4434 243.336 32.8807 242.568 33.7554C241.822 34.63 241.448 35.814 241.448 37.3074V45.1154C241.448 45.5207 241.331 45.8407 241.096 46.0754C240.862 46.2887 240.552 46.3954 240.168 46.3954C239.784 46.3954 239.464 46.2887 239.208 46.0754C238.974 45.8407 238.856 45.5207 238.856 45.1154V31.6114C238.856 31.2274 238.974 30.918 239.208 30.6834C239.464 30.4487 239.784 30.3314 240.168 30.3314C240.531 30.3314 240.83 30.4487 241.064 30.6834C241.299 30.8967 241.416 31.1954 241.416 31.5794V33.1154C241.886 32.198 242.536 31.494 243.368 31.0034C244.2 30.5127 245.16 30.2674 246.248 30.2674C248.68 30.2674 250.27 31.2914 251.016 33.3394C251.464 32.4007 252.147 31.654 253.064 31.0994C253.982 30.5447 255.027 30.2674 256.2 30.2674ZM267.418 46.3954C267.034 46.3954 266.714 46.2887 266.458 46.0754C266.224 45.8407 266.106 45.5207 266.106 45.1154V31.6114C266.106 31.206 266.224 30.8967 266.458 30.6834C266.714 30.4487 267.034 30.3314 267.418 30.3314C267.802 30.3314 268.112 30.4487 268.346 30.6834C268.581 30.8967 268.698 31.206 268.698 31.6114V45.1154C268.698 45.542 268.581 45.862 268.346 46.0754C268.112 46.2887 267.802 46.3954 267.418 46.3954ZM267.418 26.9713C266.906 26.9713 266.49 26.822 266.17 26.5233C265.85 26.2247 265.69 25.83 265.69 25.3393C265.69 24.87 265.85 24.486 266.17 24.1874C266.49 23.8887 266.906 23.7394 267.418 23.7394C267.93 23.7394 268.346 23.8887 268.666 24.1874C268.986 24.486 269.146 24.87 269.146 25.3393C269.146 25.83 268.986 26.2247 268.666 26.5233C268.346 26.822 267.93 26.9713 267.418 26.9713ZM285.608 42.6194C285.842 42.6194 286.045 42.7154 286.216 42.9074C286.386 43.0994 286.472 43.3447 286.472 43.6434C286.472 44.1767 286.098 44.6674 285.352 45.1154C284.584 45.5634 283.773 45.9047 282.92 46.1394C282.066 46.3527 281.234 46.4594 280.424 46.4594C278.013 46.4594 276.104 45.7447 274.696 44.3154C273.309 42.886 272.616 40.9127 272.616 38.3954C272.616 36.7954 272.925 35.3874 273.544 34.1714C274.162 32.934 275.026 31.974 276.136 31.2914C277.266 30.6087 278.546 30.2674 279.976 30.2674C282.002 30.2674 283.613 30.9287 284.808 32.2514C286.002 33.574 286.6 35.366 286.6 37.6274C286.6 38.054 286.514 38.3634 286.344 38.5554C286.173 38.7474 285.896 38.8434 285.512 38.8434H275.208C275.4 42.5127 277.138 44.3474 280.424 44.3474C281.256 44.3474 281.97 44.2407 282.568 44.0274C283.165 43.7927 283.805 43.4834 284.488 43.0994C285.042 42.7794 285.416 42.6194 285.608 42.6194ZM280.008 32.2834C278.642 32.2834 277.544 32.71 276.712 33.5634C275.901 34.4167 275.421 35.622 275.272 37.1794H284.328C284.285 35.6007 283.89 34.3954 283.144 33.5634C282.397 32.71 281.352 32.2834 280.008 32.2834ZM298.259 30.2674C301.992 30.2674 303.859 32.326 303.859 36.4434V45.1154C303.859 45.5207 303.741 45.8407 303.507 46.0754C303.293 46.2887 302.984 46.3954 302.579 46.3954C302.173 46.3954 301.853 46.2887 301.619 46.0754C301.384 45.8407 301.267 45.5207 301.267 45.1154V36.6034C301.267 35.1527 300.979 34.0967 300.403 33.4354C299.848 32.774 298.952 32.4434 297.715 32.4434C296.285 32.4434 295.144 32.8807 294.291 33.7554C293.437 34.63 293.011 35.814 293.011 37.3074V45.1154C293.011 45.5207 292.893 45.8407 292.659 46.0754C292.445 46.2887 292.136 46.3954 291.731 46.3954C291.325 46.3954 291.005 46.2887 290.771 46.0754C290.536 45.8407 290.419 45.5207 290.419 45.1154V31.6114C290.419 31.2274 290.536 30.918 290.771 30.6834C291.005 30.4487 291.325 30.3314 291.731 30.3314C292.115 30.3314 292.413 30.4487 292.627 30.6834C292.861 30.918 292.979 31.2167 292.979 31.5794V33.2114C293.491 32.2514 294.205 31.526 295.123 31.0354C296.04 30.5234 297.085 30.2674 298.259 30.2674ZM315.806 44.3474C316.553 44.4114 316.926 44.7527 316.926 45.3714C316.926 45.734 316.788 46.0114 316.51 46.2034C316.254 46.374 315.86 46.438 315.326 46.3954L314.462 46.3314C312.756 46.2034 311.497 45.6914 310.686 44.7954C309.876 43.8994 309.47 42.5447 309.47 40.7314V32.6994H307.326C306.964 32.6994 306.676 32.614 306.462 32.4434C306.27 32.2514 306.174 32.006 306.174 31.7074C306.174 31.3874 306.27 31.1314 306.462 30.9394C306.676 30.7474 306.964 30.6514 307.326 30.6514H309.47V27.0354C309.47 26.63 309.588 26.3207 309.822 26.1074C310.057 25.8727 310.377 25.7554 310.782 25.7554C311.166 25.7554 311.476 25.8727 311.71 26.1074C311.945 26.3207 312.062 26.63 312.062 27.0354V30.6514H315.614C315.956 30.6514 316.222 30.7474 316.414 30.9394C316.628 31.1314 316.734 31.3874 316.734 31.7074C316.734 32.006 316.628 32.2514 316.414 32.4434C316.222 32.614 315.956 32.6994 315.614 32.6994H312.062V40.8594C312.062 42.0327 312.297 42.886 312.766 43.4194C313.257 43.9314 313.982 44.2194 314.942 44.2834L315.806 44.3474ZM325.945 46.4594C324.473 46.4594 323.172 46.1287 322.041 45.4674C320.932 44.806 320.068 43.8674 319.449 42.6514C318.852 41.414 318.553 39.9847 318.553 38.3634C318.553 36.742 318.852 35.3234 319.449 34.1074C320.068 32.87 320.932 31.9207 322.041 31.2594C323.172 30.598 324.473 30.2674 325.945 30.2674C327.417 30.2674 328.719 30.598 329.849 31.2594C330.98 31.9207 331.844 32.87 332.441 34.1074C333.06 35.3234 333.369 36.742 333.369 38.3634C333.369 39.9847 333.06 41.414 332.441 42.6514C331.844 43.8674 330.98 44.806 329.849 45.4674C328.719 46.1287 327.417 46.4594 325.945 46.4594ZM325.945 44.3154C327.481 44.3154 328.655 43.814 329.465 42.8114C330.297 41.7874 330.713 40.3047 330.713 38.3634C330.713 36.4647 330.297 35.0034 329.465 33.9794C328.633 32.934 327.46 32.4114 325.945 32.4114C324.431 32.4114 323.257 32.934 322.425 33.9794C321.593 35.0034 321.177 36.4647 321.177 38.3634C321.177 40.2834 321.583 41.7554 322.393 42.7794C323.225 43.8034 324.409 44.3154 325.945 44.3154Z" fill="black"/>
</g>
</g>
<defs>
<filter id="filter0_d" x="109" y="10" width="256" height="66" filterUnits="userSpaceOnUse" color-interpolation-filters="sRGB">
<feFlood flood-opacity="0" result="BackgroundImageFix"/>
<feColorMatrix in="SourceAlpha" type="matrix" values="0 0 0 0 0 0 0 0 0 0 0 0 0 0 0 0 0 0 127 0"/>
<feOffset dx="7" dy="8"/>
<feGaussianBlur stdDeviation="4"/>
<feColorMatrix type="matrix" values="0 0 0 0 0 0 0 0 0 0 0 0 0 0 0 0 0 0 0.25 0"/>
<feBlend mode="normal" in2="BackgroundImageFix" result="effect1_dropShadow"/>
<feBlend mode="normal" in="SourceGraphic" in2="effect1_dropShadow" result="shape"/>
</filter>
<clipPath id="clip0">
<rect width="350" height="70" fill="white"/>
</clipPath>
<clipPath id="clip1">
<rect width="70" height="70" fill="white"/>
</clipPath>
</defs>
</svg>
