<svg width="350" height="70" viewBox="0 0 350 70" fill="none" xmlns="http://www.w3.org/2000/svg">
<g clip-path="url(#clip0)">
<g clip-path="url(#clip1)">
<path d="M13.7439 21.0293H10.4292C8.43813 21.0293 6.82007 22.6783 6.82007 24.6693V24.6981C6.82007 26.6892 8.438 28.3321 10.4292 28.3321H13.5057L13.7439 21.0293Z" fill="#F7D5AD"/>
<path d="M36.9845 43.7314C40.4917 43.7314 43.3349 46.5746 43.3349 50.0819V67.29L26.9827 68.9746H8.29749C7.92 68.9746 7.61389 68.6685 7.61389 68.291V50.0819C7.61389 46.5746 10.4571 43.7314 13.9643 43.7314H36.9845Z" fill="#FFE07D"/>
<path d="M29.8403 37.9985V43.731C29.8403 46.1384 27.8917 48.0914 25.4843 48.0969C23.0692 48.1023 21.1085 46.146 21.1085 43.731V37.9985H29.8403Z" fill="#F7D5AD"/>
<path d="M38.5721 12.8262V26.7954C38.5721 34.0291 32.7081 39.8931 25.4745 39.8931C18.2408 39.8931 12.3768 34.0291 12.3768 26.7954V12.8262H38.5721Z" fill="#FCE5BE"/>
<path d="M43.3645 13.6254C40.7518 15.8744 36.1443 18.6621 29.4178 18.6621H17.4316C16.6765 18.6621 16.0645 19.2742 16.0645 20.0293V23.8588C16.0645 24.7641 15.3305 25.498 14.4252 25.498H12.3771V21.0287H10.4289C9.95723 21.0287 9.50469 21.1217 9.0918 21.2898V13.8373C9.0918 11.3832 11.092 9.40352 13.5461 9.41035L13.5529 9.41719C14.8818 9.42129 16.1451 8.84434 16.9818 7.81211C18.9725 5.35801 23.8615 1.02539 33.4783 1.02539H34.4531C35.782 1.02539 36.8607 2.06445 36.8785 3.38926C36.8785 4.16992 37.6619 4.70449 38.3893 4.42285V4.42148C40.8721 3.45625 43.6693 4.66074 44.6715 7.12852L44.7521 7.32266C45.5711 9.34199 45.0174 12.2021 43.3645 13.6254Z" fill="#6F6571"/>
<path d="M37.2846 4.24785C36.3262 3.99629 35.2817 4.03457 34.2877 4.42148V4.42285C33.5604 4.70449 32.777 4.16992 32.777 3.38926C32.7619 2.30371 32.0346 1.40957 31.0406 1.12383C31.8172 1.05957 32.6293 1.02539 33.4783 1.02539H34.4532C35.7821 1.02539 36.8608 2.06445 36.8785 3.38926C36.8785 3.74473 37.0399 4.04824 37.2846 4.24785Z" fill="#5D5360"/>
<path d="M43.3644 13.6256C40.7517 15.8746 36.1443 18.6623 29.4177 18.6623H25.3162C32.0427 18.6623 36.6502 15.8746 39.2629 13.6256C40.9158 12.2023 41.4695 9.34216 40.6505 7.32283L40.5699 7.12869C40.0722 5.90232 39.1316 4.98904 38.0064 4.49822C38.1322 4.49685 38.2621 4.47224 38.3892 4.42303V4.42166C40.872 3.45643 43.6693 4.66092 44.6714 7.12869L44.7521 7.32283C45.5711 9.34216 45.0173 12.2023 43.3644 13.6256Z" fill="#5D5360"/>
<path d="M33.333 59.4655C29.8257 59.4655 26.9825 62.3087 26.9825 65.8159V68.2908C26.9825 68.6683 27.2887 68.9744 27.6661 68.9744H62.0199C62.3974 68.9744 62.7035 68.6683 62.7035 68.2908V65.8158C62.7035 62.3085 59.8603 59.4653 56.353 59.4653H33.333V59.4655Z" fill="#FAF2F3"/>
<path d="M62.7035 65.8164V68.291C62.7035 68.6684 62.3972 68.9746 62.0199 68.9746H57.9183C58.2957 68.9746 58.6019 68.6684 58.6019 68.291V65.8164C58.6019 62.3082 55.7595 59.4658 52.2513 59.4658H56.3529C59.8611 59.4658 62.7035 62.3082 62.7035 65.8164Z" fill="#F0E5E0"/>
<path d="M49.209 52.0308V59.4651C49.209 61.8725 47.2603 63.8255 44.853 63.831C42.4379 63.8364 40.4772 61.8801 40.4772 59.4651V52.0308H49.209Z" fill="#BC845E"/>
<path d="M55.2114 36.4287H59.5708C61.5619 36.4287 63.1799 38.0777 63.1799 40.0687V40.0976C63.1799 42.0886 61.562 43.7315 59.5708 43.7315H55.1271L55.2114 36.4287Z" fill="#BC845E"/>
<path d="M36.976 43.7325H29.7978C27.8068 43.7325 26.1887 42.0896 26.1887 40.0985V40.0697C26.1887 38.0787 27.8067 36.4297 29.7978 36.4297H37.2141L36.976 43.7325Z" fill="#BC845E"/>
<path d="M57.9408 29.5928V42.1948C57.9408 49.4285 52.0768 55.2925 44.8431 55.2925C37.6095 55.2925 31.7455 49.4285 31.7455 42.1948V29.5928H57.9408Z" fill="#D19A6E"/>
<path d="M57.9402 28.2256V42.1955C57.9402 49.4293 52.0763 55.2932 44.8425 55.2932C44.1453 55.2932 43.4603 55.2385 42.7917 55.1332C49.0507 54.1488 53.8386 48.732 53.8386 42.1955V28.2256H57.9402Z" fill="#BC845E"/>
<path d="M29.3256 24.8145C29.3256 20.284 32.9982 16.6113 37.5287 16.6113H52.1576C56.6881 16.6113 60.3607 20.284 60.3607 24.8145V29.5996H29.3256V24.8145Z" fill="#FC8D94"/>
<path d="M60.36 24.8145V29.5996H56.2584V24.8145C56.2584 20.2836 52.5862 16.6113 48.0553 16.6113H52.1569C56.6877 16.6113 60.36 20.2836 60.36 24.8145Z" fill="#FC7585"/>
<path d="M52.1917 29.5996V22.0801C52.1917 19.0598 49.7432 16.6113 46.7229 16.6113H42.9631C39.9429 16.6113 37.4944 19.0598 37.4944 22.0801V29.5996H52.1917Z" fill="white"/>
<path d="M60.3599 30.9668V36.5189C60.1056 36.4588 59.8417 36.4287 59.571 36.4287H57.0116C55.2589 36.4287 53.837 35.0068 53.837 33.2541V30.9668H60.3599Z" fill="#6F6571"/>
<path d="M35.8532 30.9668V33.2527C35.8532 35.0068 34.4313 36.4287 32.6772 36.4287H29.7979C29.6325 36.4287 29.4698 36.4396 29.3098 36.4629V30.9668H35.8532Z" fill="#6F6571"/>
<path d="M30.0092 28.2324H59.6771C61.1873 28.2324 62.4115 29.4566 62.4115 30.9668V31.9238C62.4115 32.1504 62.2279 32.334 62.0014 32.334H27.6849C27.4584 32.334 27.2748 32.1504 27.2748 31.9238V30.9668C27.2748 29.4566 28.499 28.2324 30.0092 28.2324Z" fill="#FAF2F3"/>
<path d="M62.4108 30.9668V31.9238C62.4108 32.1508 62.2276 32.334 62.0006 32.334H57.899C58.126 32.334 58.3092 32.1508 58.3092 31.9238V30.9668C58.3106 29.4561 57.0856 28.2324 55.5748 28.2324H59.6764C61.1871 28.2324 62.4121 29.4561 62.4108 30.9668Z" fill="#F0E5E0"/>
<path d="M20.5463 26.5066V24.7603C20.5463 24.1938 20.0873 23.7349 19.5209 23.7349C18.9544 23.7349 18.4955 24.1938 18.4955 24.7603V26.5066C18.4955 27.073 18.9544 27.532 19.5209 27.532C20.0873 27.532 20.5463 27.073 20.5463 26.5066Z" fill="black"/>
<path d="M58.7326 44.7572H59.5707C62.1261 44.7572 64.205 42.6669 64.205 40.0977V40.0688C64.205 38.1445 63.0417 36.4889 61.3859 35.7766V33.3594H62.0011C62.7927 33.3594 63.4366 32.7154 63.4366 31.9238V30.9668C63.4366 29.509 62.602 28.2431 61.3859 27.6196V24.8145C61.3859 19.7258 57.246 15.5859 52.1573 15.5859H42.5252C43.0459 15.2134 43.5497 14.8188 44.0335 14.4022C45.9856 12.7218 46.7184 9.44262 45.6986 6.92945L45.6214 6.74324C44.4165 3.77385 41.0052 2.3033 38.0172 3.46555C37.9345 3.49768 37.9051 3.41605 37.9031 3.35139C37.8659 1.49707 36.3323 0 34.4524 0H33.4784C23.4883 0 18.3557 4.48957 16.1854 7.1657C15.5726 7.92135 14.6573 8.36432 13.6608 8.39098C13.6185 8.38605 13.5757 8.38373 13.5331 8.38441C12.0728 8.38441 10.7003 8.95125 9.66708 9.98184C8.63486 11.0112 8.06638 12.3804 8.06638 13.8369V20.6578C6.70753 21.472 5.7948 22.9649 5.7948 24.6691V24.698C5.7948 27.2672 7.87374 29.3575 10.4292 29.3575H11.5801C12.4555 34.1142 15.7221 38.0438 20.083 39.8498V42.706H13.9642C9.89718 42.706 6.58845 46.0147 6.58845 50.0819C6.58845 50.6483 7.04742 51.1072 7.61384 51.1072C8.18027 51.1072 8.63923 50.6483 8.63923 50.0819C8.63923 47.1455 11.028 44.7568 13.9642 44.7568H20.1806C20.3821 45.8079 20.8918 46.7745 21.6662 47.5471C22.6844 48.563 24.0361 49.122 25.4738 49.122H25.4864C28.1016 49.1159 30.2856 47.235 30.7662 44.7572H30.9535C31.8286 49.5123 35.0931 53.4408 39.4517 55.2476V58.4402H33.333C29.2659 58.4402 25.9571 61.7489 25.9571 65.816V67.9492H8.63923V54.867C8.63923 54.3006 8.18027 53.8416 7.61384 53.8416C7.04742 53.8416 6.58845 54.3006 6.58845 54.867V68.291C6.58845 69.2334 7.35503 70 8.29744 70H53.1199C53.6863 70 54.1452 69.541 54.1452 68.9746C54.1452 68.4082 53.6863 67.9492 53.1199 67.9492H28.0079V65.816C28.0079 62.8797 30.3968 60.4909 33.333 60.4909H39.5493C39.7507 61.5423 40.2605 62.5092 41.035 63.2821C42.0532 64.298 43.4049 64.8569 44.8428 64.8569H44.8553C47.4708 64.8509 49.6551 62.9692 50.1351 60.4909H56.3531C59.2894 60.4909 61.678 62.8798 61.678 65.816V67.9492H57.9049C57.3384 67.9492 56.8795 68.4082 56.8795 68.9746C56.8795 69.541 57.3384 70 57.9049 70H62.0198C62.9622 70 63.7288 69.2334 63.7288 68.291V65.816C63.7288 61.7489 60.4201 58.4402 56.3531 58.4402H50.2343V55.2476C54.593 53.4408 57.8576 49.5123 58.7326 44.7572ZM62.1544 40.0688V40.0977C62.1544 41.5361 60.9953 42.7064 59.5708 42.7064H58.956C58.962 42.5366 58.9662 42.3663 58.9662 42.195V37.4542H59.5708C60.9954 37.4542 62.1544 38.6272 62.1544 40.0688ZM59.3352 35.4035H57.9458C57.9449 35.4035 57.9441 35.4036 57.9433 35.4036C57.9425 35.4036 57.9416 35.4035 57.9408 35.4035H57.012C55.8623 35.4035 54.9232 34.4954 54.8675 33.3594H59.3354V35.4035H59.3352ZM61.386 31.3086H28.3001V30.9668C28.3001 30.0244 29.0667 29.2578 30.0091 29.2578H59.677C60.6194 29.2578 61.386 30.0244 61.386 30.9668V31.3086ZM29.8641 42.7064C29.8562 42.7063 29.8484 42.7052 29.8403 42.7052C29.8323 42.7052 29.8245 42.7062 29.8166 42.7064H29.798C28.3734 42.7064 27.2144 41.5361 27.2144 40.0977V40.0688C27.2144 38.6272 28.3735 37.4542 29.798 37.4542H30.7201V42.195C30.7201 42.3663 30.7244 42.5366 30.7304 42.7064H29.8641ZM32.6774 35.4035H30.3346V33.3594H34.8221C34.7963 33.8937 34.5786 34.3928 34.1976 34.7737C33.7915 35.1798 33.2516 35.4035 32.6774 35.4035ZM46.7229 17.6367C49.1731 17.6367 51.1663 19.6299 51.1663 22.0801V27.207H38.5198V22.0801C38.5198 19.6299 40.513 17.6367 42.9632 17.6367H46.7229ZM38.2335 17.6367C37.1406 18.7994 36.469 20.3623 36.469 22.0801V27.207H30.3509V24.8145C30.3509 20.8567 33.5709 17.6367 37.5286 17.6367H38.2335ZM59.3352 24.8145V27.207H53.2171V22.0801C53.2171 20.3623 52.5455 18.7994 51.4526 17.6367H52.1575C56.1152 17.6367 59.3352 20.8567 59.3352 24.8145ZM10.1172 13.8369C10.1172 12.9291 10.4717 12.0758 11.1153 11.4339C11.7388 10.8121 12.5599 10.4604 13.4377 10.4366C13.4799 10.4412 13.5221 10.4429 13.5653 10.443C15.2199 10.443 16.7547 9.71988 17.7782 8.45742C19.7186 6.06471 24.3385 2.05078 33.4784 2.05078H34.4524C35.2377 2.05078 35.853 2.65234 35.853 3.42043C35.853 3.44449 35.8538 3.46828 35.8554 3.49166C35.8873 4.15748 36.2285 4.77176 36.7818 5.15047C37.3637 5.54846 38.1034 5.63363 38.7606 5.37797C38.7733 5.37305 38.7857 5.36799 38.7979 5.36266C40.7387 4.63094 42.9403 5.58988 43.7241 7.52158L43.8012 7.70766C44.484 9.39053 43.9777 11.7443 42.6957 12.8479C41.4967 13.88 40.1659 14.7674 38.7402 15.4856C38.6829 15.5144 38.63 15.5485 38.5806 15.5859H37.5283C35.3917 15.5859 33.4239 16.3179 31.8579 17.5414C31.7733 17.5279 31.6859 17.5235 31.5965 17.5319C30.8842 17.6014 30.1511 17.6367 29.4175 17.6367H17.4316C16.1124 17.6367 15.039 18.7101 15.039 20.0293V23.8019C15.039 24.1654 14.7318 24.4727 14.3683 24.4727H13.3973V21.0291C13.3973 20.4627 12.9384 20.0037 12.3719 20.0037H10.4292C10.3242 20.0037 10.2204 20.0085 10.1172 20.0155V13.8369ZM10.4292 27.3067C9.00455 27.3067 7.84558 26.1364 7.84558 24.698V24.6691C7.84558 23.2274 9.00468 22.0545 10.4292 22.0545H11.3465V26.7952C11.3465 26.9665 11.3508 27.1369 11.3568 27.3067H10.4292ZM13.3973 26.7952V26.5234H14.3683C15.8689 26.5234 17.0898 25.3025 17.0898 23.8019V20.0293C17.0898 19.844 17.2464 19.6875 17.4316 19.6875H29.4179C29.5664 19.6875 29.7147 19.6848 29.863 19.6822C28.8766 21.1507 28.3001 22.9164 28.3001 24.8145V27.6196C27.084 28.2431 26.2493 29.509 26.2493 30.9668V31.8962C24.6901 32.1187 23.0845 31.6632 21.814 30.5843C21.3825 30.2174 20.7353 30.2704 20.3687 30.7021C20.0022 31.1337 20.055 31.7808 20.4866 32.1474C21.9279 33.3714 23.6901 34.0056 25.4711 34.0056C26.4185 34.0056 27.3711 33.8244 28.2838 33.4586V35.6604C26.8399 36.1643 25.7183 37.3671 25.3206 38.8655C18.7324 38.7853 13.3973 33.402 13.3973 26.7952ZM25.482 47.0712C25.4793 47.0712 25.4768 47.0712 25.4741 47.0712C24.5834 47.0712 23.7457 46.7249 23.1149 46.0954C22.4823 45.4642 22.1338 44.6243 22.1338 43.7306V40.5193C23.1311 40.7617 24.1694 40.898 25.2362 40.9154C25.5574 42.7314 26.9274 44.1865 28.6927 44.6224C28.302 46.0294 27.011 47.0678 25.482 47.0712ZM32.7708 42.195V37.452C33.8578 37.4284 34.8764 36.9951 35.6477 36.2239C36.416 35.4555 36.8488 34.4418 36.8753 33.3595H52.8139C52.8695 35.5946 54.6789 37.4011 56.9153 37.4519V42.1951C56.9153 48.8518 51.4997 54.2675 44.8429 54.2675C38.1865 54.2674 32.7708 48.8517 32.7708 42.195ZM48.1836 59.4655C48.1836 61.3033 46.6885 62.8019 44.8508 62.8061C43.9566 62.8016 43.1163 62.4616 42.4837 61.8304C41.8511 61.1991 41.5026 60.3593 41.5026 59.4655V55.918C42.5741 56.1788 43.6925 56.3181 44.8432 56.3181C45.9938 56.3181 47.1123 56.1788 48.1838 55.918V59.4655H48.1836Z" fill="black"/>
<path d="M49.9518 46.1055C49.5869 45.6722 48.9407 45.6164 48.507 45.981C46.3397 47.8049 43.328 47.8061 41.1827 45.9841C40.7511 45.6175 40.104 45.6703 39.7375 46.1019C39.3709 46.5334 39.4237 47.1806 39.8553 47.5472C41.3175 48.789 43.0742 49.41 44.8342 49.41C46.5924 49.41 48.354 48.7899 49.8274 47.5502C50.2607 47.1857 50.3163 46.5387 49.9518 46.1055Z" fill="black"/>
<path d="M50.7966 42.9314C51.3631 42.9314 51.822 42.4724 51.822 41.906V40.1597C51.822 39.5932 51.3631 39.1343 50.7966 39.1343C50.2302 39.1343 49.7712 39.5932 49.7712 40.1597V41.906C49.7712 42.4723 50.2302 42.9314 50.7966 42.9314Z" fill="black"/>
<path d="M39.915 41.906V40.1597C39.915 39.5932 39.4561 39.1343 38.8896 39.1343C38.3232 39.1343 37.8643 39.5932 37.8643 40.1597V41.906C37.8643 42.4724 38.3232 42.9314 38.8896 42.9314C39.4561 42.9314 39.915 42.4723 39.915 41.906Z" fill="black"/>
</g>
<g filter="url(#filter0_d)">
<path d="M110 35C110 21.1929 121.193 10 135 10H325C338.807 10 350 21.1929 350 35C350 48.8071 338.807 60 325 60H230H135C121.193 60 110 48.8071 110 35Z" fill="#FCE3AF"/>
<path d="M186.852 46.3954C186.447 46.3954 186.116 46.278 185.86 46.0434C185.626 45.7874 185.508 45.4567 185.508 45.0514V25.9153H178.628C178.244 25.9153 177.946 25.8193 177.732 25.6273C177.519 25.4353 177.412 25.158 177.412 24.7954C177.412 24.4327 177.519 24.1554 177.732 23.9634C177.946 23.7714 178.244 23.6754 178.628 23.6754H195.044C195.428 23.6754 195.727 23.7714 195.94 23.9634C196.154 24.1554 196.26 24.4327 196.26 24.7954C196.26 25.158 196.154 25.4353 195.94 25.6273C195.727 25.8193 195.428 25.9153 195.044 25.9153H188.164V45.0514C188.164 45.4567 188.047 45.7874 187.812 46.0434C187.578 46.278 187.258 46.3954 186.852 46.3954ZM208.306 30.3314C208.711 30.3314 209.02 30.4487 209.234 30.6834C209.468 30.918 209.586 31.2274 209.586 31.6114V45.1474C209.586 45.51 209.468 45.8087 209.234 46.0434C209.02 46.278 208.711 46.3954 208.306 46.3954C207.922 46.3954 207.612 46.2887 207.378 46.0754C207.164 45.8407 207.058 45.542 207.058 45.1794V43.5794C206.567 44.518 205.874 45.2327 204.978 45.7234C204.103 46.214 203.111 46.4594 202.002 46.4594C200.146 46.4594 198.748 45.9474 197.81 44.9234C196.871 43.878 196.402 42.342 196.402 40.3154V31.6114C196.402 31.2274 196.519 30.918 196.754 30.6834C196.988 30.4487 197.308 30.3314 197.714 30.3314C198.119 30.3314 198.428 30.4487 198.642 30.6834C198.876 30.918 198.994 31.2274 198.994 31.6114V40.2514C198.994 41.638 199.271 42.662 199.826 43.3234C200.38 43.9634 201.255 44.2834 202.45 44.2834C203.815 44.2834 204.914 43.846 205.746 42.9714C206.578 42.0754 206.994 40.902 206.994 39.4514V31.6114C206.994 31.2274 207.111 30.918 207.346 30.6834C207.58 30.4487 207.9 30.3314 208.306 30.3314ZM221.603 44.3474C222.35 44.4114 222.723 44.7527 222.723 45.3714C222.723 45.734 222.584 46.0114 222.307 46.2034C222.051 46.374 221.656 46.438 221.123 46.3954L220.259 46.3314C218.552 46.2034 217.294 45.6914 216.483 44.7954C215.672 43.8994 215.267 42.5447 215.267 40.7314V32.6994H213.123C212.76 32.6994 212.472 32.614 212.259 32.4434C212.067 32.2514 211.971 32.006 211.971 31.7074C211.971 31.3874 212.067 31.1314 212.259 30.9394C212.472 30.7474 212.76 30.6514 213.123 30.6514H215.267V27.0354C215.267 26.63 215.384 26.3207 215.619 26.1074C215.854 25.8727 216.174 25.7554 216.579 25.7554C216.963 25.7554 217.272 25.8727 217.507 26.1074C217.742 26.3207 217.859 26.63 217.859 27.0354V30.6514H221.411C221.752 30.6514 222.019 30.7474 222.211 30.9394C222.424 31.1314 222.531 31.3874 222.531 31.7074C222.531 32.006 222.424 32.2514 222.211 32.4434C222.019 32.614 221.752 32.6994 221.411 32.6994H217.859V40.8594C217.859 42.0327 218.094 42.886 218.563 43.4194C219.054 43.9314 219.779 44.2194 220.739 44.2834L221.603 44.3474ZM231.742 46.4594C230.27 46.4594 228.969 46.1287 227.838 45.4674C226.729 44.806 225.865 43.8674 225.246 42.6514C224.649 41.414 224.35 39.9847 224.35 38.3634C224.35 36.742 224.649 35.3234 225.246 34.1074C225.865 32.87 226.729 31.9207 227.838 31.2594C228.969 30.598 230.27 30.2674 231.742 30.2674C233.214 30.2674 234.515 30.598 235.646 31.2594C236.777 31.9207 237.641 32.87 238.238 34.1074C238.857 35.3234 239.166 36.742 239.166 38.3634C239.166 39.9847 238.857 41.414 238.238 42.6514C237.641 43.8674 236.777 44.806 235.646 45.4674C234.515 46.1287 233.214 46.4594 231.742 46.4594ZM231.742 44.3154C233.278 44.3154 234.451 43.814 235.262 42.8114C236.094 41.7874 236.51 40.3047 236.51 38.3634C236.51 36.4647 236.094 35.0034 235.262 33.9794C234.43 32.934 233.257 32.4114 231.742 32.4114C230.227 32.4114 229.054 32.934 228.222 33.9794C227.39 35.0034 226.974 36.4647 226.974 38.3634C226.974 40.2834 227.379 41.7554 228.19 42.7794C229.022 43.8034 230.206 44.3154 231.742 44.3154ZM250.74 30.3314C251.636 30.2674 252.084 30.63 252.084 31.4194C252.084 31.7607 251.988 32.038 251.796 32.2514C251.604 32.4434 251.273 32.5607 250.804 32.6034L249.844 32.6994C248.415 32.8274 247.348 33.3394 246.644 34.2354C245.961 35.11 245.62 36.1447 245.62 37.3394V45.1154C245.62 45.542 245.503 45.862 245.268 46.0754C245.033 46.2887 244.724 46.3954 244.34 46.3954C243.956 46.3954 243.636 46.2887 243.38 46.0754C243.145 45.8407 243.028 45.5207 243.028 45.1154V31.6114C243.028 31.206 243.156 30.8967 243.412 30.6834C243.668 30.4487 243.977 30.3314 244.34 30.3314C244.681 30.3314 244.969 30.4487 245.204 30.6834C245.439 30.8967 245.556 31.1954 245.556 31.5794V33.3714C246.004 32.4327 246.633 31.718 247.444 31.2274C248.276 30.7367 249.225 30.4487 250.292 30.3634L250.74 30.3314ZM266.061 42.6194C266.295 42.6194 266.498 42.7154 266.669 42.9074C266.839 43.0994 266.925 43.3447 266.925 43.6434C266.925 44.1767 266.551 44.6674 265.805 45.1154C265.037 45.5634 264.226 45.9047 263.373 46.1394C262.519 46.3527 261.687 46.4594 260.877 46.4594C258.466 46.4594 256.557 45.7447 255.149 44.3154C253.762 42.886 253.069 40.9127 253.069 38.3954C253.069 36.7954 253.378 35.3874 253.997 34.1714C254.615 32.934 255.479 31.974 256.589 31.2914C257.719 30.6087 258.999 30.2674 260.429 30.2674C262.455 30.2674 264.066 30.9287 265.261 32.2514C266.455 33.574 267.053 35.366 267.053 37.6274C267.053 38.054 266.967 38.3634 266.797 38.5554C266.626 38.7474 266.349 38.8434 265.965 38.8434H255.661C255.853 42.5127 257.591 44.3474 260.877 44.3474C261.709 44.3474 262.423 44.2407 263.021 44.0274C263.618 43.7927 264.258 43.4834 264.941 43.0994C265.495 42.7794 265.869 42.6194 266.061 42.6194ZM260.461 32.2834C259.095 32.2834 257.997 32.71 257.165 33.5634C256.354 34.4167 255.874 35.622 255.725 37.1794H264.781C264.738 35.6007 264.343 34.3954 263.597 33.5634C262.85 32.71 261.805 32.2834 260.461 32.2834ZM276.12 46.4594C275.138 46.4594 274.2 46.342 273.304 46.1074C272.429 45.8727 271.65 45.542 270.968 45.1154C270.584 44.8594 270.306 44.6247 270.136 44.4114C269.986 44.1767 269.912 43.8994 269.912 43.5794C269.912 43.302 269.986 43.078 270.136 42.9074C270.306 42.7154 270.52 42.6194 270.776 42.6194C271.032 42.6194 271.405 42.7794 271.896 43.0994C272.536 43.4834 273.165 43.7927 273.784 44.0274C274.424 44.2407 275.213 44.3474 276.152 44.3474C277.304 44.3474 278.2 44.1447 278.84 43.7394C279.48 43.334 279.8 42.7474 279.8 41.9794C279.8 41.51 279.682 41.1367 279.448 40.8594C279.213 40.5607 278.808 40.3047 278.232 40.0914C277.656 39.8567 276.813 39.622 275.704 39.3874C273.826 38.982 272.482 38.438 271.672 37.7554C270.861 37.0727 270.456 36.1447 270.456 34.9714C270.456 34.054 270.712 33.2434 271.224 32.5394C271.736 31.8354 272.44 31.2807 273.336 30.8754C274.253 30.47 275.288 30.2674 276.44 30.2674C277.272 30.2674 278.072 30.3847 278.84 30.6194C279.629 30.8327 280.322 31.142 280.92 31.5474C281.645 32.0594 282.008 32.5927 282.008 33.1474C282.008 33.4247 281.922 33.6594 281.752 33.8514C281.581 34.0434 281.378 34.1394 281.144 34.1394C280.888 34.1394 280.504 33.958 279.992 33.5954C279.394 33.2114 278.829 32.9127 278.296 32.6994C277.762 32.486 277.101 32.3794 276.312 32.3794C275.309 32.3794 274.498 32.6034 273.88 33.0514C273.282 33.4994 272.984 34.0967 272.984 34.8434C272.984 35.3127 273.09 35.6967 273.304 35.9954C273.538 36.2727 273.912 36.5287 274.424 36.7634C274.957 36.9767 275.714 37.19 276.696 37.4034C278.146 37.7234 279.266 38.0754 280.056 38.4594C280.866 38.8434 281.442 39.3127 281.784 39.8674C282.125 40.422 282.296 41.126 282.296 41.9794C282.296 43.3234 281.73 44.4114 280.6 45.2434C279.469 46.054 277.976 46.4594 276.12 46.4594Z" fill="black"/>
</g>
</g>
<defs>
<filter id="filter0_d" x="109" y="10" width="256" height="66" filterUnits="userSpaceOnUse" color-interpolation-filters="sRGB">
<feFlood flood-opacity="0" result="BackgroundImageFix"/>
<feColorMatrix in="SourceAlpha" type="matrix" values="0 0 0 0 0 0 0 0 0 0 0 0 0 0 0 0 0 0 127 0"/>
<feOffset dx="7" dy="8"/>
<feGaussianBlur stdDeviation="4"/>
<feColorMatrix type="matrix" values="0 0 0 0 0 0 0 0 0 0 0 0 0 0 0 0 0 0 0.25 0"/>
<feBlend mode="normal" in2="BackgroundImageFix" result="effect1_dropShadow"/>
<feBlend mode="normal" in="SourceGraphic" in2="effect1_dropShadow" result="shape"/>
</filter>
<clipPath id="clip0">
<rect width="350" height="70" fill="white"/>
</clipPath>
<clipPath id="clip1">
<rect width="70" height="70" fill="white"/>
</clipPath>
</defs>
</svg>
